G04 #@! TF.GenerationSoftware,KiCad,Pcbnew,(5.1.5)-3*
G04 #@! TF.CreationDate,2020-02-26T18:40:07+01:00*
G04 #@! TF.ProjectId,minirpi2,6d696e69-7270-4693-922e-6b696361645f,rev?*
G04 #@! TF.SameCoordinates,Original*
G04 #@! TF.FileFunction,Paste,Bot*
G04 #@! TF.FilePolarity,Positive*
%FSLAX46Y46*%
G04 Gerber Fmt 4.6, Leading zero omitted, Abs format (unit mm)*
G04 Created by KiCad (PCBNEW (5.1.5)-3) date 2020-02-26 18:40:07*
%MOMM*%
%LPD*%
G04 APERTURE LIST*
%ADD10C,0.100000*%
%ADD11R,1.200000X3.200000*%
%ADD12R,4.191000X1.270000*%
%ADD13R,3.683000X1.270000*%
%ADD14R,1.500000X3.000000*%
%ADD15R,2.000000X3.000000*%
%ADD16R,3.000000X2.000000*%
G04 APERTURE END LIST*
D10*
G36*
X192135505Y-52035204D02*
G01*
X192159773Y-52038804D01*
X192183572Y-52044765D01*
X192206671Y-52053030D01*
X192228850Y-52063520D01*
X192249893Y-52076132D01*
X192269599Y-52090747D01*
X192287777Y-52107223D01*
X192304253Y-52125401D01*
X192318868Y-52145107D01*
X192331480Y-52166150D01*
X192341970Y-52188329D01*
X192350235Y-52211428D01*
X192356196Y-52235227D01*
X192359796Y-52259495D01*
X192361000Y-52283999D01*
X192361000Y-53184001D01*
X192359796Y-53208505D01*
X192356196Y-53232773D01*
X192350235Y-53256572D01*
X192341970Y-53279671D01*
X192331480Y-53301850D01*
X192318868Y-53322893D01*
X192304253Y-53342599D01*
X192287777Y-53360777D01*
X192269599Y-53377253D01*
X192249893Y-53391868D01*
X192228850Y-53404480D01*
X192206671Y-53414970D01*
X192183572Y-53423235D01*
X192159773Y-53429196D01*
X192135505Y-53432796D01*
X192111001Y-53434000D01*
X191460999Y-53434000D01*
X191436495Y-53432796D01*
X191412227Y-53429196D01*
X191388428Y-53423235D01*
X191365329Y-53414970D01*
X191343150Y-53404480D01*
X191322107Y-53391868D01*
X191302401Y-53377253D01*
X191284223Y-53360777D01*
X191267747Y-53342599D01*
X191253132Y-53322893D01*
X191240520Y-53301850D01*
X191230030Y-53279671D01*
X191221765Y-53256572D01*
X191215804Y-53232773D01*
X191212204Y-53208505D01*
X191211000Y-53184001D01*
X191211000Y-52283999D01*
X191212204Y-52259495D01*
X191215804Y-52235227D01*
X191221765Y-52211428D01*
X191230030Y-52188329D01*
X191240520Y-52166150D01*
X191253132Y-52145107D01*
X191267747Y-52125401D01*
X191284223Y-52107223D01*
X191302401Y-52090747D01*
X191322107Y-52076132D01*
X191343150Y-52063520D01*
X191365329Y-52053030D01*
X191388428Y-52044765D01*
X191412227Y-52038804D01*
X191436495Y-52035204D01*
X191460999Y-52034000D01*
X192111001Y-52034000D01*
X192135505Y-52035204D01*
G37*
G36*
X194185505Y-52035204D02*
G01*
X194209773Y-52038804D01*
X194233572Y-52044765D01*
X194256671Y-52053030D01*
X194278850Y-52063520D01*
X194299893Y-52076132D01*
X194319599Y-52090747D01*
X194337777Y-52107223D01*
X194354253Y-52125401D01*
X194368868Y-52145107D01*
X194381480Y-52166150D01*
X194391970Y-52188329D01*
X194400235Y-52211428D01*
X194406196Y-52235227D01*
X194409796Y-52259495D01*
X194411000Y-52283999D01*
X194411000Y-53184001D01*
X194409796Y-53208505D01*
X194406196Y-53232773D01*
X194400235Y-53256572D01*
X194391970Y-53279671D01*
X194381480Y-53301850D01*
X194368868Y-53322893D01*
X194354253Y-53342599D01*
X194337777Y-53360777D01*
X194319599Y-53377253D01*
X194299893Y-53391868D01*
X194278850Y-53404480D01*
X194256671Y-53414970D01*
X194233572Y-53423235D01*
X194209773Y-53429196D01*
X194185505Y-53432796D01*
X194161001Y-53434000D01*
X193510999Y-53434000D01*
X193486495Y-53432796D01*
X193462227Y-53429196D01*
X193438428Y-53423235D01*
X193415329Y-53414970D01*
X193393150Y-53404480D01*
X193372107Y-53391868D01*
X193352401Y-53377253D01*
X193334223Y-53360777D01*
X193317747Y-53342599D01*
X193303132Y-53322893D01*
X193290520Y-53301850D01*
X193280030Y-53279671D01*
X193271765Y-53256572D01*
X193265804Y-53232773D01*
X193262204Y-53208505D01*
X193261000Y-53184001D01*
X193261000Y-52283999D01*
X193262204Y-52259495D01*
X193265804Y-52235227D01*
X193271765Y-52211428D01*
X193280030Y-52188329D01*
X193290520Y-52166150D01*
X193303132Y-52145107D01*
X193317747Y-52125401D01*
X193334223Y-52107223D01*
X193352401Y-52090747D01*
X193372107Y-52076132D01*
X193393150Y-52063520D01*
X193415329Y-52053030D01*
X193438428Y-52044765D01*
X193462227Y-52038804D01*
X193486495Y-52035204D01*
X193510999Y-52034000D01*
X194161001Y-52034000D01*
X194185505Y-52035204D01*
G37*
G36*
X192135505Y-49085204D02*
G01*
X192159773Y-49088804D01*
X192183572Y-49094765D01*
X192206671Y-49103030D01*
X192228850Y-49113520D01*
X192249893Y-49126132D01*
X192269599Y-49140747D01*
X192287777Y-49157223D01*
X192304253Y-49175401D01*
X192318868Y-49195107D01*
X192331480Y-49216150D01*
X192341970Y-49238329D01*
X192350235Y-49261428D01*
X192356196Y-49285227D01*
X192359796Y-49309495D01*
X192361000Y-49333999D01*
X192361000Y-50234001D01*
X192359796Y-50258505D01*
X192356196Y-50282773D01*
X192350235Y-50306572D01*
X192341970Y-50329671D01*
X192331480Y-50351850D01*
X192318868Y-50372893D01*
X192304253Y-50392599D01*
X192287777Y-50410777D01*
X192269599Y-50427253D01*
X192249893Y-50441868D01*
X192228850Y-50454480D01*
X192206671Y-50464970D01*
X192183572Y-50473235D01*
X192159773Y-50479196D01*
X192135505Y-50482796D01*
X192111001Y-50484000D01*
X191460999Y-50484000D01*
X191436495Y-50482796D01*
X191412227Y-50479196D01*
X191388428Y-50473235D01*
X191365329Y-50464970D01*
X191343150Y-50454480D01*
X191322107Y-50441868D01*
X191302401Y-50427253D01*
X191284223Y-50410777D01*
X191267747Y-50392599D01*
X191253132Y-50372893D01*
X191240520Y-50351850D01*
X191230030Y-50329671D01*
X191221765Y-50306572D01*
X191215804Y-50282773D01*
X191212204Y-50258505D01*
X191211000Y-50234001D01*
X191211000Y-49333999D01*
X191212204Y-49309495D01*
X191215804Y-49285227D01*
X191221765Y-49261428D01*
X191230030Y-49238329D01*
X191240520Y-49216150D01*
X191253132Y-49195107D01*
X191267747Y-49175401D01*
X191284223Y-49157223D01*
X191302401Y-49140747D01*
X191322107Y-49126132D01*
X191343150Y-49113520D01*
X191365329Y-49103030D01*
X191388428Y-49094765D01*
X191412227Y-49088804D01*
X191436495Y-49085204D01*
X191460999Y-49084000D01*
X192111001Y-49084000D01*
X192135505Y-49085204D01*
G37*
G36*
X194185505Y-49085204D02*
G01*
X194209773Y-49088804D01*
X194233572Y-49094765D01*
X194256671Y-49103030D01*
X194278850Y-49113520D01*
X194299893Y-49126132D01*
X194319599Y-49140747D01*
X194337777Y-49157223D01*
X194354253Y-49175401D01*
X194368868Y-49195107D01*
X194381480Y-49216150D01*
X194391970Y-49238329D01*
X194400235Y-49261428D01*
X194406196Y-49285227D01*
X194409796Y-49309495D01*
X194411000Y-49333999D01*
X194411000Y-50234001D01*
X194409796Y-50258505D01*
X194406196Y-50282773D01*
X194400235Y-50306572D01*
X194391970Y-50329671D01*
X194381480Y-50351850D01*
X194368868Y-50372893D01*
X194354253Y-50392599D01*
X194337777Y-50410777D01*
X194319599Y-50427253D01*
X194299893Y-50441868D01*
X194278850Y-50454480D01*
X194256671Y-50464970D01*
X194233572Y-50473235D01*
X194209773Y-50479196D01*
X194185505Y-50482796D01*
X194161001Y-50484000D01*
X193510999Y-50484000D01*
X193486495Y-50482796D01*
X193462227Y-50479196D01*
X193438428Y-50473235D01*
X193415329Y-50464970D01*
X193393150Y-50454480D01*
X193372107Y-50441868D01*
X193352401Y-50427253D01*
X193334223Y-50410777D01*
X193317747Y-50392599D01*
X193303132Y-50372893D01*
X193290520Y-50351850D01*
X193280030Y-50329671D01*
X193271765Y-50306572D01*
X193265804Y-50282773D01*
X193262204Y-50258505D01*
X193261000Y-50234001D01*
X193261000Y-49333999D01*
X193262204Y-49309495D01*
X193265804Y-49285227D01*
X193271765Y-49261428D01*
X193280030Y-49238329D01*
X193290520Y-49216150D01*
X193303132Y-49195107D01*
X193317747Y-49175401D01*
X193334223Y-49157223D01*
X193352401Y-49140747D01*
X193372107Y-49126132D01*
X193393150Y-49113520D01*
X193415329Y-49103030D01*
X193438428Y-49094765D01*
X193462227Y-49088804D01*
X193486495Y-49085204D01*
X193510999Y-49084000D01*
X194161001Y-49084000D01*
X194185505Y-49085204D01*
G37*
G36*
X201635505Y-52035204D02*
G01*
X201659773Y-52038804D01*
X201683572Y-52044765D01*
X201706671Y-52053030D01*
X201728850Y-52063520D01*
X201749893Y-52076132D01*
X201769599Y-52090747D01*
X201787777Y-52107223D01*
X201804253Y-52125401D01*
X201818868Y-52145107D01*
X201831480Y-52166150D01*
X201841970Y-52188329D01*
X201850235Y-52211428D01*
X201856196Y-52235227D01*
X201859796Y-52259495D01*
X201861000Y-52283999D01*
X201861000Y-53184001D01*
X201859796Y-53208505D01*
X201856196Y-53232773D01*
X201850235Y-53256572D01*
X201841970Y-53279671D01*
X201831480Y-53301850D01*
X201818868Y-53322893D01*
X201804253Y-53342599D01*
X201787777Y-53360777D01*
X201769599Y-53377253D01*
X201749893Y-53391868D01*
X201728850Y-53404480D01*
X201706671Y-53414970D01*
X201683572Y-53423235D01*
X201659773Y-53429196D01*
X201635505Y-53432796D01*
X201611001Y-53434000D01*
X200960999Y-53434000D01*
X200936495Y-53432796D01*
X200912227Y-53429196D01*
X200888428Y-53423235D01*
X200865329Y-53414970D01*
X200843150Y-53404480D01*
X200822107Y-53391868D01*
X200802401Y-53377253D01*
X200784223Y-53360777D01*
X200767747Y-53342599D01*
X200753132Y-53322893D01*
X200740520Y-53301850D01*
X200730030Y-53279671D01*
X200721765Y-53256572D01*
X200715804Y-53232773D01*
X200712204Y-53208505D01*
X200711000Y-53184001D01*
X200711000Y-52283999D01*
X200712204Y-52259495D01*
X200715804Y-52235227D01*
X200721765Y-52211428D01*
X200730030Y-52188329D01*
X200740520Y-52166150D01*
X200753132Y-52145107D01*
X200767747Y-52125401D01*
X200784223Y-52107223D01*
X200802401Y-52090747D01*
X200822107Y-52076132D01*
X200843150Y-52063520D01*
X200865329Y-52053030D01*
X200888428Y-52044765D01*
X200912227Y-52038804D01*
X200936495Y-52035204D01*
X200960999Y-52034000D01*
X201611001Y-52034000D01*
X201635505Y-52035204D01*
G37*
G36*
X203685505Y-52035204D02*
G01*
X203709773Y-52038804D01*
X203733572Y-52044765D01*
X203756671Y-52053030D01*
X203778850Y-52063520D01*
X203799893Y-52076132D01*
X203819599Y-52090747D01*
X203837777Y-52107223D01*
X203854253Y-52125401D01*
X203868868Y-52145107D01*
X203881480Y-52166150D01*
X203891970Y-52188329D01*
X203900235Y-52211428D01*
X203906196Y-52235227D01*
X203909796Y-52259495D01*
X203911000Y-52283999D01*
X203911000Y-53184001D01*
X203909796Y-53208505D01*
X203906196Y-53232773D01*
X203900235Y-53256572D01*
X203891970Y-53279671D01*
X203881480Y-53301850D01*
X203868868Y-53322893D01*
X203854253Y-53342599D01*
X203837777Y-53360777D01*
X203819599Y-53377253D01*
X203799893Y-53391868D01*
X203778850Y-53404480D01*
X203756671Y-53414970D01*
X203733572Y-53423235D01*
X203709773Y-53429196D01*
X203685505Y-53432796D01*
X203661001Y-53434000D01*
X203010999Y-53434000D01*
X202986495Y-53432796D01*
X202962227Y-53429196D01*
X202938428Y-53423235D01*
X202915329Y-53414970D01*
X202893150Y-53404480D01*
X202872107Y-53391868D01*
X202852401Y-53377253D01*
X202834223Y-53360777D01*
X202817747Y-53342599D01*
X202803132Y-53322893D01*
X202790520Y-53301850D01*
X202780030Y-53279671D01*
X202771765Y-53256572D01*
X202765804Y-53232773D01*
X202762204Y-53208505D01*
X202761000Y-53184001D01*
X202761000Y-52283999D01*
X202762204Y-52259495D01*
X202765804Y-52235227D01*
X202771765Y-52211428D01*
X202780030Y-52188329D01*
X202790520Y-52166150D01*
X202803132Y-52145107D01*
X202817747Y-52125401D01*
X202834223Y-52107223D01*
X202852401Y-52090747D01*
X202872107Y-52076132D01*
X202893150Y-52063520D01*
X202915329Y-52053030D01*
X202938428Y-52044765D01*
X202962227Y-52038804D01*
X202986495Y-52035204D01*
X203010999Y-52034000D01*
X203661001Y-52034000D01*
X203685505Y-52035204D01*
G37*
G36*
X196885505Y-49085204D02*
G01*
X196909773Y-49088804D01*
X196933572Y-49094765D01*
X196956671Y-49103030D01*
X196978850Y-49113520D01*
X196999893Y-49126132D01*
X197019599Y-49140747D01*
X197037777Y-49157223D01*
X197054253Y-49175401D01*
X197068868Y-49195107D01*
X197081480Y-49216150D01*
X197091970Y-49238329D01*
X197100235Y-49261428D01*
X197106196Y-49285227D01*
X197109796Y-49309495D01*
X197111000Y-49333999D01*
X197111000Y-50234001D01*
X197109796Y-50258505D01*
X197106196Y-50282773D01*
X197100235Y-50306572D01*
X197091970Y-50329671D01*
X197081480Y-50351850D01*
X197068868Y-50372893D01*
X197054253Y-50392599D01*
X197037777Y-50410777D01*
X197019599Y-50427253D01*
X196999893Y-50441868D01*
X196978850Y-50454480D01*
X196956671Y-50464970D01*
X196933572Y-50473235D01*
X196909773Y-50479196D01*
X196885505Y-50482796D01*
X196861001Y-50484000D01*
X196210999Y-50484000D01*
X196186495Y-50482796D01*
X196162227Y-50479196D01*
X196138428Y-50473235D01*
X196115329Y-50464970D01*
X196093150Y-50454480D01*
X196072107Y-50441868D01*
X196052401Y-50427253D01*
X196034223Y-50410777D01*
X196017747Y-50392599D01*
X196003132Y-50372893D01*
X195990520Y-50351850D01*
X195980030Y-50329671D01*
X195971765Y-50306572D01*
X195965804Y-50282773D01*
X195962204Y-50258505D01*
X195961000Y-50234001D01*
X195961000Y-49333999D01*
X195962204Y-49309495D01*
X195965804Y-49285227D01*
X195971765Y-49261428D01*
X195980030Y-49238329D01*
X195990520Y-49216150D01*
X196003132Y-49195107D01*
X196017747Y-49175401D01*
X196034223Y-49157223D01*
X196052401Y-49140747D01*
X196072107Y-49126132D01*
X196093150Y-49113520D01*
X196115329Y-49103030D01*
X196138428Y-49094765D01*
X196162227Y-49088804D01*
X196186495Y-49085204D01*
X196210999Y-49084000D01*
X196861001Y-49084000D01*
X196885505Y-49085204D01*
G37*
G36*
X198935505Y-49085204D02*
G01*
X198959773Y-49088804D01*
X198983572Y-49094765D01*
X199006671Y-49103030D01*
X199028850Y-49113520D01*
X199049893Y-49126132D01*
X199069599Y-49140747D01*
X199087777Y-49157223D01*
X199104253Y-49175401D01*
X199118868Y-49195107D01*
X199131480Y-49216150D01*
X199141970Y-49238329D01*
X199150235Y-49261428D01*
X199156196Y-49285227D01*
X199159796Y-49309495D01*
X199161000Y-49333999D01*
X199161000Y-50234001D01*
X199159796Y-50258505D01*
X199156196Y-50282773D01*
X199150235Y-50306572D01*
X199141970Y-50329671D01*
X199131480Y-50351850D01*
X199118868Y-50372893D01*
X199104253Y-50392599D01*
X199087777Y-50410777D01*
X199069599Y-50427253D01*
X199049893Y-50441868D01*
X199028850Y-50454480D01*
X199006671Y-50464970D01*
X198983572Y-50473235D01*
X198959773Y-50479196D01*
X198935505Y-50482796D01*
X198911001Y-50484000D01*
X198260999Y-50484000D01*
X198236495Y-50482796D01*
X198212227Y-50479196D01*
X198188428Y-50473235D01*
X198165329Y-50464970D01*
X198143150Y-50454480D01*
X198122107Y-50441868D01*
X198102401Y-50427253D01*
X198084223Y-50410777D01*
X198067747Y-50392599D01*
X198053132Y-50372893D01*
X198040520Y-50351850D01*
X198030030Y-50329671D01*
X198021765Y-50306572D01*
X198015804Y-50282773D01*
X198012204Y-50258505D01*
X198011000Y-50234001D01*
X198011000Y-49333999D01*
X198012204Y-49309495D01*
X198015804Y-49285227D01*
X198021765Y-49261428D01*
X198030030Y-49238329D01*
X198040520Y-49216150D01*
X198053132Y-49195107D01*
X198067747Y-49175401D01*
X198084223Y-49157223D01*
X198102401Y-49140747D01*
X198122107Y-49126132D01*
X198143150Y-49113520D01*
X198165329Y-49103030D01*
X198188428Y-49094765D01*
X198212227Y-49088804D01*
X198236495Y-49085204D01*
X198260999Y-49084000D01*
X198911001Y-49084000D01*
X198935505Y-49085204D01*
G37*
D11*
X202296000Y-73532000D03*
X204296000Y-73532000D03*
X206296000Y-73532000D03*
X208296000Y-73532000D03*
X210296000Y-73532000D03*
X212296000Y-73532000D03*
X214296000Y-73532000D03*
X216296000Y-73532000D03*
X216296000Y-57532000D03*
X214296000Y-57532000D03*
X212296000Y-57532000D03*
X210296000Y-57532000D03*
X208296000Y-57532000D03*
X206296000Y-57532000D03*
X204296000Y-57532000D03*
X202296000Y-57532000D03*
D12*
X220154500Y-73266300D03*
X220154500Y-68973700D03*
D13*
X220408500Y-71120000D03*
D12*
X220154500Y-73266300D03*
X220154500Y-68973700D03*
D10*
G36*
X189704505Y-48711204D02*
G01*
X189728773Y-48714804D01*
X189752572Y-48720765D01*
X189775671Y-48729030D01*
X189797850Y-48739520D01*
X189818893Y-48752132D01*
X189838599Y-48766747D01*
X189856777Y-48783223D01*
X189873253Y-48801401D01*
X189887868Y-48821107D01*
X189900480Y-48842150D01*
X189910970Y-48864329D01*
X189919235Y-48887428D01*
X189925196Y-48911227D01*
X189928796Y-48935495D01*
X189930000Y-48959999D01*
X189930000Y-49610001D01*
X189928796Y-49634505D01*
X189925196Y-49658773D01*
X189919235Y-49682572D01*
X189910970Y-49705671D01*
X189900480Y-49727850D01*
X189887868Y-49748893D01*
X189873253Y-49768599D01*
X189856777Y-49786777D01*
X189838599Y-49803253D01*
X189818893Y-49817868D01*
X189797850Y-49830480D01*
X189775671Y-49840970D01*
X189752572Y-49849235D01*
X189728773Y-49855196D01*
X189704505Y-49858796D01*
X189680001Y-49860000D01*
X188779999Y-49860000D01*
X188755495Y-49858796D01*
X188731227Y-49855196D01*
X188707428Y-49849235D01*
X188684329Y-49840970D01*
X188662150Y-49830480D01*
X188641107Y-49817868D01*
X188621401Y-49803253D01*
X188603223Y-49786777D01*
X188586747Y-49768599D01*
X188572132Y-49748893D01*
X188559520Y-49727850D01*
X188549030Y-49705671D01*
X188540765Y-49682572D01*
X188534804Y-49658773D01*
X188531204Y-49634505D01*
X188530000Y-49610001D01*
X188530000Y-48959999D01*
X188531204Y-48935495D01*
X188534804Y-48911227D01*
X188540765Y-48887428D01*
X188549030Y-48864329D01*
X188559520Y-48842150D01*
X188572132Y-48821107D01*
X188586747Y-48801401D01*
X188603223Y-48783223D01*
X188621401Y-48766747D01*
X188641107Y-48752132D01*
X188662150Y-48739520D01*
X188684329Y-48729030D01*
X188707428Y-48720765D01*
X188731227Y-48714804D01*
X188755495Y-48711204D01*
X188779999Y-48710000D01*
X189680001Y-48710000D01*
X189704505Y-48711204D01*
G37*
G36*
X189704505Y-46661204D02*
G01*
X189728773Y-46664804D01*
X189752572Y-46670765D01*
X189775671Y-46679030D01*
X189797850Y-46689520D01*
X189818893Y-46702132D01*
X189838599Y-46716747D01*
X189856777Y-46733223D01*
X189873253Y-46751401D01*
X189887868Y-46771107D01*
X189900480Y-46792150D01*
X189910970Y-46814329D01*
X189919235Y-46837428D01*
X189925196Y-46861227D01*
X189928796Y-46885495D01*
X189930000Y-46909999D01*
X189930000Y-47560001D01*
X189928796Y-47584505D01*
X189925196Y-47608773D01*
X189919235Y-47632572D01*
X189910970Y-47655671D01*
X189900480Y-47677850D01*
X189887868Y-47698893D01*
X189873253Y-47718599D01*
X189856777Y-47736777D01*
X189838599Y-47753253D01*
X189818893Y-47767868D01*
X189797850Y-47780480D01*
X189775671Y-47790970D01*
X189752572Y-47799235D01*
X189728773Y-47805196D01*
X189704505Y-47808796D01*
X189680001Y-47810000D01*
X188779999Y-47810000D01*
X188755495Y-47808796D01*
X188731227Y-47805196D01*
X188707428Y-47799235D01*
X188684329Y-47790970D01*
X188662150Y-47780480D01*
X188641107Y-47767868D01*
X188621401Y-47753253D01*
X188603223Y-47736777D01*
X188586747Y-47718599D01*
X188572132Y-47698893D01*
X188559520Y-47677850D01*
X188549030Y-47655671D01*
X188540765Y-47632572D01*
X188534804Y-47608773D01*
X188531204Y-47584505D01*
X188530000Y-47560001D01*
X188530000Y-46909999D01*
X188531204Y-46885495D01*
X188534804Y-46861227D01*
X188540765Y-46837428D01*
X188549030Y-46814329D01*
X188559520Y-46792150D01*
X188572132Y-46771107D01*
X188586747Y-46751401D01*
X188603223Y-46733223D01*
X188621401Y-46716747D01*
X188641107Y-46702132D01*
X188662150Y-46689520D01*
X188684329Y-46679030D01*
X188707428Y-46670765D01*
X188731227Y-46664804D01*
X188755495Y-46661204D01*
X188779999Y-46660000D01*
X189680001Y-46660000D01*
X189704505Y-46661204D01*
G37*
G36*
X203812505Y-49085204D02*
G01*
X203836773Y-49088804D01*
X203860572Y-49094765D01*
X203883671Y-49103030D01*
X203905850Y-49113520D01*
X203926893Y-49126132D01*
X203946599Y-49140747D01*
X203964777Y-49157223D01*
X203981253Y-49175401D01*
X203995868Y-49195107D01*
X204008480Y-49216150D01*
X204018970Y-49238329D01*
X204027235Y-49261428D01*
X204033196Y-49285227D01*
X204036796Y-49309495D01*
X204038000Y-49333999D01*
X204038000Y-50234001D01*
X204036796Y-50258505D01*
X204033196Y-50282773D01*
X204027235Y-50306572D01*
X204018970Y-50329671D01*
X204008480Y-50351850D01*
X203995868Y-50372893D01*
X203981253Y-50392599D01*
X203964777Y-50410777D01*
X203946599Y-50427253D01*
X203926893Y-50441868D01*
X203905850Y-50454480D01*
X203883671Y-50464970D01*
X203860572Y-50473235D01*
X203836773Y-50479196D01*
X203812505Y-50482796D01*
X203788001Y-50484000D01*
X203137999Y-50484000D01*
X203113495Y-50482796D01*
X203089227Y-50479196D01*
X203065428Y-50473235D01*
X203042329Y-50464970D01*
X203020150Y-50454480D01*
X202999107Y-50441868D01*
X202979401Y-50427253D01*
X202961223Y-50410777D01*
X202944747Y-50392599D01*
X202930132Y-50372893D01*
X202917520Y-50351850D01*
X202907030Y-50329671D01*
X202898765Y-50306572D01*
X202892804Y-50282773D01*
X202889204Y-50258505D01*
X202888000Y-50234001D01*
X202888000Y-49333999D01*
X202889204Y-49309495D01*
X202892804Y-49285227D01*
X202898765Y-49261428D01*
X202907030Y-49238329D01*
X202917520Y-49216150D01*
X202930132Y-49195107D01*
X202944747Y-49175401D01*
X202961223Y-49157223D01*
X202979401Y-49140747D01*
X202999107Y-49126132D01*
X203020150Y-49113520D01*
X203042329Y-49103030D01*
X203065428Y-49094765D01*
X203089227Y-49088804D01*
X203113495Y-49085204D01*
X203137999Y-49084000D01*
X203788001Y-49084000D01*
X203812505Y-49085204D01*
G37*
G36*
X201762505Y-49085204D02*
G01*
X201786773Y-49088804D01*
X201810572Y-49094765D01*
X201833671Y-49103030D01*
X201855850Y-49113520D01*
X201876893Y-49126132D01*
X201896599Y-49140747D01*
X201914777Y-49157223D01*
X201931253Y-49175401D01*
X201945868Y-49195107D01*
X201958480Y-49216150D01*
X201968970Y-49238329D01*
X201977235Y-49261428D01*
X201983196Y-49285227D01*
X201986796Y-49309495D01*
X201988000Y-49333999D01*
X201988000Y-50234001D01*
X201986796Y-50258505D01*
X201983196Y-50282773D01*
X201977235Y-50306572D01*
X201968970Y-50329671D01*
X201958480Y-50351850D01*
X201945868Y-50372893D01*
X201931253Y-50392599D01*
X201914777Y-50410777D01*
X201896599Y-50427253D01*
X201876893Y-50441868D01*
X201855850Y-50454480D01*
X201833671Y-50464970D01*
X201810572Y-50473235D01*
X201786773Y-50479196D01*
X201762505Y-50482796D01*
X201738001Y-50484000D01*
X201087999Y-50484000D01*
X201063495Y-50482796D01*
X201039227Y-50479196D01*
X201015428Y-50473235D01*
X200992329Y-50464970D01*
X200970150Y-50454480D01*
X200949107Y-50441868D01*
X200929401Y-50427253D01*
X200911223Y-50410777D01*
X200894747Y-50392599D01*
X200880132Y-50372893D01*
X200867520Y-50351850D01*
X200857030Y-50329671D01*
X200848765Y-50306572D01*
X200842804Y-50282773D01*
X200839204Y-50258505D01*
X200838000Y-50234001D01*
X200838000Y-49333999D01*
X200839204Y-49309495D01*
X200842804Y-49285227D01*
X200848765Y-49261428D01*
X200857030Y-49238329D01*
X200867520Y-49216150D01*
X200880132Y-49195107D01*
X200894747Y-49175401D01*
X200911223Y-49157223D01*
X200929401Y-49140747D01*
X200949107Y-49126132D01*
X200970150Y-49113520D01*
X200992329Y-49103030D01*
X201015428Y-49094765D01*
X201039227Y-49088804D01*
X201063495Y-49085204D01*
X201087999Y-49084000D01*
X201738001Y-49084000D01*
X201762505Y-49085204D01*
G37*
D14*
X221004000Y-46384000D03*
D15*
X218104000Y-46384000D03*
X220004000Y-53184000D03*
X210604000Y-53284000D03*
D16*
X206504000Y-48884000D03*
D10*
G36*
X191191505Y-66652204D02*
G01*
X191215773Y-66655804D01*
X191239572Y-66661765D01*
X191262671Y-66670030D01*
X191284850Y-66680520D01*
X191305893Y-66693132D01*
X191325599Y-66707747D01*
X191343777Y-66724223D01*
X191360253Y-66742401D01*
X191374868Y-66762107D01*
X191387480Y-66783150D01*
X191397970Y-66805329D01*
X191406235Y-66828428D01*
X191412196Y-66852227D01*
X191415796Y-66876495D01*
X191417000Y-66900999D01*
X191417000Y-67801001D01*
X191415796Y-67825505D01*
X191412196Y-67849773D01*
X191406235Y-67873572D01*
X191397970Y-67896671D01*
X191387480Y-67918850D01*
X191374868Y-67939893D01*
X191360253Y-67959599D01*
X191343777Y-67977777D01*
X191325599Y-67994253D01*
X191305893Y-68008868D01*
X191284850Y-68021480D01*
X191262671Y-68031970D01*
X191239572Y-68040235D01*
X191215773Y-68046196D01*
X191191505Y-68049796D01*
X191167001Y-68051000D01*
X190516999Y-68051000D01*
X190492495Y-68049796D01*
X190468227Y-68046196D01*
X190444428Y-68040235D01*
X190421329Y-68031970D01*
X190399150Y-68021480D01*
X190378107Y-68008868D01*
X190358401Y-67994253D01*
X190340223Y-67977777D01*
X190323747Y-67959599D01*
X190309132Y-67939893D01*
X190296520Y-67918850D01*
X190286030Y-67896671D01*
X190277765Y-67873572D01*
X190271804Y-67849773D01*
X190268204Y-67825505D01*
X190267000Y-67801001D01*
X190267000Y-66900999D01*
X190268204Y-66876495D01*
X190271804Y-66852227D01*
X190277765Y-66828428D01*
X190286030Y-66805329D01*
X190296520Y-66783150D01*
X190309132Y-66762107D01*
X190323747Y-66742401D01*
X190340223Y-66724223D01*
X190358401Y-66707747D01*
X190378107Y-66693132D01*
X190399150Y-66680520D01*
X190421329Y-66670030D01*
X190444428Y-66661765D01*
X190468227Y-66655804D01*
X190492495Y-66652204D01*
X190516999Y-66651000D01*
X191167001Y-66651000D01*
X191191505Y-66652204D01*
G37*
G36*
X193241505Y-66652204D02*
G01*
X193265773Y-66655804D01*
X193289572Y-66661765D01*
X193312671Y-66670030D01*
X193334850Y-66680520D01*
X193355893Y-66693132D01*
X193375599Y-66707747D01*
X193393777Y-66724223D01*
X193410253Y-66742401D01*
X193424868Y-66762107D01*
X193437480Y-66783150D01*
X193447970Y-66805329D01*
X193456235Y-66828428D01*
X193462196Y-66852227D01*
X193465796Y-66876495D01*
X193467000Y-66900999D01*
X193467000Y-67801001D01*
X193465796Y-67825505D01*
X193462196Y-67849773D01*
X193456235Y-67873572D01*
X193447970Y-67896671D01*
X193437480Y-67918850D01*
X193424868Y-67939893D01*
X193410253Y-67959599D01*
X193393777Y-67977777D01*
X193375599Y-67994253D01*
X193355893Y-68008868D01*
X193334850Y-68021480D01*
X193312671Y-68031970D01*
X193289572Y-68040235D01*
X193265773Y-68046196D01*
X193241505Y-68049796D01*
X193217001Y-68051000D01*
X192566999Y-68051000D01*
X192542495Y-68049796D01*
X192518227Y-68046196D01*
X192494428Y-68040235D01*
X192471329Y-68031970D01*
X192449150Y-68021480D01*
X192428107Y-68008868D01*
X192408401Y-67994253D01*
X192390223Y-67977777D01*
X192373747Y-67959599D01*
X192359132Y-67939893D01*
X192346520Y-67918850D01*
X192336030Y-67896671D01*
X192327765Y-67873572D01*
X192321804Y-67849773D01*
X192318204Y-67825505D01*
X192317000Y-67801001D01*
X192317000Y-66900999D01*
X192318204Y-66876495D01*
X192321804Y-66852227D01*
X192327765Y-66828428D01*
X192336030Y-66805329D01*
X192346520Y-66783150D01*
X192359132Y-66762107D01*
X192373747Y-66742401D01*
X192390223Y-66724223D01*
X192408401Y-66707747D01*
X192428107Y-66693132D01*
X192449150Y-66680520D01*
X192471329Y-66670030D01*
X192494428Y-66661765D01*
X192518227Y-66655804D01*
X192542495Y-66652204D01*
X192566999Y-66651000D01*
X193217001Y-66651000D01*
X193241505Y-66652204D01*
G37*
G36*
X191191505Y-63702204D02*
G01*
X191215773Y-63705804D01*
X191239572Y-63711765D01*
X191262671Y-63720030D01*
X191284850Y-63730520D01*
X191305893Y-63743132D01*
X191325599Y-63757747D01*
X191343777Y-63774223D01*
X191360253Y-63792401D01*
X191374868Y-63812107D01*
X191387480Y-63833150D01*
X191397970Y-63855329D01*
X191406235Y-63878428D01*
X191412196Y-63902227D01*
X191415796Y-63926495D01*
X191417000Y-63950999D01*
X191417000Y-64851001D01*
X191415796Y-64875505D01*
X191412196Y-64899773D01*
X191406235Y-64923572D01*
X191397970Y-64946671D01*
X191387480Y-64968850D01*
X191374868Y-64989893D01*
X191360253Y-65009599D01*
X191343777Y-65027777D01*
X191325599Y-65044253D01*
X191305893Y-65058868D01*
X191284850Y-65071480D01*
X191262671Y-65081970D01*
X191239572Y-65090235D01*
X191215773Y-65096196D01*
X191191505Y-65099796D01*
X191167001Y-65101000D01*
X190516999Y-65101000D01*
X190492495Y-65099796D01*
X190468227Y-65096196D01*
X190444428Y-65090235D01*
X190421329Y-65081970D01*
X190399150Y-65071480D01*
X190378107Y-65058868D01*
X190358401Y-65044253D01*
X190340223Y-65027777D01*
X190323747Y-65009599D01*
X190309132Y-64989893D01*
X190296520Y-64968850D01*
X190286030Y-64946671D01*
X190277765Y-64923572D01*
X190271804Y-64899773D01*
X190268204Y-64875505D01*
X190267000Y-64851001D01*
X190267000Y-63950999D01*
X190268204Y-63926495D01*
X190271804Y-63902227D01*
X190277765Y-63878428D01*
X190286030Y-63855329D01*
X190296520Y-63833150D01*
X190309132Y-63812107D01*
X190323747Y-63792401D01*
X190340223Y-63774223D01*
X190358401Y-63757747D01*
X190378107Y-63743132D01*
X190399150Y-63730520D01*
X190421329Y-63720030D01*
X190444428Y-63711765D01*
X190468227Y-63705804D01*
X190492495Y-63702204D01*
X190516999Y-63701000D01*
X191167001Y-63701000D01*
X191191505Y-63702204D01*
G37*
G36*
X193241505Y-63702204D02*
G01*
X193265773Y-63705804D01*
X193289572Y-63711765D01*
X193312671Y-63720030D01*
X193334850Y-63730520D01*
X193355893Y-63743132D01*
X193375599Y-63757747D01*
X193393777Y-63774223D01*
X193410253Y-63792401D01*
X193424868Y-63812107D01*
X193437480Y-63833150D01*
X193447970Y-63855329D01*
X193456235Y-63878428D01*
X193462196Y-63902227D01*
X193465796Y-63926495D01*
X193467000Y-63950999D01*
X193467000Y-64851001D01*
X193465796Y-64875505D01*
X193462196Y-64899773D01*
X193456235Y-64923572D01*
X193447970Y-64946671D01*
X193437480Y-64968850D01*
X193424868Y-64989893D01*
X193410253Y-65009599D01*
X193393777Y-65027777D01*
X193375599Y-65044253D01*
X193355893Y-65058868D01*
X193334850Y-65071480D01*
X193312671Y-65081970D01*
X193289572Y-65090235D01*
X193265773Y-65096196D01*
X193241505Y-65099796D01*
X193217001Y-65101000D01*
X192566999Y-65101000D01*
X192542495Y-65099796D01*
X192518227Y-65096196D01*
X192494428Y-65090235D01*
X192471329Y-65081970D01*
X192449150Y-65071480D01*
X192428107Y-65058868D01*
X192408401Y-65044253D01*
X192390223Y-65027777D01*
X192373747Y-65009599D01*
X192359132Y-64989893D01*
X192346520Y-64968850D01*
X192336030Y-64946671D01*
X192327765Y-64923572D01*
X192321804Y-64899773D01*
X192318204Y-64875505D01*
X192317000Y-64851001D01*
X192317000Y-63950999D01*
X192318204Y-63926495D01*
X192321804Y-63902227D01*
X192327765Y-63878428D01*
X192336030Y-63855329D01*
X192346520Y-63833150D01*
X192359132Y-63812107D01*
X192373747Y-63792401D01*
X192390223Y-63774223D01*
X192408401Y-63757747D01*
X192428107Y-63743132D01*
X192449150Y-63730520D01*
X192471329Y-63720030D01*
X192494428Y-63711765D01*
X192518227Y-63705804D01*
X192542495Y-63702204D01*
X192566999Y-63701000D01*
X193217001Y-63701000D01*
X193241505Y-63702204D01*
G37*
G36*
X197991505Y-66652204D02*
G01*
X198015773Y-66655804D01*
X198039572Y-66661765D01*
X198062671Y-66670030D01*
X198084850Y-66680520D01*
X198105893Y-66693132D01*
X198125599Y-66707747D01*
X198143777Y-66724223D01*
X198160253Y-66742401D01*
X198174868Y-66762107D01*
X198187480Y-66783150D01*
X198197970Y-66805329D01*
X198206235Y-66828428D01*
X198212196Y-66852227D01*
X198215796Y-66876495D01*
X198217000Y-66900999D01*
X198217000Y-67801001D01*
X198215796Y-67825505D01*
X198212196Y-67849773D01*
X198206235Y-67873572D01*
X198197970Y-67896671D01*
X198187480Y-67918850D01*
X198174868Y-67939893D01*
X198160253Y-67959599D01*
X198143777Y-67977777D01*
X198125599Y-67994253D01*
X198105893Y-68008868D01*
X198084850Y-68021480D01*
X198062671Y-68031970D01*
X198039572Y-68040235D01*
X198015773Y-68046196D01*
X197991505Y-68049796D01*
X197967001Y-68051000D01*
X197316999Y-68051000D01*
X197292495Y-68049796D01*
X197268227Y-68046196D01*
X197244428Y-68040235D01*
X197221329Y-68031970D01*
X197199150Y-68021480D01*
X197178107Y-68008868D01*
X197158401Y-67994253D01*
X197140223Y-67977777D01*
X197123747Y-67959599D01*
X197109132Y-67939893D01*
X197096520Y-67918850D01*
X197086030Y-67896671D01*
X197077765Y-67873572D01*
X197071804Y-67849773D01*
X197068204Y-67825505D01*
X197067000Y-67801001D01*
X197067000Y-66900999D01*
X197068204Y-66876495D01*
X197071804Y-66852227D01*
X197077765Y-66828428D01*
X197086030Y-66805329D01*
X197096520Y-66783150D01*
X197109132Y-66762107D01*
X197123747Y-66742401D01*
X197140223Y-66724223D01*
X197158401Y-66707747D01*
X197178107Y-66693132D01*
X197199150Y-66680520D01*
X197221329Y-66670030D01*
X197244428Y-66661765D01*
X197268227Y-66655804D01*
X197292495Y-66652204D01*
X197316999Y-66651000D01*
X197967001Y-66651000D01*
X197991505Y-66652204D01*
G37*
G36*
X195941505Y-66652204D02*
G01*
X195965773Y-66655804D01*
X195989572Y-66661765D01*
X196012671Y-66670030D01*
X196034850Y-66680520D01*
X196055893Y-66693132D01*
X196075599Y-66707747D01*
X196093777Y-66724223D01*
X196110253Y-66742401D01*
X196124868Y-66762107D01*
X196137480Y-66783150D01*
X196147970Y-66805329D01*
X196156235Y-66828428D01*
X196162196Y-66852227D01*
X196165796Y-66876495D01*
X196167000Y-66900999D01*
X196167000Y-67801001D01*
X196165796Y-67825505D01*
X196162196Y-67849773D01*
X196156235Y-67873572D01*
X196147970Y-67896671D01*
X196137480Y-67918850D01*
X196124868Y-67939893D01*
X196110253Y-67959599D01*
X196093777Y-67977777D01*
X196075599Y-67994253D01*
X196055893Y-68008868D01*
X196034850Y-68021480D01*
X196012671Y-68031970D01*
X195989572Y-68040235D01*
X195965773Y-68046196D01*
X195941505Y-68049796D01*
X195917001Y-68051000D01*
X195266999Y-68051000D01*
X195242495Y-68049796D01*
X195218227Y-68046196D01*
X195194428Y-68040235D01*
X195171329Y-68031970D01*
X195149150Y-68021480D01*
X195128107Y-68008868D01*
X195108401Y-67994253D01*
X195090223Y-67977777D01*
X195073747Y-67959599D01*
X195059132Y-67939893D01*
X195046520Y-67918850D01*
X195036030Y-67896671D01*
X195027765Y-67873572D01*
X195021804Y-67849773D01*
X195018204Y-67825505D01*
X195017000Y-67801001D01*
X195017000Y-66900999D01*
X195018204Y-66876495D01*
X195021804Y-66852227D01*
X195027765Y-66828428D01*
X195036030Y-66805329D01*
X195046520Y-66783150D01*
X195059132Y-66762107D01*
X195073747Y-66742401D01*
X195090223Y-66724223D01*
X195108401Y-66707747D01*
X195128107Y-66693132D01*
X195149150Y-66680520D01*
X195171329Y-66670030D01*
X195194428Y-66661765D01*
X195218227Y-66655804D01*
X195242495Y-66652204D01*
X195266999Y-66651000D01*
X195917001Y-66651000D01*
X195941505Y-66652204D01*
G37*
G36*
X197970505Y-63309204D02*
G01*
X197994773Y-63312804D01*
X198018572Y-63318765D01*
X198041671Y-63327030D01*
X198063850Y-63337520D01*
X198084893Y-63350132D01*
X198104599Y-63364747D01*
X198122777Y-63381223D01*
X198139253Y-63399401D01*
X198153868Y-63419107D01*
X198166480Y-63440150D01*
X198176970Y-63462329D01*
X198185235Y-63485428D01*
X198191196Y-63509227D01*
X198194796Y-63533495D01*
X198196000Y-63557999D01*
X198196000Y-64458001D01*
X198194796Y-64482505D01*
X198191196Y-64506773D01*
X198185235Y-64530572D01*
X198176970Y-64553671D01*
X198166480Y-64575850D01*
X198153868Y-64596893D01*
X198139253Y-64616599D01*
X198122777Y-64634777D01*
X198104599Y-64651253D01*
X198084893Y-64665868D01*
X198063850Y-64678480D01*
X198041671Y-64688970D01*
X198018572Y-64697235D01*
X197994773Y-64703196D01*
X197970505Y-64706796D01*
X197946001Y-64708000D01*
X197295999Y-64708000D01*
X197271495Y-64706796D01*
X197247227Y-64703196D01*
X197223428Y-64697235D01*
X197200329Y-64688970D01*
X197178150Y-64678480D01*
X197157107Y-64665868D01*
X197137401Y-64651253D01*
X197119223Y-64634777D01*
X197102747Y-64616599D01*
X197088132Y-64596893D01*
X197075520Y-64575850D01*
X197065030Y-64553671D01*
X197056765Y-64530572D01*
X197050804Y-64506773D01*
X197047204Y-64482505D01*
X197046000Y-64458001D01*
X197046000Y-63557999D01*
X197047204Y-63533495D01*
X197050804Y-63509227D01*
X197056765Y-63485428D01*
X197065030Y-63462329D01*
X197075520Y-63440150D01*
X197088132Y-63419107D01*
X197102747Y-63399401D01*
X197119223Y-63381223D01*
X197137401Y-63364747D01*
X197157107Y-63350132D01*
X197178150Y-63337520D01*
X197200329Y-63327030D01*
X197223428Y-63318765D01*
X197247227Y-63312804D01*
X197271495Y-63309204D01*
X197295999Y-63308000D01*
X197946001Y-63308000D01*
X197970505Y-63309204D01*
G37*
G36*
X195920505Y-63309204D02*
G01*
X195944773Y-63312804D01*
X195968572Y-63318765D01*
X195991671Y-63327030D01*
X196013850Y-63337520D01*
X196034893Y-63350132D01*
X196054599Y-63364747D01*
X196072777Y-63381223D01*
X196089253Y-63399401D01*
X196103868Y-63419107D01*
X196116480Y-63440150D01*
X196126970Y-63462329D01*
X196135235Y-63485428D01*
X196141196Y-63509227D01*
X196144796Y-63533495D01*
X196146000Y-63557999D01*
X196146000Y-64458001D01*
X196144796Y-64482505D01*
X196141196Y-64506773D01*
X196135235Y-64530572D01*
X196126970Y-64553671D01*
X196116480Y-64575850D01*
X196103868Y-64596893D01*
X196089253Y-64616599D01*
X196072777Y-64634777D01*
X196054599Y-64651253D01*
X196034893Y-64665868D01*
X196013850Y-64678480D01*
X195991671Y-64688970D01*
X195968572Y-64697235D01*
X195944773Y-64703196D01*
X195920505Y-64706796D01*
X195896001Y-64708000D01*
X195245999Y-64708000D01*
X195221495Y-64706796D01*
X195197227Y-64703196D01*
X195173428Y-64697235D01*
X195150329Y-64688970D01*
X195128150Y-64678480D01*
X195107107Y-64665868D01*
X195087401Y-64651253D01*
X195069223Y-64634777D01*
X195052747Y-64616599D01*
X195038132Y-64596893D01*
X195025520Y-64575850D01*
X195015030Y-64553671D01*
X195006765Y-64530572D01*
X195000804Y-64506773D01*
X194997204Y-64482505D01*
X194996000Y-64458001D01*
X194996000Y-63557999D01*
X194997204Y-63533495D01*
X195000804Y-63509227D01*
X195006765Y-63485428D01*
X195015030Y-63462329D01*
X195025520Y-63440150D01*
X195038132Y-63419107D01*
X195052747Y-63399401D01*
X195069223Y-63381223D01*
X195087401Y-63364747D01*
X195107107Y-63350132D01*
X195128150Y-63337520D01*
X195150329Y-63327030D01*
X195173428Y-63318765D01*
X195197227Y-63312804D01*
X195221495Y-63309204D01*
X195245999Y-63308000D01*
X195896001Y-63308000D01*
X195920505Y-63309204D01*
G37*
G36*
X189025505Y-70716204D02*
G01*
X189049773Y-70719804D01*
X189073572Y-70725765D01*
X189096671Y-70734030D01*
X189118850Y-70744520D01*
X189139893Y-70757132D01*
X189159599Y-70771747D01*
X189177777Y-70788223D01*
X189194253Y-70806401D01*
X189208868Y-70826107D01*
X189221480Y-70847150D01*
X189231970Y-70869329D01*
X189240235Y-70892428D01*
X189246196Y-70916227D01*
X189249796Y-70940495D01*
X189251000Y-70964999D01*
X189251000Y-71865001D01*
X189249796Y-71889505D01*
X189246196Y-71913773D01*
X189240235Y-71937572D01*
X189231970Y-71960671D01*
X189221480Y-71982850D01*
X189208868Y-72003893D01*
X189194253Y-72023599D01*
X189177777Y-72041777D01*
X189159599Y-72058253D01*
X189139893Y-72072868D01*
X189118850Y-72085480D01*
X189096671Y-72095970D01*
X189073572Y-72104235D01*
X189049773Y-72110196D01*
X189025505Y-72113796D01*
X189001001Y-72115000D01*
X188350999Y-72115000D01*
X188326495Y-72113796D01*
X188302227Y-72110196D01*
X188278428Y-72104235D01*
X188255329Y-72095970D01*
X188233150Y-72085480D01*
X188212107Y-72072868D01*
X188192401Y-72058253D01*
X188174223Y-72041777D01*
X188157747Y-72023599D01*
X188143132Y-72003893D01*
X188130520Y-71982850D01*
X188120030Y-71960671D01*
X188111765Y-71937572D01*
X188105804Y-71913773D01*
X188102204Y-71889505D01*
X188101000Y-71865001D01*
X188101000Y-70964999D01*
X188102204Y-70940495D01*
X188105804Y-70916227D01*
X188111765Y-70892428D01*
X188120030Y-70869329D01*
X188130520Y-70847150D01*
X188143132Y-70826107D01*
X188157747Y-70806401D01*
X188174223Y-70788223D01*
X188192401Y-70771747D01*
X188212107Y-70757132D01*
X188233150Y-70744520D01*
X188255329Y-70734030D01*
X188278428Y-70725765D01*
X188302227Y-70719804D01*
X188326495Y-70716204D01*
X188350999Y-70715000D01*
X189001001Y-70715000D01*
X189025505Y-70716204D01*
G37*
G36*
X186975505Y-70716204D02*
G01*
X186999773Y-70719804D01*
X187023572Y-70725765D01*
X187046671Y-70734030D01*
X187068850Y-70744520D01*
X187089893Y-70757132D01*
X187109599Y-70771747D01*
X187127777Y-70788223D01*
X187144253Y-70806401D01*
X187158868Y-70826107D01*
X187171480Y-70847150D01*
X187181970Y-70869329D01*
X187190235Y-70892428D01*
X187196196Y-70916227D01*
X187199796Y-70940495D01*
X187201000Y-70964999D01*
X187201000Y-71865001D01*
X187199796Y-71889505D01*
X187196196Y-71913773D01*
X187190235Y-71937572D01*
X187181970Y-71960671D01*
X187171480Y-71982850D01*
X187158868Y-72003893D01*
X187144253Y-72023599D01*
X187127777Y-72041777D01*
X187109599Y-72058253D01*
X187089893Y-72072868D01*
X187068850Y-72085480D01*
X187046671Y-72095970D01*
X187023572Y-72104235D01*
X186999773Y-72110196D01*
X186975505Y-72113796D01*
X186951001Y-72115000D01*
X186300999Y-72115000D01*
X186276495Y-72113796D01*
X186252227Y-72110196D01*
X186228428Y-72104235D01*
X186205329Y-72095970D01*
X186183150Y-72085480D01*
X186162107Y-72072868D01*
X186142401Y-72058253D01*
X186124223Y-72041777D01*
X186107747Y-72023599D01*
X186093132Y-72003893D01*
X186080520Y-71982850D01*
X186070030Y-71960671D01*
X186061765Y-71937572D01*
X186055804Y-71913773D01*
X186052204Y-71889505D01*
X186051000Y-71865001D01*
X186051000Y-70964999D01*
X186052204Y-70940495D01*
X186055804Y-70916227D01*
X186061765Y-70892428D01*
X186070030Y-70869329D01*
X186080520Y-70847150D01*
X186093132Y-70826107D01*
X186107747Y-70806401D01*
X186124223Y-70788223D01*
X186142401Y-70771747D01*
X186162107Y-70757132D01*
X186183150Y-70744520D01*
X186205329Y-70734030D01*
X186228428Y-70725765D01*
X186252227Y-70719804D01*
X186276495Y-70716204D01*
X186300999Y-70715000D01*
X186951001Y-70715000D01*
X186975505Y-70716204D01*
G37*
G36*
X186975505Y-67766204D02*
G01*
X186999773Y-67769804D01*
X187023572Y-67775765D01*
X187046671Y-67784030D01*
X187068850Y-67794520D01*
X187089893Y-67807132D01*
X187109599Y-67821747D01*
X187127777Y-67838223D01*
X187144253Y-67856401D01*
X187158868Y-67876107D01*
X187171480Y-67897150D01*
X187181970Y-67919329D01*
X187190235Y-67942428D01*
X187196196Y-67966227D01*
X187199796Y-67990495D01*
X187201000Y-68014999D01*
X187201000Y-68915001D01*
X187199796Y-68939505D01*
X187196196Y-68963773D01*
X187190235Y-68987572D01*
X187181970Y-69010671D01*
X187171480Y-69032850D01*
X187158868Y-69053893D01*
X187144253Y-69073599D01*
X187127777Y-69091777D01*
X187109599Y-69108253D01*
X187089893Y-69122868D01*
X187068850Y-69135480D01*
X187046671Y-69145970D01*
X187023572Y-69154235D01*
X186999773Y-69160196D01*
X186975505Y-69163796D01*
X186951001Y-69165000D01*
X186300999Y-69165000D01*
X186276495Y-69163796D01*
X186252227Y-69160196D01*
X186228428Y-69154235D01*
X186205329Y-69145970D01*
X186183150Y-69135480D01*
X186162107Y-69122868D01*
X186142401Y-69108253D01*
X186124223Y-69091777D01*
X186107747Y-69073599D01*
X186093132Y-69053893D01*
X186080520Y-69032850D01*
X186070030Y-69010671D01*
X186061765Y-68987572D01*
X186055804Y-68963773D01*
X186052204Y-68939505D01*
X186051000Y-68915001D01*
X186051000Y-68014999D01*
X186052204Y-67990495D01*
X186055804Y-67966227D01*
X186061765Y-67942428D01*
X186070030Y-67919329D01*
X186080520Y-67897150D01*
X186093132Y-67876107D01*
X186107747Y-67856401D01*
X186124223Y-67838223D01*
X186142401Y-67821747D01*
X186162107Y-67807132D01*
X186183150Y-67794520D01*
X186205329Y-67784030D01*
X186228428Y-67775765D01*
X186252227Y-67769804D01*
X186276495Y-67766204D01*
X186300999Y-67765000D01*
X186951001Y-67765000D01*
X186975505Y-67766204D01*
G37*
G36*
X189025505Y-67766204D02*
G01*
X189049773Y-67769804D01*
X189073572Y-67775765D01*
X189096671Y-67784030D01*
X189118850Y-67794520D01*
X189139893Y-67807132D01*
X189159599Y-67821747D01*
X189177777Y-67838223D01*
X189194253Y-67856401D01*
X189208868Y-67876107D01*
X189221480Y-67897150D01*
X189231970Y-67919329D01*
X189240235Y-67942428D01*
X189246196Y-67966227D01*
X189249796Y-67990495D01*
X189251000Y-68014999D01*
X189251000Y-68915001D01*
X189249796Y-68939505D01*
X189246196Y-68963773D01*
X189240235Y-68987572D01*
X189231970Y-69010671D01*
X189221480Y-69032850D01*
X189208868Y-69053893D01*
X189194253Y-69073599D01*
X189177777Y-69091777D01*
X189159599Y-69108253D01*
X189139893Y-69122868D01*
X189118850Y-69135480D01*
X189096671Y-69145970D01*
X189073572Y-69154235D01*
X189049773Y-69160196D01*
X189025505Y-69163796D01*
X189001001Y-69165000D01*
X188350999Y-69165000D01*
X188326495Y-69163796D01*
X188302227Y-69160196D01*
X188278428Y-69154235D01*
X188255329Y-69145970D01*
X188233150Y-69135480D01*
X188212107Y-69122868D01*
X188192401Y-69108253D01*
X188174223Y-69091777D01*
X188157747Y-69073599D01*
X188143132Y-69053893D01*
X188130520Y-69032850D01*
X188120030Y-69010671D01*
X188111765Y-68987572D01*
X188105804Y-68963773D01*
X188102204Y-68939505D01*
X188101000Y-68915001D01*
X188101000Y-68014999D01*
X188102204Y-67990495D01*
X188105804Y-67966227D01*
X188111765Y-67942428D01*
X188120030Y-67919329D01*
X188130520Y-67897150D01*
X188143132Y-67876107D01*
X188157747Y-67856401D01*
X188174223Y-67838223D01*
X188192401Y-67821747D01*
X188212107Y-67807132D01*
X188233150Y-67794520D01*
X188255329Y-67784030D01*
X188278428Y-67775765D01*
X188302227Y-67769804D01*
X188326495Y-67766204D01*
X188350999Y-67765000D01*
X189001001Y-67765000D01*
X189025505Y-67766204D01*
G37*
M02*
