M48
; DRILL file {KiCad (5.1.5)-3} date 26/02/2020 18:40:27
; FORMAT={-:-/ absolute / metric / decimal}
; #@! TF.CreationDate,2020-02-26T18:40:27+01:00
; #@! TF.GenerationSoftware,Kicad,Pcbnew,(5.1.5)-3
; #@! TF.FileFunction,Plated,1,2,PTH
FMAT,2
METRIC
T1C0.400
T2C0.762
T3C1.000
%
G90
G05
T1
X188.656Y-70.079
X191.63Y-66.122
X192.535Y-54.17
X195.348Y-66.035
X200.226Y-49.899
X202.416Y-48.558
X202.748Y-54.048
X205.891Y-68.176
X210.296Y-59.752
X212.662Y-54.995
X214.295Y-64.209
X217.225Y-55.386
T2
X182.88Y-46.99
X182.88Y-49.53
X182.88Y-52.07
X182.88Y-54.61
T3
X185.42Y-39.116
X185.42Y-41.656
X187.96Y-39.116
X187.96Y-41.656
X190.5Y-39.116
X190.5Y-41.656
X193.04Y-39.116
X193.04Y-41.656
X195.58Y-39.116
X195.58Y-41.656
X198.12Y-39.116
X198.12Y-41.656
X200.66Y-39.116
X200.66Y-41.656
X203.2Y-39.116
X203.2Y-41.656
X205.74Y-39.116
X205.74Y-41.656
X208.28Y-39.116
X208.28Y-41.656
X210.82Y-39.116
X210.82Y-41.656
X213.36Y-39.116
X213.36Y-41.656
X215.9Y-39.116
X215.9Y-41.656
X185.42Y-77.47
X185.42Y-80.01
X187.96Y-77.47
X187.96Y-80.01
X190.5Y-77.47
X190.5Y-80.01
X193.04Y-77.47
X193.04Y-80.01
X195.58Y-77.47
X195.58Y-80.01
X198.12Y-77.47
X198.12Y-80.01
X200.66Y-77.47
X200.66Y-80.01
X203.2Y-77.47
X203.2Y-80.01
X205.74Y-77.47
X205.74Y-80.01
X208.28Y-77.47
X208.28Y-80.01
X210.82Y-77.47
X210.82Y-80.01
X213.36Y-77.47
X213.36Y-80.01
X215.9Y-77.47
X215.9Y-80.01
T0
M30
