G04 #@! TF.GenerationSoftware,KiCad,Pcbnew,(5.1.5)-3*
G04 #@! TF.CreationDate,2020-02-26T18:40:07+01:00*
G04 #@! TF.ProjectId,minirpi2,6d696e69-7270-4693-922e-6b696361645f,rev?*
G04 #@! TF.SameCoordinates,Original*
G04 #@! TF.FileFunction,Copper,L2,Bot*
G04 #@! TF.FilePolarity,Positive*
%FSLAX46Y46*%
G04 Gerber Fmt 4.6, Leading zero omitted, Abs format (unit mm)*
G04 Created by KiCad (PCBNEW (5.1.5)-3) date 2020-02-26 18:40:07*
%MOMM*%
%LPD*%
G04 APERTURE LIST*
%ADD10O,1.700000X1.700000*%
%ADD11R,1.700000X1.700000*%
%ADD12C,0.100000*%
%ADD13R,1.200000X3.200000*%
%ADD14R,3.683000X1.270000*%
%ADD15R,4.191000X1.270000*%
%ADD16C,1.524000*%
%ADD17R,1.500000X3.000000*%
%ADD18R,2.000000X3.000000*%
%ADD19R,3.000000X2.000000*%
%ADD20C,0.800000*%
%ADD21C,0.250000*%
%ADD22C,0.700000*%
%ADD23C,0.254000*%
G04 APERTURE END LIST*
D10*
X185420000Y-80010000D03*
X185420000Y-77470000D03*
X187960000Y-80010000D03*
X187960000Y-77470000D03*
X190500000Y-80010000D03*
X190500000Y-77470000D03*
X193040000Y-80010000D03*
X193040000Y-77470000D03*
X195580000Y-80010000D03*
X195580000Y-77470000D03*
X198120000Y-80010000D03*
X198120000Y-77470000D03*
X200660000Y-80010000D03*
X200660000Y-77470000D03*
X203200000Y-80010000D03*
X203200000Y-77470000D03*
X205740000Y-80010000D03*
X205740000Y-77470000D03*
X208280000Y-80010000D03*
X208280000Y-77470000D03*
X210820000Y-80010000D03*
X210820000Y-77470000D03*
X213360000Y-80010000D03*
X213360000Y-77470000D03*
X215900000Y-80010000D03*
D11*
X215900000Y-77470000D03*
G04 #@! TA.AperFunction,SMDPad,CuDef*
D12*
G36*
X192135505Y-52035204D02*
G01*
X192159773Y-52038804D01*
X192183572Y-52044765D01*
X192206671Y-52053030D01*
X192228850Y-52063520D01*
X192249893Y-52076132D01*
X192269599Y-52090747D01*
X192287777Y-52107223D01*
X192304253Y-52125401D01*
X192318868Y-52145107D01*
X192331480Y-52166150D01*
X192341970Y-52188329D01*
X192350235Y-52211428D01*
X192356196Y-52235227D01*
X192359796Y-52259495D01*
X192361000Y-52283999D01*
X192361000Y-53184001D01*
X192359796Y-53208505D01*
X192356196Y-53232773D01*
X192350235Y-53256572D01*
X192341970Y-53279671D01*
X192331480Y-53301850D01*
X192318868Y-53322893D01*
X192304253Y-53342599D01*
X192287777Y-53360777D01*
X192269599Y-53377253D01*
X192249893Y-53391868D01*
X192228850Y-53404480D01*
X192206671Y-53414970D01*
X192183572Y-53423235D01*
X192159773Y-53429196D01*
X192135505Y-53432796D01*
X192111001Y-53434000D01*
X191460999Y-53434000D01*
X191436495Y-53432796D01*
X191412227Y-53429196D01*
X191388428Y-53423235D01*
X191365329Y-53414970D01*
X191343150Y-53404480D01*
X191322107Y-53391868D01*
X191302401Y-53377253D01*
X191284223Y-53360777D01*
X191267747Y-53342599D01*
X191253132Y-53322893D01*
X191240520Y-53301850D01*
X191230030Y-53279671D01*
X191221765Y-53256572D01*
X191215804Y-53232773D01*
X191212204Y-53208505D01*
X191211000Y-53184001D01*
X191211000Y-52283999D01*
X191212204Y-52259495D01*
X191215804Y-52235227D01*
X191221765Y-52211428D01*
X191230030Y-52188329D01*
X191240520Y-52166150D01*
X191253132Y-52145107D01*
X191267747Y-52125401D01*
X191284223Y-52107223D01*
X191302401Y-52090747D01*
X191322107Y-52076132D01*
X191343150Y-52063520D01*
X191365329Y-52053030D01*
X191388428Y-52044765D01*
X191412227Y-52038804D01*
X191436495Y-52035204D01*
X191460999Y-52034000D01*
X192111001Y-52034000D01*
X192135505Y-52035204D01*
G37*
G04 #@! TD.AperFunction*
G04 #@! TA.AperFunction,SMDPad,CuDef*
G36*
X194185505Y-52035204D02*
G01*
X194209773Y-52038804D01*
X194233572Y-52044765D01*
X194256671Y-52053030D01*
X194278850Y-52063520D01*
X194299893Y-52076132D01*
X194319599Y-52090747D01*
X194337777Y-52107223D01*
X194354253Y-52125401D01*
X194368868Y-52145107D01*
X194381480Y-52166150D01*
X194391970Y-52188329D01*
X194400235Y-52211428D01*
X194406196Y-52235227D01*
X194409796Y-52259495D01*
X194411000Y-52283999D01*
X194411000Y-53184001D01*
X194409796Y-53208505D01*
X194406196Y-53232773D01*
X194400235Y-53256572D01*
X194391970Y-53279671D01*
X194381480Y-53301850D01*
X194368868Y-53322893D01*
X194354253Y-53342599D01*
X194337777Y-53360777D01*
X194319599Y-53377253D01*
X194299893Y-53391868D01*
X194278850Y-53404480D01*
X194256671Y-53414970D01*
X194233572Y-53423235D01*
X194209773Y-53429196D01*
X194185505Y-53432796D01*
X194161001Y-53434000D01*
X193510999Y-53434000D01*
X193486495Y-53432796D01*
X193462227Y-53429196D01*
X193438428Y-53423235D01*
X193415329Y-53414970D01*
X193393150Y-53404480D01*
X193372107Y-53391868D01*
X193352401Y-53377253D01*
X193334223Y-53360777D01*
X193317747Y-53342599D01*
X193303132Y-53322893D01*
X193290520Y-53301850D01*
X193280030Y-53279671D01*
X193271765Y-53256572D01*
X193265804Y-53232773D01*
X193262204Y-53208505D01*
X193261000Y-53184001D01*
X193261000Y-52283999D01*
X193262204Y-52259495D01*
X193265804Y-52235227D01*
X193271765Y-52211428D01*
X193280030Y-52188329D01*
X193290520Y-52166150D01*
X193303132Y-52145107D01*
X193317747Y-52125401D01*
X193334223Y-52107223D01*
X193352401Y-52090747D01*
X193372107Y-52076132D01*
X193393150Y-52063520D01*
X193415329Y-52053030D01*
X193438428Y-52044765D01*
X193462227Y-52038804D01*
X193486495Y-52035204D01*
X193510999Y-52034000D01*
X194161001Y-52034000D01*
X194185505Y-52035204D01*
G37*
G04 #@! TD.AperFunction*
G04 #@! TA.AperFunction,SMDPad,CuDef*
G36*
X192135505Y-49085204D02*
G01*
X192159773Y-49088804D01*
X192183572Y-49094765D01*
X192206671Y-49103030D01*
X192228850Y-49113520D01*
X192249893Y-49126132D01*
X192269599Y-49140747D01*
X192287777Y-49157223D01*
X192304253Y-49175401D01*
X192318868Y-49195107D01*
X192331480Y-49216150D01*
X192341970Y-49238329D01*
X192350235Y-49261428D01*
X192356196Y-49285227D01*
X192359796Y-49309495D01*
X192361000Y-49333999D01*
X192361000Y-50234001D01*
X192359796Y-50258505D01*
X192356196Y-50282773D01*
X192350235Y-50306572D01*
X192341970Y-50329671D01*
X192331480Y-50351850D01*
X192318868Y-50372893D01*
X192304253Y-50392599D01*
X192287777Y-50410777D01*
X192269599Y-50427253D01*
X192249893Y-50441868D01*
X192228850Y-50454480D01*
X192206671Y-50464970D01*
X192183572Y-50473235D01*
X192159773Y-50479196D01*
X192135505Y-50482796D01*
X192111001Y-50484000D01*
X191460999Y-50484000D01*
X191436495Y-50482796D01*
X191412227Y-50479196D01*
X191388428Y-50473235D01*
X191365329Y-50464970D01*
X191343150Y-50454480D01*
X191322107Y-50441868D01*
X191302401Y-50427253D01*
X191284223Y-50410777D01*
X191267747Y-50392599D01*
X191253132Y-50372893D01*
X191240520Y-50351850D01*
X191230030Y-50329671D01*
X191221765Y-50306572D01*
X191215804Y-50282773D01*
X191212204Y-50258505D01*
X191211000Y-50234001D01*
X191211000Y-49333999D01*
X191212204Y-49309495D01*
X191215804Y-49285227D01*
X191221765Y-49261428D01*
X191230030Y-49238329D01*
X191240520Y-49216150D01*
X191253132Y-49195107D01*
X191267747Y-49175401D01*
X191284223Y-49157223D01*
X191302401Y-49140747D01*
X191322107Y-49126132D01*
X191343150Y-49113520D01*
X191365329Y-49103030D01*
X191388428Y-49094765D01*
X191412227Y-49088804D01*
X191436495Y-49085204D01*
X191460999Y-49084000D01*
X192111001Y-49084000D01*
X192135505Y-49085204D01*
G37*
G04 #@! TD.AperFunction*
G04 #@! TA.AperFunction,SMDPad,CuDef*
G36*
X194185505Y-49085204D02*
G01*
X194209773Y-49088804D01*
X194233572Y-49094765D01*
X194256671Y-49103030D01*
X194278850Y-49113520D01*
X194299893Y-49126132D01*
X194319599Y-49140747D01*
X194337777Y-49157223D01*
X194354253Y-49175401D01*
X194368868Y-49195107D01*
X194381480Y-49216150D01*
X194391970Y-49238329D01*
X194400235Y-49261428D01*
X194406196Y-49285227D01*
X194409796Y-49309495D01*
X194411000Y-49333999D01*
X194411000Y-50234001D01*
X194409796Y-50258505D01*
X194406196Y-50282773D01*
X194400235Y-50306572D01*
X194391970Y-50329671D01*
X194381480Y-50351850D01*
X194368868Y-50372893D01*
X194354253Y-50392599D01*
X194337777Y-50410777D01*
X194319599Y-50427253D01*
X194299893Y-50441868D01*
X194278850Y-50454480D01*
X194256671Y-50464970D01*
X194233572Y-50473235D01*
X194209773Y-50479196D01*
X194185505Y-50482796D01*
X194161001Y-50484000D01*
X193510999Y-50484000D01*
X193486495Y-50482796D01*
X193462227Y-50479196D01*
X193438428Y-50473235D01*
X193415329Y-50464970D01*
X193393150Y-50454480D01*
X193372107Y-50441868D01*
X193352401Y-50427253D01*
X193334223Y-50410777D01*
X193317747Y-50392599D01*
X193303132Y-50372893D01*
X193290520Y-50351850D01*
X193280030Y-50329671D01*
X193271765Y-50306572D01*
X193265804Y-50282773D01*
X193262204Y-50258505D01*
X193261000Y-50234001D01*
X193261000Y-49333999D01*
X193262204Y-49309495D01*
X193265804Y-49285227D01*
X193271765Y-49261428D01*
X193280030Y-49238329D01*
X193290520Y-49216150D01*
X193303132Y-49195107D01*
X193317747Y-49175401D01*
X193334223Y-49157223D01*
X193352401Y-49140747D01*
X193372107Y-49126132D01*
X193393150Y-49113520D01*
X193415329Y-49103030D01*
X193438428Y-49094765D01*
X193462227Y-49088804D01*
X193486495Y-49085204D01*
X193510999Y-49084000D01*
X194161001Y-49084000D01*
X194185505Y-49085204D01*
G37*
G04 #@! TD.AperFunction*
G04 #@! TA.AperFunction,SMDPad,CuDef*
G36*
X201635505Y-52035204D02*
G01*
X201659773Y-52038804D01*
X201683572Y-52044765D01*
X201706671Y-52053030D01*
X201728850Y-52063520D01*
X201749893Y-52076132D01*
X201769599Y-52090747D01*
X201787777Y-52107223D01*
X201804253Y-52125401D01*
X201818868Y-52145107D01*
X201831480Y-52166150D01*
X201841970Y-52188329D01*
X201850235Y-52211428D01*
X201856196Y-52235227D01*
X201859796Y-52259495D01*
X201861000Y-52283999D01*
X201861000Y-53184001D01*
X201859796Y-53208505D01*
X201856196Y-53232773D01*
X201850235Y-53256572D01*
X201841970Y-53279671D01*
X201831480Y-53301850D01*
X201818868Y-53322893D01*
X201804253Y-53342599D01*
X201787777Y-53360777D01*
X201769599Y-53377253D01*
X201749893Y-53391868D01*
X201728850Y-53404480D01*
X201706671Y-53414970D01*
X201683572Y-53423235D01*
X201659773Y-53429196D01*
X201635505Y-53432796D01*
X201611001Y-53434000D01*
X200960999Y-53434000D01*
X200936495Y-53432796D01*
X200912227Y-53429196D01*
X200888428Y-53423235D01*
X200865329Y-53414970D01*
X200843150Y-53404480D01*
X200822107Y-53391868D01*
X200802401Y-53377253D01*
X200784223Y-53360777D01*
X200767747Y-53342599D01*
X200753132Y-53322893D01*
X200740520Y-53301850D01*
X200730030Y-53279671D01*
X200721765Y-53256572D01*
X200715804Y-53232773D01*
X200712204Y-53208505D01*
X200711000Y-53184001D01*
X200711000Y-52283999D01*
X200712204Y-52259495D01*
X200715804Y-52235227D01*
X200721765Y-52211428D01*
X200730030Y-52188329D01*
X200740520Y-52166150D01*
X200753132Y-52145107D01*
X200767747Y-52125401D01*
X200784223Y-52107223D01*
X200802401Y-52090747D01*
X200822107Y-52076132D01*
X200843150Y-52063520D01*
X200865329Y-52053030D01*
X200888428Y-52044765D01*
X200912227Y-52038804D01*
X200936495Y-52035204D01*
X200960999Y-52034000D01*
X201611001Y-52034000D01*
X201635505Y-52035204D01*
G37*
G04 #@! TD.AperFunction*
G04 #@! TA.AperFunction,SMDPad,CuDef*
G36*
X203685505Y-52035204D02*
G01*
X203709773Y-52038804D01*
X203733572Y-52044765D01*
X203756671Y-52053030D01*
X203778850Y-52063520D01*
X203799893Y-52076132D01*
X203819599Y-52090747D01*
X203837777Y-52107223D01*
X203854253Y-52125401D01*
X203868868Y-52145107D01*
X203881480Y-52166150D01*
X203891970Y-52188329D01*
X203900235Y-52211428D01*
X203906196Y-52235227D01*
X203909796Y-52259495D01*
X203911000Y-52283999D01*
X203911000Y-53184001D01*
X203909796Y-53208505D01*
X203906196Y-53232773D01*
X203900235Y-53256572D01*
X203891970Y-53279671D01*
X203881480Y-53301850D01*
X203868868Y-53322893D01*
X203854253Y-53342599D01*
X203837777Y-53360777D01*
X203819599Y-53377253D01*
X203799893Y-53391868D01*
X203778850Y-53404480D01*
X203756671Y-53414970D01*
X203733572Y-53423235D01*
X203709773Y-53429196D01*
X203685505Y-53432796D01*
X203661001Y-53434000D01*
X203010999Y-53434000D01*
X202986495Y-53432796D01*
X202962227Y-53429196D01*
X202938428Y-53423235D01*
X202915329Y-53414970D01*
X202893150Y-53404480D01*
X202872107Y-53391868D01*
X202852401Y-53377253D01*
X202834223Y-53360777D01*
X202817747Y-53342599D01*
X202803132Y-53322893D01*
X202790520Y-53301850D01*
X202780030Y-53279671D01*
X202771765Y-53256572D01*
X202765804Y-53232773D01*
X202762204Y-53208505D01*
X202761000Y-53184001D01*
X202761000Y-52283999D01*
X202762204Y-52259495D01*
X202765804Y-52235227D01*
X202771765Y-52211428D01*
X202780030Y-52188329D01*
X202790520Y-52166150D01*
X202803132Y-52145107D01*
X202817747Y-52125401D01*
X202834223Y-52107223D01*
X202852401Y-52090747D01*
X202872107Y-52076132D01*
X202893150Y-52063520D01*
X202915329Y-52053030D01*
X202938428Y-52044765D01*
X202962227Y-52038804D01*
X202986495Y-52035204D01*
X203010999Y-52034000D01*
X203661001Y-52034000D01*
X203685505Y-52035204D01*
G37*
G04 #@! TD.AperFunction*
G04 #@! TA.AperFunction,SMDPad,CuDef*
G36*
X196885505Y-49085204D02*
G01*
X196909773Y-49088804D01*
X196933572Y-49094765D01*
X196956671Y-49103030D01*
X196978850Y-49113520D01*
X196999893Y-49126132D01*
X197019599Y-49140747D01*
X197037777Y-49157223D01*
X197054253Y-49175401D01*
X197068868Y-49195107D01*
X197081480Y-49216150D01*
X197091970Y-49238329D01*
X197100235Y-49261428D01*
X197106196Y-49285227D01*
X197109796Y-49309495D01*
X197111000Y-49333999D01*
X197111000Y-50234001D01*
X197109796Y-50258505D01*
X197106196Y-50282773D01*
X197100235Y-50306572D01*
X197091970Y-50329671D01*
X197081480Y-50351850D01*
X197068868Y-50372893D01*
X197054253Y-50392599D01*
X197037777Y-50410777D01*
X197019599Y-50427253D01*
X196999893Y-50441868D01*
X196978850Y-50454480D01*
X196956671Y-50464970D01*
X196933572Y-50473235D01*
X196909773Y-50479196D01*
X196885505Y-50482796D01*
X196861001Y-50484000D01*
X196210999Y-50484000D01*
X196186495Y-50482796D01*
X196162227Y-50479196D01*
X196138428Y-50473235D01*
X196115329Y-50464970D01*
X196093150Y-50454480D01*
X196072107Y-50441868D01*
X196052401Y-50427253D01*
X196034223Y-50410777D01*
X196017747Y-50392599D01*
X196003132Y-50372893D01*
X195990520Y-50351850D01*
X195980030Y-50329671D01*
X195971765Y-50306572D01*
X195965804Y-50282773D01*
X195962204Y-50258505D01*
X195961000Y-50234001D01*
X195961000Y-49333999D01*
X195962204Y-49309495D01*
X195965804Y-49285227D01*
X195971765Y-49261428D01*
X195980030Y-49238329D01*
X195990520Y-49216150D01*
X196003132Y-49195107D01*
X196017747Y-49175401D01*
X196034223Y-49157223D01*
X196052401Y-49140747D01*
X196072107Y-49126132D01*
X196093150Y-49113520D01*
X196115329Y-49103030D01*
X196138428Y-49094765D01*
X196162227Y-49088804D01*
X196186495Y-49085204D01*
X196210999Y-49084000D01*
X196861001Y-49084000D01*
X196885505Y-49085204D01*
G37*
G04 #@! TD.AperFunction*
G04 #@! TA.AperFunction,SMDPad,CuDef*
G36*
X198935505Y-49085204D02*
G01*
X198959773Y-49088804D01*
X198983572Y-49094765D01*
X199006671Y-49103030D01*
X199028850Y-49113520D01*
X199049893Y-49126132D01*
X199069599Y-49140747D01*
X199087777Y-49157223D01*
X199104253Y-49175401D01*
X199118868Y-49195107D01*
X199131480Y-49216150D01*
X199141970Y-49238329D01*
X199150235Y-49261428D01*
X199156196Y-49285227D01*
X199159796Y-49309495D01*
X199161000Y-49333999D01*
X199161000Y-50234001D01*
X199159796Y-50258505D01*
X199156196Y-50282773D01*
X199150235Y-50306572D01*
X199141970Y-50329671D01*
X199131480Y-50351850D01*
X199118868Y-50372893D01*
X199104253Y-50392599D01*
X199087777Y-50410777D01*
X199069599Y-50427253D01*
X199049893Y-50441868D01*
X199028850Y-50454480D01*
X199006671Y-50464970D01*
X198983572Y-50473235D01*
X198959773Y-50479196D01*
X198935505Y-50482796D01*
X198911001Y-50484000D01*
X198260999Y-50484000D01*
X198236495Y-50482796D01*
X198212227Y-50479196D01*
X198188428Y-50473235D01*
X198165329Y-50464970D01*
X198143150Y-50454480D01*
X198122107Y-50441868D01*
X198102401Y-50427253D01*
X198084223Y-50410777D01*
X198067747Y-50392599D01*
X198053132Y-50372893D01*
X198040520Y-50351850D01*
X198030030Y-50329671D01*
X198021765Y-50306572D01*
X198015804Y-50282773D01*
X198012204Y-50258505D01*
X198011000Y-50234001D01*
X198011000Y-49333999D01*
X198012204Y-49309495D01*
X198015804Y-49285227D01*
X198021765Y-49261428D01*
X198030030Y-49238329D01*
X198040520Y-49216150D01*
X198053132Y-49195107D01*
X198067747Y-49175401D01*
X198084223Y-49157223D01*
X198102401Y-49140747D01*
X198122107Y-49126132D01*
X198143150Y-49113520D01*
X198165329Y-49103030D01*
X198188428Y-49094765D01*
X198212227Y-49088804D01*
X198236495Y-49085204D01*
X198260999Y-49084000D01*
X198911001Y-49084000D01*
X198935505Y-49085204D01*
G37*
G04 #@! TD.AperFunction*
D13*
X202296000Y-73532000D03*
X204296000Y-73532000D03*
X206296000Y-73532000D03*
X208296000Y-73532000D03*
X210296000Y-73532000D03*
X212296000Y-73532000D03*
X214296000Y-73532000D03*
X216296000Y-73532000D03*
X216296000Y-57532000D03*
X214296000Y-57532000D03*
X212296000Y-57532000D03*
X210296000Y-57532000D03*
X208296000Y-57532000D03*
X206296000Y-57532000D03*
X204296000Y-57532000D03*
X202296000Y-57532000D03*
D14*
X220408500Y-71120000D03*
D15*
X220154500Y-73266300D03*
X220154500Y-68973700D03*
G04 #@! TA.AperFunction,SMDPad,CuDef*
D12*
G36*
X189704505Y-48711204D02*
G01*
X189728773Y-48714804D01*
X189752572Y-48720765D01*
X189775671Y-48729030D01*
X189797850Y-48739520D01*
X189818893Y-48752132D01*
X189838599Y-48766747D01*
X189856777Y-48783223D01*
X189873253Y-48801401D01*
X189887868Y-48821107D01*
X189900480Y-48842150D01*
X189910970Y-48864329D01*
X189919235Y-48887428D01*
X189925196Y-48911227D01*
X189928796Y-48935495D01*
X189930000Y-48959999D01*
X189930000Y-49610001D01*
X189928796Y-49634505D01*
X189925196Y-49658773D01*
X189919235Y-49682572D01*
X189910970Y-49705671D01*
X189900480Y-49727850D01*
X189887868Y-49748893D01*
X189873253Y-49768599D01*
X189856777Y-49786777D01*
X189838599Y-49803253D01*
X189818893Y-49817868D01*
X189797850Y-49830480D01*
X189775671Y-49840970D01*
X189752572Y-49849235D01*
X189728773Y-49855196D01*
X189704505Y-49858796D01*
X189680001Y-49860000D01*
X188779999Y-49860000D01*
X188755495Y-49858796D01*
X188731227Y-49855196D01*
X188707428Y-49849235D01*
X188684329Y-49840970D01*
X188662150Y-49830480D01*
X188641107Y-49817868D01*
X188621401Y-49803253D01*
X188603223Y-49786777D01*
X188586747Y-49768599D01*
X188572132Y-49748893D01*
X188559520Y-49727850D01*
X188549030Y-49705671D01*
X188540765Y-49682572D01*
X188534804Y-49658773D01*
X188531204Y-49634505D01*
X188530000Y-49610001D01*
X188530000Y-48959999D01*
X188531204Y-48935495D01*
X188534804Y-48911227D01*
X188540765Y-48887428D01*
X188549030Y-48864329D01*
X188559520Y-48842150D01*
X188572132Y-48821107D01*
X188586747Y-48801401D01*
X188603223Y-48783223D01*
X188621401Y-48766747D01*
X188641107Y-48752132D01*
X188662150Y-48739520D01*
X188684329Y-48729030D01*
X188707428Y-48720765D01*
X188731227Y-48714804D01*
X188755495Y-48711204D01*
X188779999Y-48710000D01*
X189680001Y-48710000D01*
X189704505Y-48711204D01*
G37*
G04 #@! TD.AperFunction*
G04 #@! TA.AperFunction,SMDPad,CuDef*
G36*
X189704505Y-46661204D02*
G01*
X189728773Y-46664804D01*
X189752572Y-46670765D01*
X189775671Y-46679030D01*
X189797850Y-46689520D01*
X189818893Y-46702132D01*
X189838599Y-46716747D01*
X189856777Y-46733223D01*
X189873253Y-46751401D01*
X189887868Y-46771107D01*
X189900480Y-46792150D01*
X189910970Y-46814329D01*
X189919235Y-46837428D01*
X189925196Y-46861227D01*
X189928796Y-46885495D01*
X189930000Y-46909999D01*
X189930000Y-47560001D01*
X189928796Y-47584505D01*
X189925196Y-47608773D01*
X189919235Y-47632572D01*
X189910970Y-47655671D01*
X189900480Y-47677850D01*
X189887868Y-47698893D01*
X189873253Y-47718599D01*
X189856777Y-47736777D01*
X189838599Y-47753253D01*
X189818893Y-47767868D01*
X189797850Y-47780480D01*
X189775671Y-47790970D01*
X189752572Y-47799235D01*
X189728773Y-47805196D01*
X189704505Y-47808796D01*
X189680001Y-47810000D01*
X188779999Y-47810000D01*
X188755495Y-47808796D01*
X188731227Y-47805196D01*
X188707428Y-47799235D01*
X188684329Y-47790970D01*
X188662150Y-47780480D01*
X188641107Y-47767868D01*
X188621401Y-47753253D01*
X188603223Y-47736777D01*
X188586747Y-47718599D01*
X188572132Y-47698893D01*
X188559520Y-47677850D01*
X188549030Y-47655671D01*
X188540765Y-47632572D01*
X188534804Y-47608773D01*
X188531204Y-47584505D01*
X188530000Y-47560001D01*
X188530000Y-46909999D01*
X188531204Y-46885495D01*
X188534804Y-46861227D01*
X188540765Y-46837428D01*
X188549030Y-46814329D01*
X188559520Y-46792150D01*
X188572132Y-46771107D01*
X188586747Y-46751401D01*
X188603223Y-46733223D01*
X188621401Y-46716747D01*
X188641107Y-46702132D01*
X188662150Y-46689520D01*
X188684329Y-46679030D01*
X188707428Y-46670765D01*
X188731227Y-46664804D01*
X188755495Y-46661204D01*
X188779999Y-46660000D01*
X189680001Y-46660000D01*
X189704505Y-46661204D01*
G37*
G04 #@! TD.AperFunction*
D11*
X185420000Y-41656000D03*
D10*
X185420000Y-39116000D03*
X187960000Y-41656000D03*
X187960000Y-39116000D03*
X190500000Y-41656000D03*
X190500000Y-39116000D03*
X193040000Y-41656000D03*
X193040000Y-39116000D03*
X195580000Y-41656000D03*
X195580000Y-39116000D03*
X198120000Y-41656000D03*
X198120000Y-39116000D03*
X200660000Y-41656000D03*
X200660000Y-39116000D03*
X203200000Y-41656000D03*
X203200000Y-39116000D03*
X205740000Y-41656000D03*
X205740000Y-39116000D03*
X208280000Y-41656000D03*
X208280000Y-39116000D03*
X210820000Y-41656000D03*
X210820000Y-39116000D03*
X213360000Y-41656000D03*
X213360000Y-39116000D03*
X215900000Y-41656000D03*
X215900000Y-39116000D03*
D16*
X182880000Y-54610000D03*
X182880000Y-52070000D03*
X182880000Y-49530000D03*
X182880000Y-46990000D03*
G04 #@! TA.AperFunction,SMDPad,CuDef*
D12*
G36*
X203812505Y-49085204D02*
G01*
X203836773Y-49088804D01*
X203860572Y-49094765D01*
X203883671Y-49103030D01*
X203905850Y-49113520D01*
X203926893Y-49126132D01*
X203946599Y-49140747D01*
X203964777Y-49157223D01*
X203981253Y-49175401D01*
X203995868Y-49195107D01*
X204008480Y-49216150D01*
X204018970Y-49238329D01*
X204027235Y-49261428D01*
X204033196Y-49285227D01*
X204036796Y-49309495D01*
X204038000Y-49333999D01*
X204038000Y-50234001D01*
X204036796Y-50258505D01*
X204033196Y-50282773D01*
X204027235Y-50306572D01*
X204018970Y-50329671D01*
X204008480Y-50351850D01*
X203995868Y-50372893D01*
X203981253Y-50392599D01*
X203964777Y-50410777D01*
X203946599Y-50427253D01*
X203926893Y-50441868D01*
X203905850Y-50454480D01*
X203883671Y-50464970D01*
X203860572Y-50473235D01*
X203836773Y-50479196D01*
X203812505Y-50482796D01*
X203788001Y-50484000D01*
X203137999Y-50484000D01*
X203113495Y-50482796D01*
X203089227Y-50479196D01*
X203065428Y-50473235D01*
X203042329Y-50464970D01*
X203020150Y-50454480D01*
X202999107Y-50441868D01*
X202979401Y-50427253D01*
X202961223Y-50410777D01*
X202944747Y-50392599D01*
X202930132Y-50372893D01*
X202917520Y-50351850D01*
X202907030Y-50329671D01*
X202898765Y-50306572D01*
X202892804Y-50282773D01*
X202889204Y-50258505D01*
X202888000Y-50234001D01*
X202888000Y-49333999D01*
X202889204Y-49309495D01*
X202892804Y-49285227D01*
X202898765Y-49261428D01*
X202907030Y-49238329D01*
X202917520Y-49216150D01*
X202930132Y-49195107D01*
X202944747Y-49175401D01*
X202961223Y-49157223D01*
X202979401Y-49140747D01*
X202999107Y-49126132D01*
X203020150Y-49113520D01*
X203042329Y-49103030D01*
X203065428Y-49094765D01*
X203089227Y-49088804D01*
X203113495Y-49085204D01*
X203137999Y-49084000D01*
X203788001Y-49084000D01*
X203812505Y-49085204D01*
G37*
G04 #@! TD.AperFunction*
G04 #@! TA.AperFunction,SMDPad,CuDef*
G36*
X201762505Y-49085204D02*
G01*
X201786773Y-49088804D01*
X201810572Y-49094765D01*
X201833671Y-49103030D01*
X201855850Y-49113520D01*
X201876893Y-49126132D01*
X201896599Y-49140747D01*
X201914777Y-49157223D01*
X201931253Y-49175401D01*
X201945868Y-49195107D01*
X201958480Y-49216150D01*
X201968970Y-49238329D01*
X201977235Y-49261428D01*
X201983196Y-49285227D01*
X201986796Y-49309495D01*
X201988000Y-49333999D01*
X201988000Y-50234001D01*
X201986796Y-50258505D01*
X201983196Y-50282773D01*
X201977235Y-50306572D01*
X201968970Y-50329671D01*
X201958480Y-50351850D01*
X201945868Y-50372893D01*
X201931253Y-50392599D01*
X201914777Y-50410777D01*
X201896599Y-50427253D01*
X201876893Y-50441868D01*
X201855850Y-50454480D01*
X201833671Y-50464970D01*
X201810572Y-50473235D01*
X201786773Y-50479196D01*
X201762505Y-50482796D01*
X201738001Y-50484000D01*
X201087999Y-50484000D01*
X201063495Y-50482796D01*
X201039227Y-50479196D01*
X201015428Y-50473235D01*
X200992329Y-50464970D01*
X200970150Y-50454480D01*
X200949107Y-50441868D01*
X200929401Y-50427253D01*
X200911223Y-50410777D01*
X200894747Y-50392599D01*
X200880132Y-50372893D01*
X200867520Y-50351850D01*
X200857030Y-50329671D01*
X200848765Y-50306572D01*
X200842804Y-50282773D01*
X200839204Y-50258505D01*
X200838000Y-50234001D01*
X200838000Y-49333999D01*
X200839204Y-49309495D01*
X200842804Y-49285227D01*
X200848765Y-49261428D01*
X200857030Y-49238329D01*
X200867520Y-49216150D01*
X200880132Y-49195107D01*
X200894747Y-49175401D01*
X200911223Y-49157223D01*
X200929401Y-49140747D01*
X200949107Y-49126132D01*
X200970150Y-49113520D01*
X200992329Y-49103030D01*
X201015428Y-49094765D01*
X201039227Y-49088804D01*
X201063495Y-49085204D01*
X201087999Y-49084000D01*
X201738001Y-49084000D01*
X201762505Y-49085204D01*
G37*
G04 #@! TD.AperFunction*
D17*
X221004000Y-46384000D03*
D18*
X218104000Y-46384000D03*
X220004000Y-53184000D03*
X210604000Y-53284000D03*
D19*
X206504000Y-48884000D03*
G04 #@! TA.AperFunction,SMDPad,CuDef*
D12*
G36*
X191191505Y-66652204D02*
G01*
X191215773Y-66655804D01*
X191239572Y-66661765D01*
X191262671Y-66670030D01*
X191284850Y-66680520D01*
X191305893Y-66693132D01*
X191325599Y-66707747D01*
X191343777Y-66724223D01*
X191360253Y-66742401D01*
X191374868Y-66762107D01*
X191387480Y-66783150D01*
X191397970Y-66805329D01*
X191406235Y-66828428D01*
X191412196Y-66852227D01*
X191415796Y-66876495D01*
X191417000Y-66900999D01*
X191417000Y-67801001D01*
X191415796Y-67825505D01*
X191412196Y-67849773D01*
X191406235Y-67873572D01*
X191397970Y-67896671D01*
X191387480Y-67918850D01*
X191374868Y-67939893D01*
X191360253Y-67959599D01*
X191343777Y-67977777D01*
X191325599Y-67994253D01*
X191305893Y-68008868D01*
X191284850Y-68021480D01*
X191262671Y-68031970D01*
X191239572Y-68040235D01*
X191215773Y-68046196D01*
X191191505Y-68049796D01*
X191167001Y-68051000D01*
X190516999Y-68051000D01*
X190492495Y-68049796D01*
X190468227Y-68046196D01*
X190444428Y-68040235D01*
X190421329Y-68031970D01*
X190399150Y-68021480D01*
X190378107Y-68008868D01*
X190358401Y-67994253D01*
X190340223Y-67977777D01*
X190323747Y-67959599D01*
X190309132Y-67939893D01*
X190296520Y-67918850D01*
X190286030Y-67896671D01*
X190277765Y-67873572D01*
X190271804Y-67849773D01*
X190268204Y-67825505D01*
X190267000Y-67801001D01*
X190267000Y-66900999D01*
X190268204Y-66876495D01*
X190271804Y-66852227D01*
X190277765Y-66828428D01*
X190286030Y-66805329D01*
X190296520Y-66783150D01*
X190309132Y-66762107D01*
X190323747Y-66742401D01*
X190340223Y-66724223D01*
X190358401Y-66707747D01*
X190378107Y-66693132D01*
X190399150Y-66680520D01*
X190421329Y-66670030D01*
X190444428Y-66661765D01*
X190468227Y-66655804D01*
X190492495Y-66652204D01*
X190516999Y-66651000D01*
X191167001Y-66651000D01*
X191191505Y-66652204D01*
G37*
G04 #@! TD.AperFunction*
G04 #@! TA.AperFunction,SMDPad,CuDef*
G36*
X193241505Y-66652204D02*
G01*
X193265773Y-66655804D01*
X193289572Y-66661765D01*
X193312671Y-66670030D01*
X193334850Y-66680520D01*
X193355893Y-66693132D01*
X193375599Y-66707747D01*
X193393777Y-66724223D01*
X193410253Y-66742401D01*
X193424868Y-66762107D01*
X193437480Y-66783150D01*
X193447970Y-66805329D01*
X193456235Y-66828428D01*
X193462196Y-66852227D01*
X193465796Y-66876495D01*
X193467000Y-66900999D01*
X193467000Y-67801001D01*
X193465796Y-67825505D01*
X193462196Y-67849773D01*
X193456235Y-67873572D01*
X193447970Y-67896671D01*
X193437480Y-67918850D01*
X193424868Y-67939893D01*
X193410253Y-67959599D01*
X193393777Y-67977777D01*
X193375599Y-67994253D01*
X193355893Y-68008868D01*
X193334850Y-68021480D01*
X193312671Y-68031970D01*
X193289572Y-68040235D01*
X193265773Y-68046196D01*
X193241505Y-68049796D01*
X193217001Y-68051000D01*
X192566999Y-68051000D01*
X192542495Y-68049796D01*
X192518227Y-68046196D01*
X192494428Y-68040235D01*
X192471329Y-68031970D01*
X192449150Y-68021480D01*
X192428107Y-68008868D01*
X192408401Y-67994253D01*
X192390223Y-67977777D01*
X192373747Y-67959599D01*
X192359132Y-67939893D01*
X192346520Y-67918850D01*
X192336030Y-67896671D01*
X192327765Y-67873572D01*
X192321804Y-67849773D01*
X192318204Y-67825505D01*
X192317000Y-67801001D01*
X192317000Y-66900999D01*
X192318204Y-66876495D01*
X192321804Y-66852227D01*
X192327765Y-66828428D01*
X192336030Y-66805329D01*
X192346520Y-66783150D01*
X192359132Y-66762107D01*
X192373747Y-66742401D01*
X192390223Y-66724223D01*
X192408401Y-66707747D01*
X192428107Y-66693132D01*
X192449150Y-66680520D01*
X192471329Y-66670030D01*
X192494428Y-66661765D01*
X192518227Y-66655804D01*
X192542495Y-66652204D01*
X192566999Y-66651000D01*
X193217001Y-66651000D01*
X193241505Y-66652204D01*
G37*
G04 #@! TD.AperFunction*
G04 #@! TA.AperFunction,SMDPad,CuDef*
G36*
X191191505Y-63702204D02*
G01*
X191215773Y-63705804D01*
X191239572Y-63711765D01*
X191262671Y-63720030D01*
X191284850Y-63730520D01*
X191305893Y-63743132D01*
X191325599Y-63757747D01*
X191343777Y-63774223D01*
X191360253Y-63792401D01*
X191374868Y-63812107D01*
X191387480Y-63833150D01*
X191397970Y-63855329D01*
X191406235Y-63878428D01*
X191412196Y-63902227D01*
X191415796Y-63926495D01*
X191417000Y-63950999D01*
X191417000Y-64851001D01*
X191415796Y-64875505D01*
X191412196Y-64899773D01*
X191406235Y-64923572D01*
X191397970Y-64946671D01*
X191387480Y-64968850D01*
X191374868Y-64989893D01*
X191360253Y-65009599D01*
X191343777Y-65027777D01*
X191325599Y-65044253D01*
X191305893Y-65058868D01*
X191284850Y-65071480D01*
X191262671Y-65081970D01*
X191239572Y-65090235D01*
X191215773Y-65096196D01*
X191191505Y-65099796D01*
X191167001Y-65101000D01*
X190516999Y-65101000D01*
X190492495Y-65099796D01*
X190468227Y-65096196D01*
X190444428Y-65090235D01*
X190421329Y-65081970D01*
X190399150Y-65071480D01*
X190378107Y-65058868D01*
X190358401Y-65044253D01*
X190340223Y-65027777D01*
X190323747Y-65009599D01*
X190309132Y-64989893D01*
X190296520Y-64968850D01*
X190286030Y-64946671D01*
X190277765Y-64923572D01*
X190271804Y-64899773D01*
X190268204Y-64875505D01*
X190267000Y-64851001D01*
X190267000Y-63950999D01*
X190268204Y-63926495D01*
X190271804Y-63902227D01*
X190277765Y-63878428D01*
X190286030Y-63855329D01*
X190296520Y-63833150D01*
X190309132Y-63812107D01*
X190323747Y-63792401D01*
X190340223Y-63774223D01*
X190358401Y-63757747D01*
X190378107Y-63743132D01*
X190399150Y-63730520D01*
X190421329Y-63720030D01*
X190444428Y-63711765D01*
X190468227Y-63705804D01*
X190492495Y-63702204D01*
X190516999Y-63701000D01*
X191167001Y-63701000D01*
X191191505Y-63702204D01*
G37*
G04 #@! TD.AperFunction*
G04 #@! TA.AperFunction,SMDPad,CuDef*
G36*
X193241505Y-63702204D02*
G01*
X193265773Y-63705804D01*
X193289572Y-63711765D01*
X193312671Y-63720030D01*
X193334850Y-63730520D01*
X193355893Y-63743132D01*
X193375599Y-63757747D01*
X193393777Y-63774223D01*
X193410253Y-63792401D01*
X193424868Y-63812107D01*
X193437480Y-63833150D01*
X193447970Y-63855329D01*
X193456235Y-63878428D01*
X193462196Y-63902227D01*
X193465796Y-63926495D01*
X193467000Y-63950999D01*
X193467000Y-64851001D01*
X193465796Y-64875505D01*
X193462196Y-64899773D01*
X193456235Y-64923572D01*
X193447970Y-64946671D01*
X193437480Y-64968850D01*
X193424868Y-64989893D01*
X193410253Y-65009599D01*
X193393777Y-65027777D01*
X193375599Y-65044253D01*
X193355893Y-65058868D01*
X193334850Y-65071480D01*
X193312671Y-65081970D01*
X193289572Y-65090235D01*
X193265773Y-65096196D01*
X193241505Y-65099796D01*
X193217001Y-65101000D01*
X192566999Y-65101000D01*
X192542495Y-65099796D01*
X192518227Y-65096196D01*
X192494428Y-65090235D01*
X192471329Y-65081970D01*
X192449150Y-65071480D01*
X192428107Y-65058868D01*
X192408401Y-65044253D01*
X192390223Y-65027777D01*
X192373747Y-65009599D01*
X192359132Y-64989893D01*
X192346520Y-64968850D01*
X192336030Y-64946671D01*
X192327765Y-64923572D01*
X192321804Y-64899773D01*
X192318204Y-64875505D01*
X192317000Y-64851001D01*
X192317000Y-63950999D01*
X192318204Y-63926495D01*
X192321804Y-63902227D01*
X192327765Y-63878428D01*
X192336030Y-63855329D01*
X192346520Y-63833150D01*
X192359132Y-63812107D01*
X192373747Y-63792401D01*
X192390223Y-63774223D01*
X192408401Y-63757747D01*
X192428107Y-63743132D01*
X192449150Y-63730520D01*
X192471329Y-63720030D01*
X192494428Y-63711765D01*
X192518227Y-63705804D01*
X192542495Y-63702204D01*
X192566999Y-63701000D01*
X193217001Y-63701000D01*
X193241505Y-63702204D01*
G37*
G04 #@! TD.AperFunction*
G04 #@! TA.AperFunction,SMDPad,CuDef*
G36*
X197991505Y-66652204D02*
G01*
X198015773Y-66655804D01*
X198039572Y-66661765D01*
X198062671Y-66670030D01*
X198084850Y-66680520D01*
X198105893Y-66693132D01*
X198125599Y-66707747D01*
X198143777Y-66724223D01*
X198160253Y-66742401D01*
X198174868Y-66762107D01*
X198187480Y-66783150D01*
X198197970Y-66805329D01*
X198206235Y-66828428D01*
X198212196Y-66852227D01*
X198215796Y-66876495D01*
X198217000Y-66900999D01*
X198217000Y-67801001D01*
X198215796Y-67825505D01*
X198212196Y-67849773D01*
X198206235Y-67873572D01*
X198197970Y-67896671D01*
X198187480Y-67918850D01*
X198174868Y-67939893D01*
X198160253Y-67959599D01*
X198143777Y-67977777D01*
X198125599Y-67994253D01*
X198105893Y-68008868D01*
X198084850Y-68021480D01*
X198062671Y-68031970D01*
X198039572Y-68040235D01*
X198015773Y-68046196D01*
X197991505Y-68049796D01*
X197967001Y-68051000D01*
X197316999Y-68051000D01*
X197292495Y-68049796D01*
X197268227Y-68046196D01*
X197244428Y-68040235D01*
X197221329Y-68031970D01*
X197199150Y-68021480D01*
X197178107Y-68008868D01*
X197158401Y-67994253D01*
X197140223Y-67977777D01*
X197123747Y-67959599D01*
X197109132Y-67939893D01*
X197096520Y-67918850D01*
X197086030Y-67896671D01*
X197077765Y-67873572D01*
X197071804Y-67849773D01*
X197068204Y-67825505D01*
X197067000Y-67801001D01*
X197067000Y-66900999D01*
X197068204Y-66876495D01*
X197071804Y-66852227D01*
X197077765Y-66828428D01*
X197086030Y-66805329D01*
X197096520Y-66783150D01*
X197109132Y-66762107D01*
X197123747Y-66742401D01*
X197140223Y-66724223D01*
X197158401Y-66707747D01*
X197178107Y-66693132D01*
X197199150Y-66680520D01*
X197221329Y-66670030D01*
X197244428Y-66661765D01*
X197268227Y-66655804D01*
X197292495Y-66652204D01*
X197316999Y-66651000D01*
X197967001Y-66651000D01*
X197991505Y-66652204D01*
G37*
G04 #@! TD.AperFunction*
G04 #@! TA.AperFunction,SMDPad,CuDef*
G36*
X195941505Y-66652204D02*
G01*
X195965773Y-66655804D01*
X195989572Y-66661765D01*
X196012671Y-66670030D01*
X196034850Y-66680520D01*
X196055893Y-66693132D01*
X196075599Y-66707747D01*
X196093777Y-66724223D01*
X196110253Y-66742401D01*
X196124868Y-66762107D01*
X196137480Y-66783150D01*
X196147970Y-66805329D01*
X196156235Y-66828428D01*
X196162196Y-66852227D01*
X196165796Y-66876495D01*
X196167000Y-66900999D01*
X196167000Y-67801001D01*
X196165796Y-67825505D01*
X196162196Y-67849773D01*
X196156235Y-67873572D01*
X196147970Y-67896671D01*
X196137480Y-67918850D01*
X196124868Y-67939893D01*
X196110253Y-67959599D01*
X196093777Y-67977777D01*
X196075599Y-67994253D01*
X196055893Y-68008868D01*
X196034850Y-68021480D01*
X196012671Y-68031970D01*
X195989572Y-68040235D01*
X195965773Y-68046196D01*
X195941505Y-68049796D01*
X195917001Y-68051000D01*
X195266999Y-68051000D01*
X195242495Y-68049796D01*
X195218227Y-68046196D01*
X195194428Y-68040235D01*
X195171329Y-68031970D01*
X195149150Y-68021480D01*
X195128107Y-68008868D01*
X195108401Y-67994253D01*
X195090223Y-67977777D01*
X195073747Y-67959599D01*
X195059132Y-67939893D01*
X195046520Y-67918850D01*
X195036030Y-67896671D01*
X195027765Y-67873572D01*
X195021804Y-67849773D01*
X195018204Y-67825505D01*
X195017000Y-67801001D01*
X195017000Y-66900999D01*
X195018204Y-66876495D01*
X195021804Y-66852227D01*
X195027765Y-66828428D01*
X195036030Y-66805329D01*
X195046520Y-66783150D01*
X195059132Y-66762107D01*
X195073747Y-66742401D01*
X195090223Y-66724223D01*
X195108401Y-66707747D01*
X195128107Y-66693132D01*
X195149150Y-66680520D01*
X195171329Y-66670030D01*
X195194428Y-66661765D01*
X195218227Y-66655804D01*
X195242495Y-66652204D01*
X195266999Y-66651000D01*
X195917001Y-66651000D01*
X195941505Y-66652204D01*
G37*
G04 #@! TD.AperFunction*
G04 #@! TA.AperFunction,SMDPad,CuDef*
G36*
X197970505Y-63309204D02*
G01*
X197994773Y-63312804D01*
X198018572Y-63318765D01*
X198041671Y-63327030D01*
X198063850Y-63337520D01*
X198084893Y-63350132D01*
X198104599Y-63364747D01*
X198122777Y-63381223D01*
X198139253Y-63399401D01*
X198153868Y-63419107D01*
X198166480Y-63440150D01*
X198176970Y-63462329D01*
X198185235Y-63485428D01*
X198191196Y-63509227D01*
X198194796Y-63533495D01*
X198196000Y-63557999D01*
X198196000Y-64458001D01*
X198194796Y-64482505D01*
X198191196Y-64506773D01*
X198185235Y-64530572D01*
X198176970Y-64553671D01*
X198166480Y-64575850D01*
X198153868Y-64596893D01*
X198139253Y-64616599D01*
X198122777Y-64634777D01*
X198104599Y-64651253D01*
X198084893Y-64665868D01*
X198063850Y-64678480D01*
X198041671Y-64688970D01*
X198018572Y-64697235D01*
X197994773Y-64703196D01*
X197970505Y-64706796D01*
X197946001Y-64708000D01*
X197295999Y-64708000D01*
X197271495Y-64706796D01*
X197247227Y-64703196D01*
X197223428Y-64697235D01*
X197200329Y-64688970D01*
X197178150Y-64678480D01*
X197157107Y-64665868D01*
X197137401Y-64651253D01*
X197119223Y-64634777D01*
X197102747Y-64616599D01*
X197088132Y-64596893D01*
X197075520Y-64575850D01*
X197065030Y-64553671D01*
X197056765Y-64530572D01*
X197050804Y-64506773D01*
X197047204Y-64482505D01*
X197046000Y-64458001D01*
X197046000Y-63557999D01*
X197047204Y-63533495D01*
X197050804Y-63509227D01*
X197056765Y-63485428D01*
X197065030Y-63462329D01*
X197075520Y-63440150D01*
X197088132Y-63419107D01*
X197102747Y-63399401D01*
X197119223Y-63381223D01*
X197137401Y-63364747D01*
X197157107Y-63350132D01*
X197178150Y-63337520D01*
X197200329Y-63327030D01*
X197223428Y-63318765D01*
X197247227Y-63312804D01*
X197271495Y-63309204D01*
X197295999Y-63308000D01*
X197946001Y-63308000D01*
X197970505Y-63309204D01*
G37*
G04 #@! TD.AperFunction*
G04 #@! TA.AperFunction,SMDPad,CuDef*
G36*
X195920505Y-63309204D02*
G01*
X195944773Y-63312804D01*
X195968572Y-63318765D01*
X195991671Y-63327030D01*
X196013850Y-63337520D01*
X196034893Y-63350132D01*
X196054599Y-63364747D01*
X196072777Y-63381223D01*
X196089253Y-63399401D01*
X196103868Y-63419107D01*
X196116480Y-63440150D01*
X196126970Y-63462329D01*
X196135235Y-63485428D01*
X196141196Y-63509227D01*
X196144796Y-63533495D01*
X196146000Y-63557999D01*
X196146000Y-64458001D01*
X196144796Y-64482505D01*
X196141196Y-64506773D01*
X196135235Y-64530572D01*
X196126970Y-64553671D01*
X196116480Y-64575850D01*
X196103868Y-64596893D01*
X196089253Y-64616599D01*
X196072777Y-64634777D01*
X196054599Y-64651253D01*
X196034893Y-64665868D01*
X196013850Y-64678480D01*
X195991671Y-64688970D01*
X195968572Y-64697235D01*
X195944773Y-64703196D01*
X195920505Y-64706796D01*
X195896001Y-64708000D01*
X195245999Y-64708000D01*
X195221495Y-64706796D01*
X195197227Y-64703196D01*
X195173428Y-64697235D01*
X195150329Y-64688970D01*
X195128150Y-64678480D01*
X195107107Y-64665868D01*
X195087401Y-64651253D01*
X195069223Y-64634777D01*
X195052747Y-64616599D01*
X195038132Y-64596893D01*
X195025520Y-64575850D01*
X195015030Y-64553671D01*
X195006765Y-64530572D01*
X195000804Y-64506773D01*
X194997204Y-64482505D01*
X194996000Y-64458001D01*
X194996000Y-63557999D01*
X194997204Y-63533495D01*
X195000804Y-63509227D01*
X195006765Y-63485428D01*
X195015030Y-63462329D01*
X195025520Y-63440150D01*
X195038132Y-63419107D01*
X195052747Y-63399401D01*
X195069223Y-63381223D01*
X195087401Y-63364747D01*
X195107107Y-63350132D01*
X195128150Y-63337520D01*
X195150329Y-63327030D01*
X195173428Y-63318765D01*
X195197227Y-63312804D01*
X195221495Y-63309204D01*
X195245999Y-63308000D01*
X195896001Y-63308000D01*
X195920505Y-63309204D01*
G37*
G04 #@! TD.AperFunction*
G04 #@! TA.AperFunction,SMDPad,CuDef*
G36*
X189025505Y-70716204D02*
G01*
X189049773Y-70719804D01*
X189073572Y-70725765D01*
X189096671Y-70734030D01*
X189118850Y-70744520D01*
X189139893Y-70757132D01*
X189159599Y-70771747D01*
X189177777Y-70788223D01*
X189194253Y-70806401D01*
X189208868Y-70826107D01*
X189221480Y-70847150D01*
X189231970Y-70869329D01*
X189240235Y-70892428D01*
X189246196Y-70916227D01*
X189249796Y-70940495D01*
X189251000Y-70964999D01*
X189251000Y-71865001D01*
X189249796Y-71889505D01*
X189246196Y-71913773D01*
X189240235Y-71937572D01*
X189231970Y-71960671D01*
X189221480Y-71982850D01*
X189208868Y-72003893D01*
X189194253Y-72023599D01*
X189177777Y-72041777D01*
X189159599Y-72058253D01*
X189139893Y-72072868D01*
X189118850Y-72085480D01*
X189096671Y-72095970D01*
X189073572Y-72104235D01*
X189049773Y-72110196D01*
X189025505Y-72113796D01*
X189001001Y-72115000D01*
X188350999Y-72115000D01*
X188326495Y-72113796D01*
X188302227Y-72110196D01*
X188278428Y-72104235D01*
X188255329Y-72095970D01*
X188233150Y-72085480D01*
X188212107Y-72072868D01*
X188192401Y-72058253D01*
X188174223Y-72041777D01*
X188157747Y-72023599D01*
X188143132Y-72003893D01*
X188130520Y-71982850D01*
X188120030Y-71960671D01*
X188111765Y-71937572D01*
X188105804Y-71913773D01*
X188102204Y-71889505D01*
X188101000Y-71865001D01*
X188101000Y-70964999D01*
X188102204Y-70940495D01*
X188105804Y-70916227D01*
X188111765Y-70892428D01*
X188120030Y-70869329D01*
X188130520Y-70847150D01*
X188143132Y-70826107D01*
X188157747Y-70806401D01*
X188174223Y-70788223D01*
X188192401Y-70771747D01*
X188212107Y-70757132D01*
X188233150Y-70744520D01*
X188255329Y-70734030D01*
X188278428Y-70725765D01*
X188302227Y-70719804D01*
X188326495Y-70716204D01*
X188350999Y-70715000D01*
X189001001Y-70715000D01*
X189025505Y-70716204D01*
G37*
G04 #@! TD.AperFunction*
G04 #@! TA.AperFunction,SMDPad,CuDef*
G36*
X186975505Y-70716204D02*
G01*
X186999773Y-70719804D01*
X187023572Y-70725765D01*
X187046671Y-70734030D01*
X187068850Y-70744520D01*
X187089893Y-70757132D01*
X187109599Y-70771747D01*
X187127777Y-70788223D01*
X187144253Y-70806401D01*
X187158868Y-70826107D01*
X187171480Y-70847150D01*
X187181970Y-70869329D01*
X187190235Y-70892428D01*
X187196196Y-70916227D01*
X187199796Y-70940495D01*
X187201000Y-70964999D01*
X187201000Y-71865001D01*
X187199796Y-71889505D01*
X187196196Y-71913773D01*
X187190235Y-71937572D01*
X187181970Y-71960671D01*
X187171480Y-71982850D01*
X187158868Y-72003893D01*
X187144253Y-72023599D01*
X187127777Y-72041777D01*
X187109599Y-72058253D01*
X187089893Y-72072868D01*
X187068850Y-72085480D01*
X187046671Y-72095970D01*
X187023572Y-72104235D01*
X186999773Y-72110196D01*
X186975505Y-72113796D01*
X186951001Y-72115000D01*
X186300999Y-72115000D01*
X186276495Y-72113796D01*
X186252227Y-72110196D01*
X186228428Y-72104235D01*
X186205329Y-72095970D01*
X186183150Y-72085480D01*
X186162107Y-72072868D01*
X186142401Y-72058253D01*
X186124223Y-72041777D01*
X186107747Y-72023599D01*
X186093132Y-72003893D01*
X186080520Y-71982850D01*
X186070030Y-71960671D01*
X186061765Y-71937572D01*
X186055804Y-71913773D01*
X186052204Y-71889505D01*
X186051000Y-71865001D01*
X186051000Y-70964999D01*
X186052204Y-70940495D01*
X186055804Y-70916227D01*
X186061765Y-70892428D01*
X186070030Y-70869329D01*
X186080520Y-70847150D01*
X186093132Y-70826107D01*
X186107747Y-70806401D01*
X186124223Y-70788223D01*
X186142401Y-70771747D01*
X186162107Y-70757132D01*
X186183150Y-70744520D01*
X186205329Y-70734030D01*
X186228428Y-70725765D01*
X186252227Y-70719804D01*
X186276495Y-70716204D01*
X186300999Y-70715000D01*
X186951001Y-70715000D01*
X186975505Y-70716204D01*
G37*
G04 #@! TD.AperFunction*
G04 #@! TA.AperFunction,SMDPad,CuDef*
G36*
X186975505Y-67766204D02*
G01*
X186999773Y-67769804D01*
X187023572Y-67775765D01*
X187046671Y-67784030D01*
X187068850Y-67794520D01*
X187089893Y-67807132D01*
X187109599Y-67821747D01*
X187127777Y-67838223D01*
X187144253Y-67856401D01*
X187158868Y-67876107D01*
X187171480Y-67897150D01*
X187181970Y-67919329D01*
X187190235Y-67942428D01*
X187196196Y-67966227D01*
X187199796Y-67990495D01*
X187201000Y-68014999D01*
X187201000Y-68915001D01*
X187199796Y-68939505D01*
X187196196Y-68963773D01*
X187190235Y-68987572D01*
X187181970Y-69010671D01*
X187171480Y-69032850D01*
X187158868Y-69053893D01*
X187144253Y-69073599D01*
X187127777Y-69091777D01*
X187109599Y-69108253D01*
X187089893Y-69122868D01*
X187068850Y-69135480D01*
X187046671Y-69145970D01*
X187023572Y-69154235D01*
X186999773Y-69160196D01*
X186975505Y-69163796D01*
X186951001Y-69165000D01*
X186300999Y-69165000D01*
X186276495Y-69163796D01*
X186252227Y-69160196D01*
X186228428Y-69154235D01*
X186205329Y-69145970D01*
X186183150Y-69135480D01*
X186162107Y-69122868D01*
X186142401Y-69108253D01*
X186124223Y-69091777D01*
X186107747Y-69073599D01*
X186093132Y-69053893D01*
X186080520Y-69032850D01*
X186070030Y-69010671D01*
X186061765Y-68987572D01*
X186055804Y-68963773D01*
X186052204Y-68939505D01*
X186051000Y-68915001D01*
X186051000Y-68014999D01*
X186052204Y-67990495D01*
X186055804Y-67966227D01*
X186061765Y-67942428D01*
X186070030Y-67919329D01*
X186080520Y-67897150D01*
X186093132Y-67876107D01*
X186107747Y-67856401D01*
X186124223Y-67838223D01*
X186142401Y-67821747D01*
X186162107Y-67807132D01*
X186183150Y-67794520D01*
X186205329Y-67784030D01*
X186228428Y-67775765D01*
X186252227Y-67769804D01*
X186276495Y-67766204D01*
X186300999Y-67765000D01*
X186951001Y-67765000D01*
X186975505Y-67766204D01*
G37*
G04 #@! TD.AperFunction*
G04 #@! TA.AperFunction,SMDPad,CuDef*
G36*
X189025505Y-67766204D02*
G01*
X189049773Y-67769804D01*
X189073572Y-67775765D01*
X189096671Y-67784030D01*
X189118850Y-67794520D01*
X189139893Y-67807132D01*
X189159599Y-67821747D01*
X189177777Y-67838223D01*
X189194253Y-67856401D01*
X189208868Y-67876107D01*
X189221480Y-67897150D01*
X189231970Y-67919329D01*
X189240235Y-67942428D01*
X189246196Y-67966227D01*
X189249796Y-67990495D01*
X189251000Y-68014999D01*
X189251000Y-68915001D01*
X189249796Y-68939505D01*
X189246196Y-68963773D01*
X189240235Y-68987572D01*
X189231970Y-69010671D01*
X189221480Y-69032850D01*
X189208868Y-69053893D01*
X189194253Y-69073599D01*
X189177777Y-69091777D01*
X189159599Y-69108253D01*
X189139893Y-69122868D01*
X189118850Y-69135480D01*
X189096671Y-69145970D01*
X189073572Y-69154235D01*
X189049773Y-69160196D01*
X189025505Y-69163796D01*
X189001001Y-69165000D01*
X188350999Y-69165000D01*
X188326495Y-69163796D01*
X188302227Y-69160196D01*
X188278428Y-69154235D01*
X188255329Y-69145970D01*
X188233150Y-69135480D01*
X188212107Y-69122868D01*
X188192401Y-69108253D01*
X188174223Y-69091777D01*
X188157747Y-69073599D01*
X188143132Y-69053893D01*
X188130520Y-69032850D01*
X188120030Y-69010671D01*
X188111765Y-68987572D01*
X188105804Y-68963773D01*
X188102204Y-68939505D01*
X188101000Y-68915001D01*
X188101000Y-68014999D01*
X188102204Y-67990495D01*
X188105804Y-67966227D01*
X188111765Y-67942428D01*
X188120030Y-67919329D01*
X188130520Y-67897150D01*
X188143132Y-67876107D01*
X188157747Y-67856401D01*
X188174223Y-67838223D01*
X188192401Y-67821747D01*
X188212107Y-67807132D01*
X188233150Y-67794520D01*
X188255329Y-67784030D01*
X188278428Y-67775765D01*
X188302227Y-67769804D01*
X188326495Y-67766204D01*
X188350999Y-67765000D01*
X189001001Y-67765000D01*
X189025505Y-67766204D01*
G37*
G04 #@! TD.AperFunction*
D20*
X214295100Y-64209000D03*
X202416200Y-48558000D03*
X192534700Y-54169900D03*
X202747800Y-54048400D03*
X217225300Y-55385500D03*
X212662000Y-54995300D03*
X210296000Y-59752400D03*
X200226400Y-49898600D03*
X205890800Y-68176100D03*
X195347600Y-66035200D03*
X191630500Y-66122400D03*
X188655900Y-70079300D03*
D21*
X203463000Y-49784000D02*
X203463000Y-45108300D01*
X203463000Y-45108300D02*
X205740000Y-42831300D01*
X208296000Y-73532000D02*
X208296000Y-70208100D01*
X208296000Y-70208100D02*
X214295100Y-64209000D01*
X200386000Y-53634000D02*
X201286000Y-52734000D01*
X197621000Y-64008000D02*
X197621000Y-56399000D01*
X197621000Y-56399000D02*
X200386000Y-53634000D01*
X200386000Y-53634000D02*
X196536000Y-49784000D01*
X197621000Y-67351000D02*
X197621000Y-64008000D01*
X205740000Y-41656000D02*
X205740000Y-42831300D01*
X201286000Y-52734000D02*
X203463000Y-50557000D01*
X203463000Y-50557000D02*
X203463000Y-49784000D01*
X197621000Y-67351000D02*
X196576900Y-68395100D01*
X196576900Y-68395100D02*
X189628900Y-68395100D01*
X197621000Y-67351000D02*
X197642000Y-67351000D01*
X189628900Y-68395100D02*
X189628900Y-70462100D01*
X189628900Y-70462100D02*
X188676000Y-71415000D01*
X186445000Y-52070000D02*
X186445000Y-64542600D01*
X186445000Y-64542600D02*
X189628900Y-67726500D01*
X189628900Y-67726500D02*
X189628900Y-68395100D01*
X186445000Y-52070000D02*
X189230000Y-49285000D01*
X182880000Y-52070000D02*
X186445000Y-52070000D01*
X198586000Y-49784000D02*
X199812000Y-48558000D01*
X199812000Y-48558000D02*
X202416200Y-48558000D01*
X198586000Y-49784000D02*
X197559700Y-48757700D01*
X197559700Y-48757700D02*
X195973700Y-48757700D01*
X195973700Y-48757700D02*
X195494300Y-49237100D01*
X195494300Y-49237100D02*
X195494300Y-52743400D01*
X195494300Y-52743400D02*
X193319800Y-54917900D01*
X193319800Y-54917900D02*
X192240000Y-54917900D01*
X192240000Y-54917900D02*
X190842000Y-53519900D01*
X190842000Y-53519900D02*
X190842000Y-52045400D01*
X190842000Y-52045400D02*
X191786000Y-51101400D01*
X191786000Y-51101400D02*
X191786000Y-49784000D01*
X191786000Y-52734000D02*
X191786000Y-53421200D01*
X191786000Y-53421200D02*
X192534700Y-54169900D01*
X203336000Y-52734000D02*
X203336000Y-53460200D01*
X203336000Y-53460200D02*
X202747800Y-54048400D01*
X205740000Y-39116000D02*
X204564700Y-39116000D01*
X204564700Y-39116000D02*
X204564700Y-39483400D01*
X204564700Y-39483400D02*
X203756800Y-40291300D01*
X203756800Y-40291300D02*
X202863700Y-40291300D01*
X202863700Y-40291300D02*
X201899900Y-41255100D01*
X201899900Y-41255100D02*
X201899900Y-42141800D01*
X201899900Y-42141800D02*
X194257700Y-49784000D01*
X194257700Y-49784000D02*
X193836000Y-49784000D01*
X203200000Y-39116000D02*
X202024700Y-39116000D01*
X202024700Y-39116000D02*
X202024700Y-39483400D01*
X202024700Y-39483400D02*
X201216800Y-40291300D01*
X201216800Y-40291300D02*
X200323700Y-40291300D01*
X200323700Y-40291300D02*
X199390000Y-41225000D01*
X199390000Y-41225000D02*
X199390000Y-42110100D01*
X199390000Y-42110100D02*
X192893000Y-48607100D01*
X192893000Y-48607100D02*
X192893000Y-51791000D01*
X192893000Y-51791000D02*
X193836000Y-52734000D01*
X202296000Y-57532000D02*
X202296000Y-55606700D01*
X208280000Y-39116000D02*
X208280000Y-40291300D01*
X208280000Y-40291300D02*
X207912600Y-40291300D01*
X207912600Y-40291300D02*
X207104700Y-41099200D01*
X207104700Y-41099200D02*
X207104700Y-45083500D01*
X207104700Y-45083500D02*
X204678700Y-47509500D01*
X204678700Y-47509500D02*
X204678700Y-53224000D01*
X204678700Y-53224000D02*
X202296000Y-55606700D01*
X220004000Y-53184000D02*
X220004000Y-55009300D01*
X220004000Y-55009300D02*
X217601500Y-55009300D01*
X217601500Y-55009300D02*
X217225300Y-55385500D01*
X216296000Y-55606700D02*
X217004100Y-55606700D01*
X217004100Y-55606700D02*
X217225300Y-55385500D01*
X216296000Y-57532000D02*
X216296000Y-55606700D01*
X214296000Y-73532000D02*
X214296000Y-75457300D01*
X214296000Y-75457300D02*
X215062600Y-75457300D01*
X215062600Y-75457300D02*
X215900000Y-76294700D01*
X215900000Y-77470000D02*
X215900000Y-76294700D01*
X220154500Y-73266300D02*
X217733700Y-73266300D01*
X217733700Y-73266300D02*
X217733700Y-74754800D01*
X217733700Y-74754800D02*
X216193800Y-76294700D01*
X216193800Y-76294700D02*
X215900000Y-76294700D01*
X208296000Y-55606700D02*
X208296000Y-52599700D01*
X208296000Y-52599700D02*
X209959800Y-50935900D01*
X209959800Y-50935900D02*
X209959800Y-46231500D01*
X209959800Y-46231500D02*
X213360000Y-42831300D01*
X208296000Y-57532000D02*
X208296000Y-55606700D01*
X213360000Y-41656000D02*
X213360000Y-42831300D01*
X208280000Y-41656000D02*
X209455300Y-41656000D01*
X209455300Y-41656000D02*
X209455300Y-41288700D01*
X209455300Y-41288700D02*
X210271300Y-40472700D01*
X210271300Y-40472700D02*
X211364900Y-40472700D01*
X211364900Y-40472700D02*
X212030900Y-41138700D01*
X212030900Y-41138700D02*
X212030900Y-42257300D01*
X212030900Y-42257300D02*
X208875700Y-45412500D01*
X208875700Y-45412500D02*
X208875700Y-51064800D01*
X208875700Y-51064800D02*
X206296000Y-53644500D01*
X206296000Y-53644500D02*
X206296000Y-57532000D01*
X210820000Y-41656000D02*
X210820000Y-42831300D01*
X210820000Y-42831300D02*
X208329300Y-45322000D01*
X208329300Y-45322000D02*
X208329300Y-50210300D01*
X208329300Y-50210300D02*
X204296000Y-54243600D01*
X204296000Y-54243600D02*
X204296000Y-57532000D01*
X212296000Y-55606700D02*
X212296000Y-55361300D01*
X212296000Y-55361300D02*
X212662000Y-54995300D01*
X212296000Y-57532000D02*
X212296000Y-55606700D01*
X210296000Y-59457300D02*
X210296000Y-59752400D01*
X210296000Y-57532000D02*
X210296000Y-59457300D01*
D22*
X216296000Y-73532000D02*
X216296000Y-72248000D01*
X217424000Y-71120000D02*
X220408500Y-71120000D01*
X216296000Y-72248000D02*
X217424000Y-71120000D01*
D21*
X190500000Y-41656000D02*
X190500000Y-42831300D01*
X182880000Y-49530000D02*
X189578700Y-42831300D01*
X189578700Y-42831300D02*
X190500000Y-42831300D01*
X200226400Y-49898600D02*
X201298400Y-49898600D01*
X201298400Y-49898600D02*
X201413000Y-49784000D01*
X182880000Y-46990000D02*
X183801300Y-46990000D01*
X183801300Y-46990000D02*
X187960000Y-42831300D01*
X189230000Y-47235000D02*
X185818700Y-50646300D01*
X185818700Y-50646300D02*
X182443600Y-50646300D01*
X182443600Y-50646300D02*
X181777600Y-49980300D01*
X181777600Y-49980300D02*
X181777600Y-48092400D01*
X181777600Y-48092400D02*
X182880000Y-46990000D01*
X187960000Y-41656000D02*
X187960000Y-42831300D01*
X199295300Y-39116000D02*
X199295300Y-38748700D01*
X199295300Y-38748700D02*
X200116600Y-37927400D01*
X200116600Y-37927400D02*
X213867100Y-37927400D01*
X213867100Y-37927400D02*
X214535400Y-38595700D01*
X214535400Y-38595700D02*
X214535400Y-39415700D01*
X214535400Y-39415700D02*
X215505700Y-40386000D01*
X215505700Y-40386000D02*
X216320800Y-40386000D01*
X216320800Y-40386000D02*
X217080500Y-41145700D01*
X217080500Y-41145700D02*
X217080500Y-43704800D01*
X217080500Y-43704800D02*
X215145500Y-45639800D01*
X215145500Y-45639800D02*
X215145500Y-50575200D01*
X215145500Y-50575200D02*
X213480700Y-52240000D01*
X213480700Y-52240000D02*
X213480700Y-55202500D01*
X213480700Y-55202500D02*
X213370600Y-55312600D01*
X213370600Y-55312600D02*
X213370600Y-59670600D01*
X213370600Y-59670600D02*
X204296000Y-68745200D01*
X204296000Y-68745200D02*
X204296000Y-73532000D01*
X198120000Y-39116000D02*
X199295300Y-39116000D01*
X205890800Y-68176100D02*
X206296000Y-68581300D01*
X206296000Y-68581300D02*
X206296000Y-73532000D01*
X211995300Y-39116000D02*
X211995300Y-39483400D01*
X211995300Y-39483400D02*
X212803200Y-40291300D01*
X212803200Y-40291300D02*
X213660100Y-40291300D01*
X213660100Y-40291300D02*
X214553200Y-41184400D01*
X214553200Y-41184400D02*
X214553200Y-50219500D01*
X214553200Y-50219500D02*
X211933400Y-52839300D01*
X211933400Y-52839300D02*
X211933400Y-55021500D01*
X211933400Y-55021500D02*
X211370600Y-55584300D01*
X211370600Y-55584300D02*
X211370600Y-61033700D01*
X211370600Y-61033700D02*
X202296000Y-70108300D01*
X202296000Y-70108300D02*
X202296000Y-73532000D01*
X210820000Y-39116000D02*
X211995300Y-39116000D01*
X186595300Y-77470000D02*
X186595300Y-77102600D01*
X186595300Y-77102600D02*
X187403200Y-76294700D01*
X187403200Y-76294700D02*
X206193600Y-76294700D01*
X206193600Y-76294700D02*
X207221400Y-75266900D01*
X207221400Y-75266900D02*
X207221400Y-67313800D01*
X207221400Y-67313800D02*
X215370600Y-59164600D01*
X215370600Y-59164600D02*
X215370600Y-51212300D01*
X215370600Y-51212300D02*
X218104000Y-48478900D01*
X218104000Y-48478900D02*
X218104000Y-48209300D01*
X185420000Y-77470000D02*
X186595300Y-77470000D01*
X218104000Y-46384000D02*
X218104000Y-48209300D01*
X185420000Y-80010000D02*
X185420000Y-78834700D01*
X210604000Y-53284000D02*
X210604000Y-55109300D01*
X210604000Y-55109300D02*
X210024100Y-55109300D01*
X210024100Y-55109300D02*
X209278700Y-55854700D01*
X209278700Y-55854700D02*
X209278700Y-59213400D01*
X209278700Y-59213400D02*
X193334400Y-75157700D01*
X193334400Y-75157700D02*
X186068600Y-75157700D01*
X186068600Y-75157700D02*
X184244700Y-76981600D01*
X184244700Y-76981600D02*
X184244700Y-78026800D01*
X184244700Y-78026800D02*
X185052600Y-78834700D01*
X185052600Y-78834700D02*
X185420000Y-78834700D01*
X193040000Y-40291300D02*
X192672600Y-40291300D01*
X192672600Y-40291300D02*
X191864700Y-41099200D01*
X191864700Y-41099200D02*
X191864700Y-43102800D01*
X191864700Y-43102800D02*
X190391600Y-44575900D01*
X190391600Y-44575900D02*
X190391600Y-50472400D01*
X190391600Y-50472400D02*
X189909000Y-50955000D01*
X189909000Y-50955000D02*
X189909000Y-66418000D01*
X189909000Y-66418000D02*
X190842000Y-67351000D01*
X193040000Y-39116000D02*
X193040000Y-40291300D01*
X195347600Y-67351000D02*
X195592000Y-67351000D01*
X192892000Y-67351000D02*
X195347600Y-67351000D01*
X195347600Y-66035200D02*
X195347600Y-67351000D01*
X195580000Y-40291300D02*
X195212600Y-40291300D01*
X195212600Y-40291300D02*
X194404700Y-41099200D01*
X194404700Y-41099200D02*
X194404700Y-42003600D01*
X194404700Y-42003600D02*
X190842000Y-45566300D01*
X190842000Y-45566300D02*
X190842000Y-51295800D01*
X190842000Y-51295800D02*
X190391700Y-51746100D01*
X190391700Y-51746100D02*
X190391700Y-63950700D01*
X190391700Y-63950700D02*
X190842000Y-64401000D01*
X195580000Y-39116000D02*
X195580000Y-40291300D01*
X192892000Y-64401000D02*
X192892000Y-64860900D01*
X192892000Y-64860900D02*
X191630500Y-66122400D01*
X192892000Y-64401000D02*
X195178000Y-64401000D01*
X195178000Y-64401000D02*
X195571000Y-64008000D01*
X188655900Y-70079300D02*
X187961700Y-70079300D01*
X187961700Y-70079300D02*
X186626000Y-71415000D01*
X188676000Y-68465000D02*
X188676000Y-70059200D01*
X188676000Y-70059200D02*
X188655900Y-70079300D01*
X193040000Y-41656000D02*
X194220900Y-40475100D01*
X194220900Y-40475100D02*
X194220900Y-38564000D01*
X194220900Y-38564000D02*
X193584300Y-37927400D01*
X193584300Y-37927400D02*
X192480400Y-37927400D01*
X192480400Y-37927400D02*
X191736600Y-38671200D01*
X191736600Y-38671200D02*
X191736600Y-39582600D01*
X191736600Y-39582600D02*
X190933200Y-40386000D01*
X190933200Y-40386000D02*
X187565200Y-40386000D01*
X187565200Y-40386000D02*
X186595400Y-41355800D01*
X186595400Y-41355800D02*
X186595400Y-42646900D01*
X186595400Y-42646900D02*
X185141400Y-44100900D01*
X185141400Y-44100900D02*
X184210100Y-44100900D01*
X184210100Y-44100900D02*
X181300500Y-47010500D01*
X181300500Y-47010500D02*
X181300500Y-63139500D01*
X181300500Y-63139500D02*
X186626000Y-68465000D01*
D23*
G36*
X221844001Y-79215711D02*
G01*
X221814766Y-79513876D01*
X221737551Y-79769624D01*
X221612131Y-80005504D01*
X221443289Y-80212525D01*
X221237446Y-80382813D01*
X221002444Y-80509879D01*
X220747240Y-80588877D01*
X220451118Y-80620000D01*
X217254682Y-80620000D01*
X217327932Y-80443158D01*
X217385000Y-80156260D01*
X217385000Y-79863740D01*
X217327932Y-79576842D01*
X217215990Y-79306589D01*
X217053475Y-79063368D01*
X216921620Y-78931513D01*
X216994180Y-78909502D01*
X217104494Y-78850537D01*
X217201185Y-78771185D01*
X217280537Y-78674494D01*
X217339502Y-78564180D01*
X217375812Y-78444482D01*
X217388072Y-78320000D01*
X217385000Y-77755750D01*
X217226250Y-77597000D01*
X216027000Y-77597000D01*
X216027000Y-77617000D01*
X215773000Y-77617000D01*
X215773000Y-77597000D01*
X215753000Y-77597000D01*
X215753000Y-77343000D01*
X215773000Y-77343000D01*
X215773000Y-77323000D01*
X216027000Y-77323000D01*
X216027000Y-77343000D01*
X217226250Y-77343000D01*
X217385000Y-77184250D01*
X217388072Y-76620000D01*
X217375812Y-76495518D01*
X217339502Y-76375820D01*
X217313407Y-76327000D01*
X218440000Y-76327000D01*
X218464776Y-76324560D01*
X218488601Y-76317333D01*
X218510557Y-76305597D01*
X218529803Y-76289803D01*
X218545597Y-76270557D01*
X218557333Y-76248601D01*
X218564560Y-76224776D01*
X218567000Y-76200000D01*
X218567000Y-75057000D01*
X221844001Y-75057000D01*
X221844001Y-79215711D01*
G37*
X221844001Y-79215711D02*
X221814766Y-79513876D01*
X221737551Y-79769624D01*
X221612131Y-80005504D01*
X221443289Y-80212525D01*
X221237446Y-80382813D01*
X221002444Y-80509879D01*
X220747240Y-80588877D01*
X220451118Y-80620000D01*
X217254682Y-80620000D01*
X217327932Y-80443158D01*
X217385000Y-80156260D01*
X217385000Y-79863740D01*
X217327932Y-79576842D01*
X217215990Y-79306589D01*
X217053475Y-79063368D01*
X216921620Y-78931513D01*
X216994180Y-78909502D01*
X217104494Y-78850537D01*
X217201185Y-78771185D01*
X217280537Y-78674494D01*
X217339502Y-78564180D01*
X217375812Y-78444482D01*
X217388072Y-78320000D01*
X217385000Y-77755750D01*
X217226250Y-77597000D01*
X216027000Y-77597000D01*
X216027000Y-77617000D01*
X215773000Y-77617000D01*
X215773000Y-77597000D01*
X215753000Y-77597000D01*
X215753000Y-77343000D01*
X215773000Y-77343000D01*
X215773000Y-77323000D01*
X216027000Y-77323000D01*
X216027000Y-77343000D01*
X217226250Y-77343000D01*
X217385000Y-77184250D01*
X217388072Y-76620000D01*
X217375812Y-76495518D01*
X217339502Y-76375820D01*
X217313407Y-76327000D01*
X218440000Y-76327000D01*
X218464776Y-76324560D01*
X218488601Y-76317333D01*
X218510557Y-76305597D01*
X218529803Y-76289803D01*
X218545597Y-76270557D01*
X218557333Y-76248601D01*
X218564560Y-76224776D01*
X218567000Y-76200000D01*
X218567000Y-75057000D01*
X221844001Y-75057000D01*
X221844001Y-79215711D01*
G36*
X184104010Y-38412589D02*
G01*
X183992068Y-38682842D01*
X183935000Y-38969740D01*
X183935000Y-39262260D01*
X183992068Y-39549158D01*
X184104010Y-39819411D01*
X184266525Y-40062632D01*
X184398380Y-40194487D01*
X184325820Y-40216498D01*
X184215506Y-40275463D01*
X184118815Y-40354815D01*
X184039463Y-40451506D01*
X183980498Y-40561820D01*
X183944188Y-40681518D01*
X183931928Y-40806000D01*
X183931928Y-42506000D01*
X183944188Y-42630482D01*
X183980498Y-42750180D01*
X184039463Y-42860494D01*
X184118815Y-42957185D01*
X184215506Y-43036537D01*
X184325820Y-43095502D01*
X184445518Y-43131812D01*
X184570000Y-43144072D01*
X185023427Y-43144072D01*
X184826599Y-43340900D01*
X184247425Y-43340900D01*
X184210100Y-43337224D01*
X184172775Y-43340900D01*
X184172767Y-43340900D01*
X184061114Y-43351897D01*
X183917853Y-43395354D01*
X183785824Y-43465926D01*
X183670099Y-43560899D01*
X183646301Y-43589897D01*
X180789503Y-46446696D01*
X180760499Y-46470499D01*
X180716801Y-46523746D01*
X180665526Y-46586224D01*
X180620105Y-46671201D01*
X180594954Y-46718254D01*
X180551497Y-46861515D01*
X180540500Y-46973168D01*
X180540500Y-46973178D01*
X180536824Y-47010500D01*
X180540500Y-47047822D01*
X180540501Y-63102167D01*
X180536824Y-63139500D01*
X180551498Y-63288485D01*
X180594954Y-63431746D01*
X180665526Y-63563776D01*
X180725885Y-63637323D01*
X180760500Y-63679501D01*
X180789498Y-63703299D01*
X185412928Y-68326730D01*
X185412928Y-68915001D01*
X185429992Y-69088255D01*
X185480528Y-69254851D01*
X185562595Y-69408387D01*
X185673038Y-69542962D01*
X185807613Y-69653405D01*
X185961149Y-69735472D01*
X186127745Y-69786008D01*
X186300999Y-69803072D01*
X186951001Y-69803072D01*
X187124255Y-69786008D01*
X187204546Y-69761652D01*
X186889270Y-70076928D01*
X186300999Y-70076928D01*
X186127745Y-70093992D01*
X185961149Y-70144528D01*
X185807613Y-70226595D01*
X185673038Y-70337038D01*
X185562595Y-70471613D01*
X185480528Y-70625149D01*
X185429992Y-70791745D01*
X185412928Y-70964999D01*
X185412928Y-71865001D01*
X185429992Y-72038255D01*
X185480528Y-72204851D01*
X185562595Y-72358387D01*
X185673038Y-72492962D01*
X185807613Y-72603405D01*
X185961149Y-72685472D01*
X186127745Y-72736008D01*
X186300999Y-72753072D01*
X186951001Y-72753072D01*
X187124255Y-72736008D01*
X187290851Y-72685472D01*
X187444387Y-72603405D01*
X187578962Y-72492962D01*
X187651000Y-72405184D01*
X187723038Y-72492962D01*
X187857613Y-72603405D01*
X188011149Y-72685472D01*
X188177745Y-72736008D01*
X188350999Y-72753072D01*
X189001001Y-72753072D01*
X189174255Y-72736008D01*
X189340851Y-72685472D01*
X189494387Y-72603405D01*
X189628962Y-72492962D01*
X189739405Y-72358387D01*
X189821472Y-72204851D01*
X189872008Y-72038255D01*
X189889072Y-71865001D01*
X189889072Y-71276730D01*
X190139903Y-71025899D01*
X190168901Y-71002101D01*
X190205831Y-70957102D01*
X190263874Y-70886377D01*
X190334446Y-70754347D01*
X190359395Y-70672099D01*
X190377903Y-70611086D01*
X190388900Y-70499433D01*
X190388900Y-70499424D01*
X190392576Y-70462101D01*
X190388900Y-70424778D01*
X190388900Y-69155100D01*
X196539578Y-69155100D01*
X196576900Y-69158776D01*
X196614222Y-69155100D01*
X196614233Y-69155100D01*
X196725886Y-69144103D01*
X196869147Y-69100646D01*
X197001176Y-69030074D01*
X197116901Y-68935101D01*
X197140703Y-68906098D01*
X197357729Y-68689072D01*
X197967001Y-68689072D01*
X198140255Y-68672008D01*
X198306851Y-68621472D01*
X198460387Y-68539405D01*
X198594962Y-68428962D01*
X198705405Y-68294387D01*
X198787472Y-68140851D01*
X198838008Y-67974255D01*
X198855072Y-67801001D01*
X198855072Y-66900999D01*
X198838008Y-66727745D01*
X198787472Y-66561149D01*
X198705405Y-66407613D01*
X198594962Y-66273038D01*
X198460387Y-66162595D01*
X198381000Y-66120162D01*
X198381000Y-65227614D01*
X198439387Y-65196405D01*
X198573962Y-65085962D01*
X198684405Y-64951387D01*
X198766472Y-64797851D01*
X198817008Y-64631255D01*
X198834072Y-64458001D01*
X198834072Y-63557999D01*
X198817008Y-63384745D01*
X198766472Y-63218149D01*
X198684405Y-63064613D01*
X198573962Y-62930038D01*
X198439387Y-62819595D01*
X198381000Y-62788386D01*
X198381000Y-59132000D01*
X201057928Y-59132000D01*
X201070188Y-59256482D01*
X201106498Y-59376180D01*
X201165463Y-59486494D01*
X201244815Y-59583185D01*
X201341506Y-59662537D01*
X201451820Y-59721502D01*
X201571518Y-59757812D01*
X201696000Y-59770072D01*
X202010250Y-59767000D01*
X202169000Y-59608250D01*
X202169000Y-57659000D01*
X201219750Y-57659000D01*
X201061000Y-57817750D01*
X201057928Y-59132000D01*
X198381000Y-59132000D01*
X198381000Y-56713801D01*
X199162801Y-55932000D01*
X201057928Y-55932000D01*
X201061000Y-57246250D01*
X201219750Y-57405000D01*
X202169000Y-57405000D01*
X202169000Y-55455750D01*
X202010250Y-55297000D01*
X201696000Y-55293928D01*
X201571518Y-55306188D01*
X201451820Y-55342498D01*
X201341506Y-55401463D01*
X201244815Y-55480815D01*
X201165463Y-55577506D01*
X201106498Y-55687820D01*
X201070188Y-55807518D01*
X201057928Y-55932000D01*
X199162801Y-55932000D01*
X200897011Y-54197792D01*
X200926001Y-54174001D01*
X200949792Y-54145011D01*
X200949799Y-54145004D01*
X200949808Y-54144993D01*
X201022729Y-54072072D01*
X201611001Y-54072072D01*
X201712800Y-54062046D01*
X201712800Y-54150339D01*
X201752574Y-54350298D01*
X201830595Y-54538656D01*
X201943863Y-54708174D01*
X202088026Y-54852337D01*
X202257544Y-54965605D01*
X202445902Y-55043626D01*
X202645861Y-55083400D01*
X202849739Y-55083400D01*
X203049698Y-55043626D01*
X203238056Y-54965605D01*
X203407574Y-54852337D01*
X203536000Y-54723911D01*
X203536000Y-55316962D01*
X203451820Y-55342498D01*
X203341506Y-55401463D01*
X203296000Y-55438809D01*
X203250494Y-55401463D01*
X203140180Y-55342498D01*
X203020482Y-55306188D01*
X202896000Y-55293928D01*
X202581750Y-55297000D01*
X202423000Y-55455750D01*
X202423000Y-57405000D01*
X202443000Y-57405000D01*
X202443000Y-57659000D01*
X202423000Y-57659000D01*
X202423000Y-59608250D01*
X202581750Y-59767000D01*
X202896000Y-59770072D01*
X203020482Y-59757812D01*
X203140180Y-59721502D01*
X203250494Y-59662537D01*
X203296000Y-59625191D01*
X203341506Y-59662537D01*
X203451820Y-59721502D01*
X203571518Y-59757812D01*
X203696000Y-59770072D01*
X204896000Y-59770072D01*
X205020482Y-59757812D01*
X205140180Y-59721502D01*
X205250494Y-59662537D01*
X205296000Y-59625191D01*
X205341506Y-59662537D01*
X205451820Y-59721502D01*
X205571518Y-59757812D01*
X205696000Y-59770072D01*
X206896000Y-59770072D01*
X207020482Y-59757812D01*
X207140180Y-59721502D01*
X207250494Y-59662537D01*
X207296000Y-59625191D01*
X207341506Y-59662537D01*
X207451820Y-59721502D01*
X207571518Y-59757812D01*
X207651599Y-59765699D01*
X193019599Y-74397700D01*
X186105922Y-74397700D01*
X186068599Y-74394024D01*
X186031276Y-74397700D01*
X186031267Y-74397700D01*
X185919614Y-74408697D01*
X185776353Y-74452154D01*
X185644323Y-74522726D01*
X185560683Y-74591368D01*
X185528599Y-74617699D01*
X185504801Y-74646697D01*
X183733703Y-76417796D01*
X183704699Y-76441599D01*
X183660449Y-76495518D01*
X183609726Y-76557324D01*
X183593893Y-76586946D01*
X183539154Y-76689354D01*
X183495697Y-76832615D01*
X183484700Y-76944268D01*
X183484700Y-76944278D01*
X183481024Y-76981600D01*
X183484700Y-77018923D01*
X183484701Y-77989468D01*
X183481024Y-78026800D01*
X183495698Y-78175785D01*
X183539154Y-78319046D01*
X183609726Y-78451076D01*
X183670395Y-78525000D01*
X183704700Y-78566801D01*
X183733698Y-78590599D01*
X184242469Y-79099371D01*
X184104010Y-79306589D01*
X183992068Y-79576842D01*
X183935000Y-79863740D01*
X183935000Y-80156260D01*
X183992068Y-80443158D01*
X184065318Y-80620000D01*
X180880279Y-80620000D01*
X180582124Y-80590766D01*
X180326376Y-80513551D01*
X180090496Y-80388131D01*
X179883475Y-80219289D01*
X179713187Y-80013446D01*
X179586121Y-79778444D01*
X179507123Y-79523240D01*
X179476000Y-79227118D01*
X179476000Y-39656279D01*
X179505234Y-39358125D01*
X179582448Y-39102378D01*
X179707869Y-38866496D01*
X179876716Y-38659470D01*
X180082554Y-38489187D01*
X180317556Y-38362121D01*
X180572756Y-38283124D01*
X180868882Y-38252000D01*
X184211312Y-38252000D01*
X184104010Y-38412589D01*
G37*
X184104010Y-38412589D02*
X183992068Y-38682842D01*
X183935000Y-38969740D01*
X183935000Y-39262260D01*
X183992068Y-39549158D01*
X184104010Y-39819411D01*
X184266525Y-40062632D01*
X184398380Y-40194487D01*
X184325820Y-40216498D01*
X184215506Y-40275463D01*
X184118815Y-40354815D01*
X184039463Y-40451506D01*
X183980498Y-40561820D01*
X183944188Y-40681518D01*
X183931928Y-40806000D01*
X183931928Y-42506000D01*
X183944188Y-42630482D01*
X183980498Y-42750180D01*
X184039463Y-42860494D01*
X184118815Y-42957185D01*
X184215506Y-43036537D01*
X184325820Y-43095502D01*
X184445518Y-43131812D01*
X184570000Y-43144072D01*
X185023427Y-43144072D01*
X184826599Y-43340900D01*
X184247425Y-43340900D01*
X184210100Y-43337224D01*
X184172775Y-43340900D01*
X184172767Y-43340900D01*
X184061114Y-43351897D01*
X183917853Y-43395354D01*
X183785824Y-43465926D01*
X183670099Y-43560899D01*
X183646301Y-43589897D01*
X180789503Y-46446696D01*
X180760499Y-46470499D01*
X180716801Y-46523746D01*
X180665526Y-46586224D01*
X180620105Y-46671201D01*
X180594954Y-46718254D01*
X180551497Y-46861515D01*
X180540500Y-46973168D01*
X180540500Y-46973178D01*
X180536824Y-47010500D01*
X180540500Y-47047822D01*
X180540501Y-63102167D01*
X180536824Y-63139500D01*
X180551498Y-63288485D01*
X180594954Y-63431746D01*
X180665526Y-63563776D01*
X180725885Y-63637323D01*
X180760500Y-63679501D01*
X180789498Y-63703299D01*
X185412928Y-68326730D01*
X185412928Y-68915001D01*
X185429992Y-69088255D01*
X185480528Y-69254851D01*
X185562595Y-69408387D01*
X185673038Y-69542962D01*
X185807613Y-69653405D01*
X185961149Y-69735472D01*
X186127745Y-69786008D01*
X186300999Y-69803072D01*
X186951001Y-69803072D01*
X187124255Y-69786008D01*
X187204546Y-69761652D01*
X186889270Y-70076928D01*
X186300999Y-70076928D01*
X186127745Y-70093992D01*
X185961149Y-70144528D01*
X185807613Y-70226595D01*
X185673038Y-70337038D01*
X185562595Y-70471613D01*
X185480528Y-70625149D01*
X185429992Y-70791745D01*
X185412928Y-70964999D01*
X185412928Y-71865001D01*
X185429992Y-72038255D01*
X185480528Y-72204851D01*
X185562595Y-72358387D01*
X185673038Y-72492962D01*
X185807613Y-72603405D01*
X185961149Y-72685472D01*
X186127745Y-72736008D01*
X186300999Y-72753072D01*
X186951001Y-72753072D01*
X187124255Y-72736008D01*
X187290851Y-72685472D01*
X187444387Y-72603405D01*
X187578962Y-72492962D01*
X187651000Y-72405184D01*
X187723038Y-72492962D01*
X187857613Y-72603405D01*
X188011149Y-72685472D01*
X188177745Y-72736008D01*
X188350999Y-72753072D01*
X189001001Y-72753072D01*
X189174255Y-72736008D01*
X189340851Y-72685472D01*
X189494387Y-72603405D01*
X189628962Y-72492962D01*
X189739405Y-72358387D01*
X189821472Y-72204851D01*
X189872008Y-72038255D01*
X189889072Y-71865001D01*
X189889072Y-71276730D01*
X190139903Y-71025899D01*
X190168901Y-71002101D01*
X190205831Y-70957102D01*
X190263874Y-70886377D01*
X190334446Y-70754347D01*
X190359395Y-70672099D01*
X190377903Y-70611086D01*
X190388900Y-70499433D01*
X190388900Y-70499424D01*
X190392576Y-70462101D01*
X190388900Y-70424778D01*
X190388900Y-69155100D01*
X196539578Y-69155100D01*
X196576900Y-69158776D01*
X196614222Y-69155100D01*
X196614233Y-69155100D01*
X196725886Y-69144103D01*
X196869147Y-69100646D01*
X197001176Y-69030074D01*
X197116901Y-68935101D01*
X197140703Y-68906098D01*
X197357729Y-68689072D01*
X197967001Y-68689072D01*
X198140255Y-68672008D01*
X198306851Y-68621472D01*
X198460387Y-68539405D01*
X198594962Y-68428962D01*
X198705405Y-68294387D01*
X198787472Y-68140851D01*
X198838008Y-67974255D01*
X198855072Y-67801001D01*
X198855072Y-66900999D01*
X198838008Y-66727745D01*
X198787472Y-66561149D01*
X198705405Y-66407613D01*
X198594962Y-66273038D01*
X198460387Y-66162595D01*
X198381000Y-66120162D01*
X198381000Y-65227614D01*
X198439387Y-65196405D01*
X198573962Y-65085962D01*
X198684405Y-64951387D01*
X198766472Y-64797851D01*
X198817008Y-64631255D01*
X198834072Y-64458001D01*
X198834072Y-63557999D01*
X198817008Y-63384745D01*
X198766472Y-63218149D01*
X198684405Y-63064613D01*
X198573962Y-62930038D01*
X198439387Y-62819595D01*
X198381000Y-62788386D01*
X198381000Y-59132000D01*
X201057928Y-59132000D01*
X201070188Y-59256482D01*
X201106498Y-59376180D01*
X201165463Y-59486494D01*
X201244815Y-59583185D01*
X201341506Y-59662537D01*
X201451820Y-59721502D01*
X201571518Y-59757812D01*
X201696000Y-59770072D01*
X202010250Y-59767000D01*
X202169000Y-59608250D01*
X202169000Y-57659000D01*
X201219750Y-57659000D01*
X201061000Y-57817750D01*
X201057928Y-59132000D01*
X198381000Y-59132000D01*
X198381000Y-56713801D01*
X199162801Y-55932000D01*
X201057928Y-55932000D01*
X201061000Y-57246250D01*
X201219750Y-57405000D01*
X202169000Y-57405000D01*
X202169000Y-55455750D01*
X202010250Y-55297000D01*
X201696000Y-55293928D01*
X201571518Y-55306188D01*
X201451820Y-55342498D01*
X201341506Y-55401463D01*
X201244815Y-55480815D01*
X201165463Y-55577506D01*
X201106498Y-55687820D01*
X201070188Y-55807518D01*
X201057928Y-55932000D01*
X199162801Y-55932000D01*
X200897011Y-54197792D01*
X200926001Y-54174001D01*
X200949792Y-54145011D01*
X200949799Y-54145004D01*
X200949808Y-54144993D01*
X201022729Y-54072072D01*
X201611001Y-54072072D01*
X201712800Y-54062046D01*
X201712800Y-54150339D01*
X201752574Y-54350298D01*
X201830595Y-54538656D01*
X201943863Y-54708174D01*
X202088026Y-54852337D01*
X202257544Y-54965605D01*
X202445902Y-55043626D01*
X202645861Y-55083400D01*
X202849739Y-55083400D01*
X203049698Y-55043626D01*
X203238056Y-54965605D01*
X203407574Y-54852337D01*
X203536000Y-54723911D01*
X203536000Y-55316962D01*
X203451820Y-55342498D01*
X203341506Y-55401463D01*
X203296000Y-55438809D01*
X203250494Y-55401463D01*
X203140180Y-55342498D01*
X203020482Y-55306188D01*
X202896000Y-55293928D01*
X202581750Y-55297000D01*
X202423000Y-55455750D01*
X202423000Y-57405000D01*
X202443000Y-57405000D01*
X202443000Y-57659000D01*
X202423000Y-57659000D01*
X202423000Y-59608250D01*
X202581750Y-59767000D01*
X202896000Y-59770072D01*
X203020482Y-59757812D01*
X203140180Y-59721502D01*
X203250494Y-59662537D01*
X203296000Y-59625191D01*
X203341506Y-59662537D01*
X203451820Y-59721502D01*
X203571518Y-59757812D01*
X203696000Y-59770072D01*
X204896000Y-59770072D01*
X205020482Y-59757812D01*
X205140180Y-59721502D01*
X205250494Y-59662537D01*
X205296000Y-59625191D01*
X205341506Y-59662537D01*
X205451820Y-59721502D01*
X205571518Y-59757812D01*
X205696000Y-59770072D01*
X206896000Y-59770072D01*
X207020482Y-59757812D01*
X207140180Y-59721502D01*
X207250494Y-59662537D01*
X207296000Y-59625191D01*
X207341506Y-59662537D01*
X207451820Y-59721502D01*
X207571518Y-59757812D01*
X207651599Y-59765699D01*
X193019599Y-74397700D01*
X186105922Y-74397700D01*
X186068599Y-74394024D01*
X186031276Y-74397700D01*
X186031267Y-74397700D01*
X185919614Y-74408697D01*
X185776353Y-74452154D01*
X185644323Y-74522726D01*
X185560683Y-74591368D01*
X185528599Y-74617699D01*
X185504801Y-74646697D01*
X183733703Y-76417796D01*
X183704699Y-76441599D01*
X183660449Y-76495518D01*
X183609726Y-76557324D01*
X183593893Y-76586946D01*
X183539154Y-76689354D01*
X183495697Y-76832615D01*
X183484700Y-76944268D01*
X183484700Y-76944278D01*
X183481024Y-76981600D01*
X183484700Y-77018923D01*
X183484701Y-77989468D01*
X183481024Y-78026800D01*
X183495698Y-78175785D01*
X183539154Y-78319046D01*
X183609726Y-78451076D01*
X183670395Y-78525000D01*
X183704700Y-78566801D01*
X183733698Y-78590599D01*
X184242469Y-79099371D01*
X184104010Y-79306589D01*
X183992068Y-79576842D01*
X183935000Y-79863740D01*
X183935000Y-80156260D01*
X183992068Y-80443158D01*
X184065318Y-80620000D01*
X180880279Y-80620000D01*
X180582124Y-80590766D01*
X180326376Y-80513551D01*
X180090496Y-80388131D01*
X179883475Y-80219289D01*
X179713187Y-80013446D01*
X179586121Y-79778444D01*
X179507123Y-79523240D01*
X179476000Y-79227118D01*
X179476000Y-39656279D01*
X179505234Y-39358125D01*
X179582448Y-39102378D01*
X179707869Y-38866496D01*
X179876716Y-38659470D01*
X180082554Y-38489187D01*
X180317556Y-38362121D01*
X180572756Y-38283124D01*
X180868882Y-38252000D01*
X184211312Y-38252000D01*
X184104010Y-38412589D01*
G36*
X219723463Y-48238494D02*
G01*
X219802815Y-48335185D01*
X219899506Y-48414537D01*
X220009820Y-48473502D01*
X220129518Y-48509812D01*
X220254000Y-48522072D01*
X221754000Y-48522072D01*
X221844000Y-48513208D01*
X221844001Y-67700628D01*
X218059000Y-67700628D01*
X217934518Y-67712888D01*
X217814820Y-67749198D01*
X217704506Y-67808163D01*
X217607815Y-67887515D01*
X217528463Y-67984206D01*
X217469498Y-68094520D01*
X217433188Y-68214218D01*
X217420928Y-68338700D01*
X217420928Y-68453000D01*
X214630000Y-68453000D01*
X214605224Y-68455440D01*
X214581399Y-68462667D01*
X214559443Y-68474403D01*
X214540197Y-68490197D01*
X214524403Y-68509443D01*
X214512667Y-68531399D01*
X214505440Y-68555224D01*
X214503000Y-68580000D01*
X214503000Y-71375750D01*
X214423000Y-71455750D01*
X214423000Y-73405000D01*
X214443000Y-73405000D01*
X214443000Y-73659000D01*
X214423000Y-73659000D01*
X214423000Y-75608250D01*
X214503000Y-75688250D01*
X214503000Y-76200000D01*
X214505440Y-76224776D01*
X214512667Y-76248601D01*
X214520820Y-76263853D01*
X214519463Y-76265506D01*
X214460498Y-76375820D01*
X214438487Y-76448380D01*
X214306632Y-76316525D01*
X214063411Y-76154010D01*
X213793158Y-76042068D01*
X213506260Y-75985000D01*
X213213740Y-75985000D01*
X212926842Y-76042068D01*
X212656589Y-76154010D01*
X212413368Y-76316525D01*
X212206525Y-76523368D01*
X212090000Y-76697760D01*
X211973475Y-76523368D01*
X211766632Y-76316525D01*
X211523411Y-76154010D01*
X211253158Y-76042068D01*
X210966260Y-75985000D01*
X210673740Y-75985000D01*
X210386842Y-76042068D01*
X210116589Y-76154010D01*
X209873368Y-76316525D01*
X209666525Y-76523368D01*
X209550000Y-76697760D01*
X209433475Y-76523368D01*
X209226632Y-76316525D01*
X208983411Y-76154010D01*
X208713158Y-76042068D01*
X208426260Y-75985000D01*
X208133740Y-75985000D01*
X207846842Y-76042068D01*
X207576589Y-76154010D01*
X207333368Y-76316525D01*
X207126525Y-76523368D01*
X207010000Y-76697760D01*
X206952058Y-76611043D01*
X207732404Y-75830698D01*
X207761401Y-75806901D01*
X207791626Y-75770072D01*
X208896000Y-75770072D01*
X209020482Y-75757812D01*
X209140180Y-75721502D01*
X209250494Y-75662537D01*
X209296000Y-75625191D01*
X209341506Y-75662537D01*
X209451820Y-75721502D01*
X209571518Y-75757812D01*
X209696000Y-75770072D01*
X210896000Y-75770072D01*
X211020482Y-75757812D01*
X211140180Y-75721502D01*
X211250494Y-75662537D01*
X211296000Y-75625191D01*
X211341506Y-75662537D01*
X211451820Y-75721502D01*
X211571518Y-75757812D01*
X211696000Y-75770072D01*
X212896000Y-75770072D01*
X213020482Y-75757812D01*
X213140180Y-75721502D01*
X213250494Y-75662537D01*
X213296000Y-75625191D01*
X213341506Y-75662537D01*
X213451820Y-75721502D01*
X213571518Y-75757812D01*
X213696000Y-75770072D01*
X214010250Y-75767000D01*
X214169000Y-75608250D01*
X214169000Y-73659000D01*
X214149000Y-73659000D01*
X214149000Y-73405000D01*
X214169000Y-73405000D01*
X214169000Y-71455750D01*
X214010250Y-71297000D01*
X213696000Y-71293928D01*
X213571518Y-71306188D01*
X213451820Y-71342498D01*
X213341506Y-71401463D01*
X213296000Y-71438809D01*
X213250494Y-71401463D01*
X213140180Y-71342498D01*
X213020482Y-71306188D01*
X212896000Y-71293928D01*
X211696000Y-71293928D01*
X211571518Y-71306188D01*
X211451820Y-71342498D01*
X211341506Y-71401463D01*
X211296000Y-71438809D01*
X211250494Y-71401463D01*
X211140180Y-71342498D01*
X211020482Y-71306188D01*
X210896000Y-71293928D01*
X209696000Y-71293928D01*
X209571518Y-71306188D01*
X209451820Y-71342498D01*
X209341506Y-71401463D01*
X209296000Y-71438809D01*
X209250494Y-71401463D01*
X209140180Y-71342498D01*
X209056000Y-71316962D01*
X209056000Y-70522901D01*
X214334902Y-65244000D01*
X214397039Y-65244000D01*
X214596998Y-65204226D01*
X214785356Y-65126205D01*
X214954874Y-65012937D01*
X215099037Y-64868774D01*
X215212305Y-64699256D01*
X215290326Y-64510898D01*
X215330100Y-64310939D01*
X215330100Y-64107061D01*
X215290326Y-63907102D01*
X215212305Y-63718744D01*
X215099037Y-63549226D01*
X214954874Y-63405063D01*
X214785356Y-63291795D01*
X214596998Y-63213774D01*
X214397039Y-63174000D01*
X214193161Y-63174000D01*
X213993202Y-63213774D01*
X213804844Y-63291795D01*
X213635326Y-63405063D01*
X213491163Y-63549226D01*
X213377895Y-63718744D01*
X213299874Y-63907102D01*
X213260100Y-64107061D01*
X213260100Y-64169198D01*
X207981400Y-69447899D01*
X207981400Y-67628601D01*
X215841351Y-59768651D01*
X216010250Y-59767000D01*
X216169000Y-59608250D01*
X216169000Y-57659000D01*
X216423000Y-57659000D01*
X216423000Y-59608250D01*
X216581750Y-59767000D01*
X216896000Y-59770072D01*
X217020482Y-59757812D01*
X217140180Y-59721502D01*
X217250494Y-59662537D01*
X217347185Y-59583185D01*
X217426537Y-59486494D01*
X217485502Y-59376180D01*
X217521812Y-59256482D01*
X217534072Y-59132000D01*
X217531000Y-57817750D01*
X217372250Y-57659000D01*
X216423000Y-57659000D01*
X216169000Y-57659000D01*
X216149000Y-57659000D01*
X216149000Y-57405000D01*
X216169000Y-57405000D01*
X216169000Y-55455750D01*
X216423000Y-55455750D01*
X216423000Y-57405000D01*
X217372250Y-57405000D01*
X217531000Y-57246250D01*
X217534072Y-55932000D01*
X217521812Y-55807518D01*
X217485502Y-55687820D01*
X217426537Y-55577506D01*
X217347185Y-55480815D01*
X217250494Y-55401463D01*
X217140180Y-55342498D01*
X217020482Y-55306188D01*
X216896000Y-55293928D01*
X216581750Y-55297000D01*
X216423000Y-55455750D01*
X216169000Y-55455750D01*
X216130600Y-55417350D01*
X216130600Y-54684000D01*
X218365928Y-54684000D01*
X218378188Y-54808482D01*
X218414498Y-54928180D01*
X218473463Y-55038494D01*
X218552815Y-55135185D01*
X218649506Y-55214537D01*
X218759820Y-55273502D01*
X218879518Y-55309812D01*
X219004000Y-55322072D01*
X219718250Y-55319000D01*
X219877000Y-55160250D01*
X219877000Y-53311000D01*
X220131000Y-53311000D01*
X220131000Y-55160250D01*
X220289750Y-55319000D01*
X221004000Y-55322072D01*
X221128482Y-55309812D01*
X221248180Y-55273502D01*
X221358494Y-55214537D01*
X221455185Y-55135185D01*
X221534537Y-55038494D01*
X221593502Y-54928180D01*
X221629812Y-54808482D01*
X221642072Y-54684000D01*
X221639000Y-53469750D01*
X221480250Y-53311000D01*
X220131000Y-53311000D01*
X219877000Y-53311000D01*
X218527750Y-53311000D01*
X218369000Y-53469750D01*
X218365928Y-54684000D01*
X216130600Y-54684000D01*
X216130600Y-51527101D01*
X217426018Y-50231683D01*
X217431832Y-50260912D01*
X217555082Y-50558463D01*
X217734013Y-50826252D01*
X217961748Y-51053987D01*
X218229537Y-51232918D01*
X218471516Y-51333149D01*
X218414498Y-51439820D01*
X218378188Y-51559518D01*
X218365928Y-51684000D01*
X218369000Y-52898250D01*
X218527750Y-53057000D01*
X219877000Y-53057000D01*
X219877000Y-53037000D01*
X220131000Y-53037000D01*
X220131000Y-53057000D01*
X221480250Y-53057000D01*
X221639000Y-52898250D01*
X221642072Y-51684000D01*
X221629812Y-51559518D01*
X221593502Y-51439820D01*
X221534537Y-51329506D01*
X221455185Y-51232815D01*
X221358494Y-51153463D01*
X221248180Y-51094498D01*
X221128482Y-51058188D01*
X221004000Y-51045928D01*
X220289750Y-51049000D01*
X220131002Y-51207748D01*
X220131002Y-51049000D01*
X220051239Y-51049000D01*
X220273987Y-50826252D01*
X220452918Y-50558463D01*
X220576168Y-50260912D01*
X220639000Y-49945033D01*
X220639000Y-49622967D01*
X220576168Y-49307088D01*
X220452918Y-49009537D01*
X220273987Y-48741748D01*
X220046252Y-48514013D01*
X219778463Y-48335082D01*
X219611893Y-48266086D01*
X219634537Y-48238494D01*
X219679000Y-48155311D01*
X219723463Y-48238494D01*
G37*
X219723463Y-48238494D02*
X219802815Y-48335185D01*
X219899506Y-48414537D01*
X220009820Y-48473502D01*
X220129518Y-48509812D01*
X220254000Y-48522072D01*
X221754000Y-48522072D01*
X221844000Y-48513208D01*
X221844001Y-67700628D01*
X218059000Y-67700628D01*
X217934518Y-67712888D01*
X217814820Y-67749198D01*
X217704506Y-67808163D01*
X217607815Y-67887515D01*
X217528463Y-67984206D01*
X217469498Y-68094520D01*
X217433188Y-68214218D01*
X217420928Y-68338700D01*
X217420928Y-68453000D01*
X214630000Y-68453000D01*
X214605224Y-68455440D01*
X214581399Y-68462667D01*
X214559443Y-68474403D01*
X214540197Y-68490197D01*
X214524403Y-68509443D01*
X214512667Y-68531399D01*
X214505440Y-68555224D01*
X214503000Y-68580000D01*
X214503000Y-71375750D01*
X214423000Y-71455750D01*
X214423000Y-73405000D01*
X214443000Y-73405000D01*
X214443000Y-73659000D01*
X214423000Y-73659000D01*
X214423000Y-75608250D01*
X214503000Y-75688250D01*
X214503000Y-76200000D01*
X214505440Y-76224776D01*
X214512667Y-76248601D01*
X214520820Y-76263853D01*
X214519463Y-76265506D01*
X214460498Y-76375820D01*
X214438487Y-76448380D01*
X214306632Y-76316525D01*
X214063411Y-76154010D01*
X213793158Y-76042068D01*
X213506260Y-75985000D01*
X213213740Y-75985000D01*
X212926842Y-76042068D01*
X212656589Y-76154010D01*
X212413368Y-76316525D01*
X212206525Y-76523368D01*
X212090000Y-76697760D01*
X211973475Y-76523368D01*
X211766632Y-76316525D01*
X211523411Y-76154010D01*
X211253158Y-76042068D01*
X210966260Y-75985000D01*
X210673740Y-75985000D01*
X210386842Y-76042068D01*
X210116589Y-76154010D01*
X209873368Y-76316525D01*
X209666525Y-76523368D01*
X209550000Y-76697760D01*
X209433475Y-76523368D01*
X209226632Y-76316525D01*
X208983411Y-76154010D01*
X208713158Y-76042068D01*
X208426260Y-75985000D01*
X208133740Y-75985000D01*
X207846842Y-76042068D01*
X207576589Y-76154010D01*
X207333368Y-76316525D01*
X207126525Y-76523368D01*
X207010000Y-76697760D01*
X206952058Y-76611043D01*
X207732404Y-75830698D01*
X207761401Y-75806901D01*
X207791626Y-75770072D01*
X208896000Y-75770072D01*
X209020482Y-75757812D01*
X209140180Y-75721502D01*
X209250494Y-75662537D01*
X209296000Y-75625191D01*
X209341506Y-75662537D01*
X209451820Y-75721502D01*
X209571518Y-75757812D01*
X209696000Y-75770072D01*
X210896000Y-75770072D01*
X211020482Y-75757812D01*
X211140180Y-75721502D01*
X211250494Y-75662537D01*
X211296000Y-75625191D01*
X211341506Y-75662537D01*
X211451820Y-75721502D01*
X211571518Y-75757812D01*
X211696000Y-75770072D01*
X212896000Y-75770072D01*
X213020482Y-75757812D01*
X213140180Y-75721502D01*
X213250494Y-75662537D01*
X213296000Y-75625191D01*
X213341506Y-75662537D01*
X213451820Y-75721502D01*
X213571518Y-75757812D01*
X213696000Y-75770072D01*
X214010250Y-75767000D01*
X214169000Y-75608250D01*
X214169000Y-73659000D01*
X214149000Y-73659000D01*
X214149000Y-73405000D01*
X214169000Y-73405000D01*
X214169000Y-71455750D01*
X214010250Y-71297000D01*
X213696000Y-71293928D01*
X213571518Y-71306188D01*
X213451820Y-71342498D01*
X213341506Y-71401463D01*
X213296000Y-71438809D01*
X213250494Y-71401463D01*
X213140180Y-71342498D01*
X213020482Y-71306188D01*
X212896000Y-71293928D01*
X211696000Y-71293928D01*
X211571518Y-71306188D01*
X211451820Y-71342498D01*
X211341506Y-71401463D01*
X211296000Y-71438809D01*
X211250494Y-71401463D01*
X211140180Y-71342498D01*
X211020482Y-71306188D01*
X210896000Y-71293928D01*
X209696000Y-71293928D01*
X209571518Y-71306188D01*
X209451820Y-71342498D01*
X209341506Y-71401463D01*
X209296000Y-71438809D01*
X209250494Y-71401463D01*
X209140180Y-71342498D01*
X209056000Y-71316962D01*
X209056000Y-70522901D01*
X214334902Y-65244000D01*
X214397039Y-65244000D01*
X214596998Y-65204226D01*
X214785356Y-65126205D01*
X214954874Y-65012937D01*
X215099037Y-64868774D01*
X215212305Y-64699256D01*
X215290326Y-64510898D01*
X215330100Y-64310939D01*
X215330100Y-64107061D01*
X215290326Y-63907102D01*
X215212305Y-63718744D01*
X215099037Y-63549226D01*
X214954874Y-63405063D01*
X214785356Y-63291795D01*
X214596998Y-63213774D01*
X214397039Y-63174000D01*
X214193161Y-63174000D01*
X213993202Y-63213774D01*
X213804844Y-63291795D01*
X213635326Y-63405063D01*
X213491163Y-63549226D01*
X213377895Y-63718744D01*
X213299874Y-63907102D01*
X213260100Y-64107061D01*
X213260100Y-64169198D01*
X207981400Y-69447899D01*
X207981400Y-67628601D01*
X215841351Y-59768651D01*
X216010250Y-59767000D01*
X216169000Y-59608250D01*
X216169000Y-57659000D01*
X216423000Y-57659000D01*
X216423000Y-59608250D01*
X216581750Y-59767000D01*
X216896000Y-59770072D01*
X217020482Y-59757812D01*
X217140180Y-59721502D01*
X217250494Y-59662537D01*
X217347185Y-59583185D01*
X217426537Y-59486494D01*
X217485502Y-59376180D01*
X217521812Y-59256482D01*
X217534072Y-59132000D01*
X217531000Y-57817750D01*
X217372250Y-57659000D01*
X216423000Y-57659000D01*
X216169000Y-57659000D01*
X216149000Y-57659000D01*
X216149000Y-57405000D01*
X216169000Y-57405000D01*
X216169000Y-55455750D01*
X216423000Y-55455750D01*
X216423000Y-57405000D01*
X217372250Y-57405000D01*
X217531000Y-57246250D01*
X217534072Y-55932000D01*
X217521812Y-55807518D01*
X217485502Y-55687820D01*
X217426537Y-55577506D01*
X217347185Y-55480815D01*
X217250494Y-55401463D01*
X217140180Y-55342498D01*
X217020482Y-55306188D01*
X216896000Y-55293928D01*
X216581750Y-55297000D01*
X216423000Y-55455750D01*
X216169000Y-55455750D01*
X216130600Y-55417350D01*
X216130600Y-54684000D01*
X218365928Y-54684000D01*
X218378188Y-54808482D01*
X218414498Y-54928180D01*
X218473463Y-55038494D01*
X218552815Y-55135185D01*
X218649506Y-55214537D01*
X218759820Y-55273502D01*
X218879518Y-55309812D01*
X219004000Y-55322072D01*
X219718250Y-55319000D01*
X219877000Y-55160250D01*
X219877000Y-53311000D01*
X220131000Y-53311000D01*
X220131000Y-55160250D01*
X220289750Y-55319000D01*
X221004000Y-55322072D01*
X221128482Y-55309812D01*
X221248180Y-55273502D01*
X221358494Y-55214537D01*
X221455185Y-55135185D01*
X221534537Y-55038494D01*
X221593502Y-54928180D01*
X221629812Y-54808482D01*
X221642072Y-54684000D01*
X221639000Y-53469750D01*
X221480250Y-53311000D01*
X220131000Y-53311000D01*
X219877000Y-53311000D01*
X218527750Y-53311000D01*
X218369000Y-53469750D01*
X218365928Y-54684000D01*
X216130600Y-54684000D01*
X216130600Y-51527101D01*
X217426018Y-50231683D01*
X217431832Y-50260912D01*
X217555082Y-50558463D01*
X217734013Y-50826252D01*
X217961748Y-51053987D01*
X218229537Y-51232918D01*
X218471516Y-51333149D01*
X218414498Y-51439820D01*
X218378188Y-51559518D01*
X218365928Y-51684000D01*
X218369000Y-52898250D01*
X218527750Y-53057000D01*
X219877000Y-53057000D01*
X219877000Y-53037000D01*
X220131000Y-53037000D01*
X220131000Y-53057000D01*
X221480250Y-53057000D01*
X221639000Y-52898250D01*
X221642072Y-51684000D01*
X221629812Y-51559518D01*
X221593502Y-51439820D01*
X221534537Y-51329506D01*
X221455185Y-51232815D01*
X221358494Y-51153463D01*
X221248180Y-51094498D01*
X221128482Y-51058188D01*
X221004000Y-51045928D01*
X220289750Y-51049000D01*
X220131002Y-51207748D01*
X220131002Y-51049000D01*
X220051239Y-51049000D01*
X220273987Y-50826252D01*
X220452918Y-50558463D01*
X220576168Y-50260912D01*
X220639000Y-49945033D01*
X220639000Y-49622967D01*
X220576168Y-49307088D01*
X220452918Y-49009537D01*
X220273987Y-48741748D01*
X220046252Y-48514013D01*
X219778463Y-48335082D01*
X219611893Y-48266086D01*
X219634537Y-48238494D01*
X219679000Y-48155311D01*
X219723463Y-48238494D01*
G36*
X185685001Y-64505268D02*
G01*
X185681324Y-64542600D01*
X185685001Y-64579933D01*
X185695998Y-64691586D01*
X185704618Y-64720003D01*
X185739454Y-64834846D01*
X185810026Y-64966876D01*
X185866733Y-65035973D01*
X185905000Y-65082601D01*
X185933998Y-65106399D01*
X188019571Y-67191973D01*
X188011149Y-67194528D01*
X187857613Y-67276595D01*
X187723038Y-67387038D01*
X187651000Y-67474816D01*
X187578962Y-67387038D01*
X187444387Y-67276595D01*
X187290851Y-67194528D01*
X187124255Y-67143992D01*
X186951001Y-67126928D01*
X186362730Y-67126928D01*
X182060500Y-62824699D01*
X182060500Y-55609108D01*
X182094041Y-55575567D01*
X182161020Y-55815656D01*
X182410048Y-55932756D01*
X182677135Y-55999023D01*
X182952017Y-56011910D01*
X183224133Y-55970922D01*
X183483023Y-55877636D01*
X183598980Y-55815656D01*
X183665960Y-55575565D01*
X182880000Y-54789605D01*
X182865858Y-54803748D01*
X182686253Y-54624143D01*
X182700395Y-54610000D01*
X183059605Y-54610000D01*
X183845565Y-55395960D01*
X184085656Y-55328980D01*
X184202756Y-55079952D01*
X184269023Y-54812865D01*
X184281910Y-54537983D01*
X184240922Y-54265867D01*
X184147636Y-54006977D01*
X184085656Y-53891020D01*
X183845565Y-53824040D01*
X183059605Y-54610000D01*
X182700395Y-54610000D01*
X182686253Y-54595858D01*
X182865858Y-54416253D01*
X182880000Y-54430395D01*
X183665960Y-53644435D01*
X183598980Y-53404344D01*
X183463240Y-53340515D01*
X183541727Y-53308005D01*
X183770535Y-53155120D01*
X183965120Y-52960535D01*
X184052341Y-52830000D01*
X185685000Y-52830000D01*
X185685001Y-64505268D01*
G37*
X185685001Y-64505268D02*
X185681324Y-64542600D01*
X185685001Y-64579933D01*
X185695998Y-64691586D01*
X185704618Y-64720003D01*
X185739454Y-64834846D01*
X185810026Y-64966876D01*
X185866733Y-65035973D01*
X185905000Y-65082601D01*
X185933998Y-65106399D01*
X188019571Y-67191973D01*
X188011149Y-67194528D01*
X187857613Y-67276595D01*
X187723038Y-67387038D01*
X187651000Y-67474816D01*
X187578962Y-67387038D01*
X187444387Y-67276595D01*
X187290851Y-67194528D01*
X187124255Y-67143992D01*
X186951001Y-67126928D01*
X186362730Y-67126928D01*
X182060500Y-62824699D01*
X182060500Y-55609108D01*
X182094041Y-55575567D01*
X182161020Y-55815656D01*
X182410048Y-55932756D01*
X182677135Y-55999023D01*
X182952017Y-56011910D01*
X183224133Y-55970922D01*
X183483023Y-55877636D01*
X183598980Y-55815656D01*
X183665960Y-55575565D01*
X182880000Y-54789605D01*
X182865858Y-54803748D01*
X182686253Y-54624143D01*
X182700395Y-54610000D01*
X183059605Y-54610000D01*
X183845565Y-55395960D01*
X184085656Y-55328980D01*
X184202756Y-55079952D01*
X184269023Y-54812865D01*
X184281910Y-54537983D01*
X184240922Y-54265867D01*
X184147636Y-54006977D01*
X184085656Y-53891020D01*
X183845565Y-53824040D01*
X183059605Y-54610000D01*
X182700395Y-54610000D01*
X182686253Y-54595858D01*
X182865858Y-54416253D01*
X182880000Y-54430395D01*
X183665960Y-53644435D01*
X183598980Y-53404344D01*
X183463240Y-53340515D01*
X183541727Y-53308005D01*
X183770535Y-53155120D01*
X183965120Y-52960535D01*
X184052341Y-52830000D01*
X185685000Y-52830000D01*
X185685001Y-64505268D01*
G36*
X209666525Y-42602632D02*
G01*
X209820196Y-42756303D01*
X207818303Y-44758196D01*
X207789299Y-44781999D01*
X207760331Y-44817297D01*
X207694326Y-44897724D01*
X207645952Y-44988225D01*
X207623754Y-45029754D01*
X207580297Y-45173015D01*
X207569300Y-45284668D01*
X207569300Y-45284678D01*
X207565624Y-45322000D01*
X207569300Y-45359323D01*
X207569300Y-47245928D01*
X205004000Y-47245928D01*
X204879518Y-47258188D01*
X204759820Y-47294498D01*
X204649506Y-47353463D01*
X204552815Y-47432815D01*
X204473463Y-47529506D01*
X204414498Y-47639820D01*
X204378188Y-47759518D01*
X204365928Y-47884000D01*
X204365928Y-48664976D01*
X204281387Y-48595595D01*
X204223000Y-48564386D01*
X204223000Y-45423101D01*
X206251003Y-43395099D01*
X206280001Y-43371301D01*
X206374974Y-43255576D01*
X206445546Y-43123547D01*
X206489003Y-42980286D01*
X206493089Y-42938796D01*
X206686632Y-42809475D01*
X206893475Y-42602632D01*
X207010000Y-42428240D01*
X207126525Y-42602632D01*
X207333368Y-42809475D01*
X207576589Y-42971990D01*
X207846842Y-43083932D01*
X208133740Y-43141000D01*
X208426260Y-43141000D01*
X208713158Y-43083932D01*
X208983411Y-42971990D01*
X209226632Y-42809475D01*
X209433475Y-42602632D01*
X209550000Y-42428240D01*
X209666525Y-42602632D01*
G37*
X209666525Y-42602632D02*
X209820196Y-42756303D01*
X207818303Y-44758196D01*
X207789299Y-44781999D01*
X207760331Y-44817297D01*
X207694326Y-44897724D01*
X207645952Y-44988225D01*
X207623754Y-45029754D01*
X207580297Y-45173015D01*
X207569300Y-45284668D01*
X207569300Y-45284678D01*
X207565624Y-45322000D01*
X207569300Y-45359323D01*
X207569300Y-47245928D01*
X205004000Y-47245928D01*
X204879518Y-47258188D01*
X204759820Y-47294498D01*
X204649506Y-47353463D01*
X204552815Y-47432815D01*
X204473463Y-47529506D01*
X204414498Y-47639820D01*
X204378188Y-47759518D01*
X204365928Y-47884000D01*
X204365928Y-48664976D01*
X204281387Y-48595595D01*
X204223000Y-48564386D01*
X204223000Y-45423101D01*
X206251003Y-43395099D01*
X206280001Y-43371301D01*
X206374974Y-43255576D01*
X206445546Y-43123547D01*
X206489003Y-42980286D01*
X206493089Y-42938796D01*
X206686632Y-42809475D01*
X206893475Y-42602632D01*
X207010000Y-42428240D01*
X207126525Y-42602632D01*
X207333368Y-42809475D01*
X207576589Y-42971990D01*
X207846842Y-43083932D01*
X208133740Y-43141000D01*
X208426260Y-43141000D01*
X208713158Y-43083932D01*
X208983411Y-42971990D01*
X209226632Y-42809475D01*
X209433475Y-42602632D01*
X209550000Y-42428240D01*
X209666525Y-42602632D01*
G36*
X195707000Y-41529000D02*
G01*
X195727000Y-41529000D01*
X195727000Y-41783000D01*
X195707000Y-41783000D01*
X195707000Y-42976155D01*
X195936890Y-43097476D01*
X196084099Y-43052825D01*
X196346920Y-42927641D01*
X196580269Y-42753588D01*
X196775178Y-42537355D01*
X196844805Y-42420466D01*
X196966525Y-42602632D01*
X197173368Y-42809475D01*
X197416589Y-42971990D01*
X197442553Y-42982745D01*
X192382003Y-48043296D01*
X192352999Y-48067099D01*
X192307348Y-48122726D01*
X192258026Y-48182824D01*
X192196246Y-48298405D01*
X192187454Y-48314854D01*
X192146629Y-48449437D01*
X192111001Y-48445928D01*
X191602000Y-48445928D01*
X191602000Y-45881101D01*
X194665523Y-42817579D01*
X194813080Y-42927641D01*
X195075901Y-43052825D01*
X195223110Y-43097476D01*
X195453000Y-42976155D01*
X195453000Y-41783000D01*
X195433000Y-41783000D01*
X195433000Y-41529000D01*
X195453000Y-41529000D01*
X195453000Y-41509000D01*
X195707000Y-41509000D01*
X195707000Y-41529000D01*
G37*
X195707000Y-41529000D02*
X195727000Y-41529000D01*
X195727000Y-41783000D01*
X195707000Y-41783000D01*
X195707000Y-42976155D01*
X195936890Y-43097476D01*
X196084099Y-43052825D01*
X196346920Y-42927641D01*
X196580269Y-42753588D01*
X196775178Y-42537355D01*
X196844805Y-42420466D01*
X196966525Y-42602632D01*
X197173368Y-42809475D01*
X197416589Y-42971990D01*
X197442553Y-42982745D01*
X192382003Y-48043296D01*
X192352999Y-48067099D01*
X192307348Y-48122726D01*
X192258026Y-48182824D01*
X192196246Y-48298405D01*
X192187454Y-48314854D01*
X192146629Y-48449437D01*
X192111001Y-48445928D01*
X191602000Y-48445928D01*
X191602000Y-45881101D01*
X194665523Y-42817579D01*
X194813080Y-42927641D01*
X195075901Y-43052825D01*
X195223110Y-43097476D01*
X195453000Y-42976155D01*
X195453000Y-41783000D01*
X195433000Y-41783000D01*
X195433000Y-41529000D01*
X195453000Y-41529000D01*
X195453000Y-41509000D01*
X195707000Y-41509000D01*
X195707000Y-41529000D01*
G36*
X216027000Y-41529000D02*
G01*
X216047000Y-41529000D01*
X216047000Y-41783000D01*
X216027000Y-41783000D01*
X216027000Y-42976155D01*
X216256890Y-43097476D01*
X216320501Y-43078182D01*
X216320501Y-43389997D01*
X215313200Y-44397299D01*
X215313200Y-43013434D01*
X215395901Y-43052825D01*
X215543110Y-43097476D01*
X215773000Y-42976155D01*
X215773000Y-41783000D01*
X215753000Y-41783000D01*
X215753000Y-41529000D01*
X215773000Y-41529000D01*
X215773000Y-41509000D01*
X216027000Y-41509000D01*
X216027000Y-41529000D01*
G37*
X216027000Y-41529000D02*
X216047000Y-41529000D01*
X216047000Y-41783000D01*
X216027000Y-41783000D01*
X216027000Y-42976155D01*
X216256890Y-43097476D01*
X216320501Y-43078182D01*
X216320501Y-43389997D01*
X215313200Y-44397299D01*
X215313200Y-43013434D01*
X215395901Y-43052825D01*
X215543110Y-43097476D01*
X215773000Y-42976155D01*
X215773000Y-41783000D01*
X215753000Y-41783000D01*
X215753000Y-41529000D01*
X215773000Y-41529000D01*
X215773000Y-41509000D01*
X216027000Y-41509000D01*
X216027000Y-41529000D01*
G36*
X208407000Y-38989000D02*
G01*
X208427000Y-38989000D01*
X208427000Y-39243000D01*
X208407000Y-39243000D01*
X208407000Y-39263000D01*
X208153000Y-39263000D01*
X208153000Y-39243000D01*
X208133000Y-39243000D01*
X208133000Y-38989000D01*
X208153000Y-38989000D01*
X208153000Y-38969000D01*
X208407000Y-38969000D01*
X208407000Y-38989000D01*
G37*
X208407000Y-38989000D02*
X208427000Y-38989000D01*
X208427000Y-39243000D01*
X208407000Y-39243000D01*
X208407000Y-39263000D01*
X208153000Y-39263000D01*
X208153000Y-39243000D01*
X208133000Y-39243000D01*
X208133000Y-38989000D01*
X208153000Y-38989000D01*
X208153000Y-38969000D01*
X208407000Y-38969000D01*
X208407000Y-38989000D01*
G36*
X200787000Y-38989000D02*
G01*
X200807000Y-38989000D01*
X200807000Y-39243000D01*
X200787000Y-39243000D01*
X200787000Y-39263000D01*
X200533000Y-39263000D01*
X200533000Y-39243000D01*
X200513000Y-39243000D01*
X200513000Y-38989000D01*
X200533000Y-38989000D01*
X200533000Y-38969000D01*
X200787000Y-38969000D01*
X200787000Y-38989000D01*
G37*
X200787000Y-38989000D02*
X200807000Y-38989000D01*
X200807000Y-39243000D01*
X200787000Y-39243000D01*
X200787000Y-39263000D01*
X200533000Y-39263000D01*
X200533000Y-39243000D01*
X200513000Y-39243000D01*
X200513000Y-38989000D01*
X200533000Y-38989000D01*
X200533000Y-38969000D01*
X200787000Y-38969000D01*
X200787000Y-38989000D01*
G36*
X190627000Y-38989000D02*
G01*
X190647000Y-38989000D01*
X190647000Y-39243000D01*
X190627000Y-39243000D01*
X190627000Y-39263000D01*
X190373000Y-39263000D01*
X190373000Y-39243000D01*
X190353000Y-39243000D01*
X190353000Y-38989000D01*
X190373000Y-38989000D01*
X190373000Y-38969000D01*
X190627000Y-38969000D01*
X190627000Y-38989000D01*
G37*
X190627000Y-38989000D02*
X190647000Y-38989000D01*
X190647000Y-39243000D01*
X190627000Y-39243000D01*
X190627000Y-39263000D01*
X190373000Y-39263000D01*
X190373000Y-39243000D01*
X190353000Y-39243000D01*
X190353000Y-38989000D01*
X190373000Y-38989000D01*
X190373000Y-38969000D01*
X190627000Y-38969000D01*
X190627000Y-38989000D01*
M02*
