G04 #@! TF.GenerationSoftware,KiCad,Pcbnew,(5.1.5)-3*
G04 #@! TF.CreationDate,2020-02-26T18:40:07+01:00*
G04 #@! TF.ProjectId,minirpi2,6d696e69-7270-4693-922e-6b696361645f,rev?*
G04 #@! TF.SameCoordinates,Original*
G04 #@! TF.FileFunction,Legend,Bot*
G04 #@! TF.FilePolarity,Positive*
%FSLAX46Y46*%
G04 Gerber Fmt 4.6, Leading zero omitted, Abs format (unit mm)*
G04 Created by KiCad (PCBNEW (5.1.5)-3) date 2020-02-26 18:40:07*
%MOMM*%
%LPD*%
G04 APERTURE LIST*
%ADD10C,0.150000*%
%ADD11C,0.010000*%
%ADD12C,0.120000*%
G04 APERTURE END LIST*
D10*
X180316190Y-71636380D02*
X180268571Y-71588761D01*
X180220952Y-71493523D01*
X180220952Y-71398285D01*
X180268571Y-71303047D01*
X180316190Y-71255428D01*
X180411428Y-71207809D01*
X180506666Y-71207809D01*
X180601904Y-71255428D01*
X180649523Y-71303047D01*
X180697142Y-71398285D01*
X180697142Y-71493523D01*
X180649523Y-71588761D01*
X180601904Y-71636380D01*
X180220952Y-71636380D02*
X180601904Y-71636380D01*
X180649523Y-71684000D01*
X180649523Y-71731619D01*
X180601904Y-71826857D01*
X180506666Y-71874476D01*
X180268571Y-71874476D01*
X180125714Y-71779238D01*
X180030476Y-71636380D01*
X179982857Y-71445904D01*
X180030476Y-71255428D01*
X180125714Y-71112571D01*
X180268571Y-71017333D01*
X180459047Y-70969714D01*
X180649523Y-71017333D01*
X180792380Y-71112571D01*
X180887619Y-71255428D01*
X180935238Y-71445904D01*
X180887619Y-71636380D01*
X180792380Y-71779238D01*
X180125714Y-72303047D02*
X181125714Y-72303047D01*
X180173333Y-72303047D02*
X180125714Y-72398285D01*
X180125714Y-72588761D01*
X180173333Y-72684000D01*
X180220952Y-72731619D01*
X180316190Y-72779238D01*
X180601904Y-72779238D01*
X180697142Y-72731619D01*
X180744761Y-72684000D01*
X180792380Y-72588761D01*
X180792380Y-72398285D01*
X180744761Y-72303047D01*
X180125714Y-73112571D02*
X180792380Y-73303047D01*
X180316190Y-73493523D01*
X180792380Y-73684000D01*
X180125714Y-73874476D01*
X180792380Y-74684000D02*
X180268571Y-74684000D01*
X180173333Y-74636380D01*
X180125714Y-74541142D01*
X180125714Y-74350666D01*
X180173333Y-74255428D01*
X180744761Y-74684000D02*
X180792380Y-74588761D01*
X180792380Y-74350666D01*
X180744761Y-74255428D01*
X180649523Y-74207809D01*
X180554285Y-74207809D01*
X180459047Y-74255428D01*
X180411428Y-74350666D01*
X180411428Y-74588761D01*
X180363809Y-74684000D01*
X180125714Y-75064952D02*
X180792380Y-75303047D01*
X180125714Y-75541142D01*
X180792380Y-75922095D02*
X180125714Y-75922095D01*
X180316190Y-75922095D02*
X180220952Y-75969714D01*
X180173333Y-76017333D01*
X180125714Y-76112571D01*
X180125714Y-76207809D01*
X180792380Y-76684000D02*
X180744761Y-76588761D01*
X180697142Y-76541142D01*
X180601904Y-76493523D01*
X180316190Y-76493523D01*
X180220952Y-76541142D01*
X180173333Y-76588761D01*
X180125714Y-76684000D01*
X180125714Y-76826857D01*
X180173333Y-76922095D01*
X180220952Y-76969714D01*
X180316190Y-77017333D01*
X180601904Y-77017333D01*
X180697142Y-76969714D01*
X180744761Y-76922095D01*
X180792380Y-76826857D01*
X180792380Y-76684000D01*
X180792380Y-77445904D02*
X179792380Y-77445904D01*
X180173333Y-77445904D02*
X180125714Y-77541142D01*
X180125714Y-77731619D01*
X180173333Y-77826857D01*
X180220952Y-77874476D01*
X180316190Y-77922095D01*
X180601904Y-77922095D01*
X180697142Y-77874476D01*
X180744761Y-77826857D01*
X180792380Y-77731619D01*
X180792380Y-77541142D01*
X180744761Y-77445904D01*
X180792380Y-78493523D02*
X180744761Y-78398285D01*
X180697142Y-78350666D01*
X180601904Y-78303047D01*
X180316190Y-78303047D01*
X180220952Y-78350666D01*
X180173333Y-78398285D01*
X180125714Y-78493523D01*
X180125714Y-78636380D01*
X180173333Y-78731619D01*
X180220952Y-78779238D01*
X180316190Y-78826857D01*
X180601904Y-78826857D01*
X180697142Y-78779238D01*
X180744761Y-78731619D01*
X180792380Y-78636380D01*
X180792380Y-78493523D01*
X180125714Y-79112571D02*
X180125714Y-79493523D01*
X179792380Y-79255428D02*
X180649523Y-79255428D01*
X180744761Y-79303047D01*
X180792380Y-79398285D01*
X180792380Y-79493523D01*
X197531809Y-75128380D02*
X197531809Y-74128380D01*
X197293714Y-74128380D01*
X197150857Y-74176000D01*
X197055619Y-74271238D01*
X197008000Y-74366476D01*
X196960380Y-74556952D01*
X196960380Y-74699809D01*
X197008000Y-74890285D01*
X197055619Y-74985523D01*
X197150857Y-75080761D01*
X197293714Y-75128380D01*
X197531809Y-75128380D01*
X196531809Y-75128380D02*
X196531809Y-74461714D01*
X196531809Y-74652190D02*
X196484190Y-74556952D01*
X196436571Y-74509333D01*
X196341333Y-74461714D01*
X196246095Y-74461714D01*
X194579428Y-75033142D02*
X194627047Y-75080761D01*
X194769904Y-75128380D01*
X194865142Y-75128380D01*
X195008000Y-75080761D01*
X195103238Y-74985523D01*
X195150857Y-74890285D01*
X195198476Y-74699809D01*
X195198476Y-74556952D01*
X195150857Y-74366476D01*
X195103238Y-74271238D01*
X195008000Y-74176000D01*
X194865142Y-74128380D01*
X194769904Y-74128380D01*
X194627047Y-74176000D01*
X194579428Y-74223619D01*
X194198476Y-74842666D02*
X193722285Y-74842666D01*
X194293714Y-75128380D02*
X193960380Y-74128380D01*
X193627047Y-75128380D01*
X193293714Y-75128380D02*
X193293714Y-74128380D01*
X193055619Y-74128380D01*
X192912761Y-74176000D01*
X192817523Y-74271238D01*
X192769904Y-74366476D01*
X192722285Y-74556952D01*
X192722285Y-74699809D01*
X192769904Y-74890285D01*
X192817523Y-74985523D01*
X192912761Y-75080761D01*
X193055619Y-75128380D01*
X193293714Y-75128380D01*
X192293714Y-75128380D02*
X192293714Y-74128380D01*
X191246095Y-75033142D02*
X191293714Y-75080761D01*
X191436571Y-75128380D01*
X191531809Y-75128380D01*
X191674666Y-75080761D01*
X191769904Y-74985523D01*
X191817523Y-74890285D01*
X191865142Y-74699809D01*
X191865142Y-74556952D01*
X191817523Y-74366476D01*
X191769904Y-74271238D01*
X191674666Y-74176000D01*
X191531809Y-74128380D01*
X191436571Y-74128380D01*
X191293714Y-74176000D01*
X191246095Y-74223619D01*
X190055619Y-75128380D02*
X190055619Y-74128380D01*
X189674666Y-74128380D01*
X189579428Y-74176000D01*
X189531809Y-74223619D01*
X189484190Y-74318857D01*
X189484190Y-74461714D01*
X189531809Y-74556952D01*
X189579428Y-74604571D01*
X189674666Y-74652190D01*
X190055619Y-74652190D01*
X189055619Y-75128380D02*
X189055619Y-74128380D01*
X188627047Y-75128380D02*
X188627047Y-74604571D01*
X188674666Y-74509333D01*
X188769904Y-74461714D01*
X188912761Y-74461714D01*
X189008000Y-74509333D01*
X189055619Y-74556952D01*
X188150857Y-75128380D02*
X188150857Y-74461714D01*
X188150857Y-74128380D02*
X188198476Y-74176000D01*
X188150857Y-74223619D01*
X188103238Y-74176000D01*
X188150857Y-74128380D01*
X188150857Y-74223619D01*
X187531809Y-75128380D02*
X187627047Y-75080761D01*
X187674666Y-74985523D01*
X187674666Y-74128380D01*
X187150857Y-75128380D02*
X187150857Y-74461714D01*
X187150857Y-74128380D02*
X187198476Y-74176000D01*
X187150857Y-74223619D01*
X187103238Y-74176000D01*
X187150857Y-74128380D01*
X187150857Y-74223619D01*
X186674666Y-74461714D02*
X186674666Y-75461714D01*
X186674666Y-74509333D02*
X186579428Y-74461714D01*
X186388952Y-74461714D01*
X186293714Y-74509333D01*
X186246095Y-74556952D01*
X186198476Y-74652190D01*
X186198476Y-74937904D01*
X186246095Y-75033142D01*
X186293714Y-75080761D01*
X186388952Y-75128380D01*
X186579428Y-75128380D01*
X186674666Y-75080761D01*
X185769904Y-74461714D02*
X185769904Y-75461714D01*
X185769904Y-74509333D02*
X185674666Y-74461714D01*
X185484190Y-74461714D01*
X185388952Y-74509333D01*
X185341333Y-74556952D01*
X185293714Y-74652190D01*
X185293714Y-74937904D01*
X185341333Y-75033142D01*
X185388952Y-75080761D01*
X185484190Y-75128380D01*
X185674666Y-75128380D01*
X185769904Y-75080761D01*
X184484190Y-75080761D02*
X184579428Y-75128380D01*
X184769904Y-75128380D01*
X184865142Y-75080761D01*
X184912761Y-74985523D01*
X184912761Y-74604571D01*
X184865142Y-74509333D01*
X184769904Y-74461714D01*
X184579428Y-74461714D01*
X184484190Y-74509333D01*
X184436571Y-74604571D01*
X184436571Y-74699809D01*
X184912761Y-74795047D01*
D11*
G36*
X184265157Y-55962410D02*
G01*
X184037041Y-56153781D01*
X183916589Y-56342386D01*
X183910145Y-56414375D01*
X184003745Y-56364018D01*
X184164854Y-56206202D01*
X184312633Y-56061409D01*
X184453462Y-55994802D01*
X184653423Y-55986513D01*
X184842188Y-56002562D01*
X185086591Y-56025004D01*
X185176241Y-56024288D01*
X185124572Y-55996928D01*
X185009012Y-55959276D01*
X184597252Y-55890435D01*
X184265157Y-55962410D01*
G37*
X184265157Y-55962410D02*
X184037041Y-56153781D01*
X183916589Y-56342386D01*
X183910145Y-56414375D01*
X184003745Y-56364018D01*
X184164854Y-56206202D01*
X184312633Y-56061409D01*
X184453462Y-55994802D01*
X184653423Y-55986513D01*
X184842188Y-56002562D01*
X185086591Y-56025004D01*
X185176241Y-56024288D01*
X185124572Y-55996928D01*
X185009012Y-55959276D01*
X184597252Y-55890435D01*
X184265157Y-55962410D01*
G36*
X189322455Y-56732185D02*
G01*
X189314666Y-56745596D01*
X189386577Y-56797419D01*
X189505166Y-56812581D01*
X189825835Y-56885298D01*
X190100283Y-57071420D01*
X190221916Y-57236335D01*
X190298045Y-57376958D01*
X190325349Y-57371054D01*
X190329418Y-57259131D01*
X190252985Y-57025812D01*
X190045371Y-56837933D01*
X189744025Y-56725512D01*
X189646182Y-56711473D01*
X189437453Y-56706330D01*
X189322455Y-56732185D01*
G37*
X189322455Y-56732185D02*
X189314666Y-56745596D01*
X189386577Y-56797419D01*
X189505166Y-56812581D01*
X189825835Y-56885298D01*
X190100283Y-57071420D01*
X190221916Y-57236335D01*
X190298045Y-57376958D01*
X190325349Y-57371054D01*
X190329418Y-57259131D01*
X190252985Y-57025812D01*
X190045371Y-56837933D01*
X189744025Y-56725512D01*
X189646182Y-56711473D01*
X189437453Y-56706330D01*
X189322455Y-56732185D01*
G36*
X184460622Y-56267506D02*
G01*
X184369474Y-56412976D01*
X184308946Y-56662966D01*
X184291442Y-56983778D01*
X184374977Y-57688436D01*
X184583183Y-58344201D01*
X184901939Y-58916101D01*
X185219903Y-59283046D01*
X185670973Y-59603506D01*
X186225278Y-59837056D01*
X186835910Y-59975084D01*
X187455957Y-60008975D01*
X188038511Y-59930116D01*
X188295745Y-59847831D01*
X188771513Y-59581477D01*
X189224066Y-59187245D01*
X189506187Y-58844989D01*
X189314666Y-58844989D01*
X189251386Y-58946146D01*
X189089758Y-59105806D01*
X188872102Y-59288204D01*
X188640740Y-59457573D01*
X188460388Y-59566936D01*
X187932809Y-59751014D01*
X187327252Y-59810506D01*
X186680703Y-59745154D01*
X186105220Y-59583432D01*
X185836062Y-59454317D01*
X185558610Y-59273850D01*
X185303181Y-59069140D01*
X185100090Y-58867296D01*
X184979657Y-58695429D01*
X184972197Y-58580649D01*
X184977293Y-58574840D01*
X185130044Y-58507700D01*
X185401275Y-58461857D01*
X185741160Y-58439972D01*
X186099874Y-58444701D01*
X186427594Y-58478703D01*
X186504738Y-58493341D01*
X186832550Y-58541973D01*
X187134233Y-58525184D01*
X187428186Y-58461067D01*
X187773227Y-58395578D01*
X188089537Y-58376754D01*
X188211736Y-58387673D01*
X188458308Y-58448812D01*
X188738215Y-58543353D01*
X189004816Y-58651958D01*
X189211473Y-58755289D01*
X189311546Y-58834008D01*
X189314666Y-58844989D01*
X189506187Y-58844989D01*
X189620500Y-58706311D01*
X189927911Y-58179853D01*
X190113395Y-57649049D01*
X190125659Y-57584789D01*
X189902328Y-57584789D01*
X189849601Y-57839946D01*
X189805658Y-57969489D01*
X189733107Y-58128031D01*
X189633021Y-58217865D01*
X189469796Y-58246462D01*
X189207826Y-58221294D01*
X188881723Y-58163362D01*
X188557338Y-58104867D01*
X188248174Y-58054837D01*
X188126853Y-58037714D01*
X187866477Y-57997827D01*
X187537758Y-57939158D01*
X187364853Y-57905368D01*
X187040529Y-57844308D01*
X186732281Y-57793876D01*
X186605333Y-57776685D01*
X186333553Y-57735718D01*
X186097333Y-57686114D01*
X185920864Y-57646823D01*
X185838254Y-57638749D01*
X185737599Y-57629765D01*
X185514930Y-57598216D01*
X185215066Y-57550537D01*
X185160921Y-57541506D01*
X184531000Y-57435736D01*
X184505409Y-56996535D01*
X184479817Y-56557333D01*
X184766464Y-56557333D01*
X184977059Y-56572457D01*
X185104307Y-56609270D01*
X185109077Y-56613300D01*
X185227619Y-56660153D01*
X185398355Y-56685552D01*
X185600537Y-56708213D01*
X185902468Y-56751652D01*
X186224333Y-56804037D01*
X186560179Y-56861269D01*
X186861167Y-56911390D01*
X187054214Y-56942308D01*
X187266546Y-56976431D01*
X187569912Y-57027308D01*
X187816214Y-57069647D01*
X188152261Y-57126458D01*
X188468504Y-57177247D01*
X188637333Y-57202521D01*
X188875630Y-57244553D01*
X189052697Y-57290239D01*
X189060666Y-57293193D01*
X189157203Y-57324362D01*
X189285581Y-57347379D01*
X189496796Y-57369639D01*
X189716833Y-57388370D01*
X189859207Y-57441687D01*
X189902328Y-57584789D01*
X190125659Y-57584789D01*
X190132427Y-57549328D01*
X190151771Y-57462568D01*
X190168028Y-57392553D01*
X190165564Y-57334874D01*
X190128748Y-57285122D01*
X190041945Y-57238887D01*
X189889523Y-57191760D01*
X189655848Y-57139333D01*
X189325287Y-57077194D01*
X188882208Y-57000935D01*
X188310976Y-56906148D01*
X187595960Y-56788421D01*
X187206200Y-56723980D01*
X186565923Y-56616970D01*
X185979740Y-56517314D01*
X185468459Y-56428684D01*
X185052889Y-56354751D01*
X184753840Y-56299185D01*
X184592120Y-56265657D01*
X184569960Y-56258915D01*
X184460622Y-56267506D01*
G37*
X184460622Y-56267506D02*
X184369474Y-56412976D01*
X184308946Y-56662966D01*
X184291442Y-56983778D01*
X184374977Y-57688436D01*
X184583183Y-58344201D01*
X184901939Y-58916101D01*
X185219903Y-59283046D01*
X185670973Y-59603506D01*
X186225278Y-59837056D01*
X186835910Y-59975084D01*
X187455957Y-60008975D01*
X188038511Y-59930116D01*
X188295745Y-59847831D01*
X188771513Y-59581477D01*
X189224066Y-59187245D01*
X189506187Y-58844989D01*
X189314666Y-58844989D01*
X189251386Y-58946146D01*
X189089758Y-59105806D01*
X188872102Y-59288204D01*
X188640740Y-59457573D01*
X188460388Y-59566936D01*
X187932809Y-59751014D01*
X187327252Y-59810506D01*
X186680703Y-59745154D01*
X186105220Y-59583432D01*
X185836062Y-59454317D01*
X185558610Y-59273850D01*
X185303181Y-59069140D01*
X185100090Y-58867296D01*
X184979657Y-58695429D01*
X184972197Y-58580649D01*
X184977293Y-58574840D01*
X185130044Y-58507700D01*
X185401275Y-58461857D01*
X185741160Y-58439972D01*
X186099874Y-58444701D01*
X186427594Y-58478703D01*
X186504738Y-58493341D01*
X186832550Y-58541973D01*
X187134233Y-58525184D01*
X187428186Y-58461067D01*
X187773227Y-58395578D01*
X188089537Y-58376754D01*
X188211736Y-58387673D01*
X188458308Y-58448812D01*
X188738215Y-58543353D01*
X189004816Y-58651958D01*
X189211473Y-58755289D01*
X189311546Y-58834008D01*
X189314666Y-58844989D01*
X189506187Y-58844989D01*
X189620500Y-58706311D01*
X189927911Y-58179853D01*
X190113395Y-57649049D01*
X190125659Y-57584789D01*
X189902328Y-57584789D01*
X189849601Y-57839946D01*
X189805658Y-57969489D01*
X189733107Y-58128031D01*
X189633021Y-58217865D01*
X189469796Y-58246462D01*
X189207826Y-58221294D01*
X188881723Y-58163362D01*
X188557338Y-58104867D01*
X188248174Y-58054837D01*
X188126853Y-58037714D01*
X187866477Y-57997827D01*
X187537758Y-57939158D01*
X187364853Y-57905368D01*
X187040529Y-57844308D01*
X186732281Y-57793876D01*
X186605333Y-57776685D01*
X186333553Y-57735718D01*
X186097333Y-57686114D01*
X185920864Y-57646823D01*
X185838254Y-57638749D01*
X185737599Y-57629765D01*
X185514930Y-57598216D01*
X185215066Y-57550537D01*
X185160921Y-57541506D01*
X184531000Y-57435736D01*
X184505409Y-56996535D01*
X184479817Y-56557333D01*
X184766464Y-56557333D01*
X184977059Y-56572457D01*
X185104307Y-56609270D01*
X185109077Y-56613300D01*
X185227619Y-56660153D01*
X185398355Y-56685552D01*
X185600537Y-56708213D01*
X185902468Y-56751652D01*
X186224333Y-56804037D01*
X186560179Y-56861269D01*
X186861167Y-56911390D01*
X187054214Y-56942308D01*
X187266546Y-56976431D01*
X187569912Y-57027308D01*
X187816214Y-57069647D01*
X188152261Y-57126458D01*
X188468504Y-57177247D01*
X188637333Y-57202521D01*
X188875630Y-57244553D01*
X189052697Y-57290239D01*
X189060666Y-57293193D01*
X189157203Y-57324362D01*
X189285581Y-57347379D01*
X189496796Y-57369639D01*
X189716833Y-57388370D01*
X189859207Y-57441687D01*
X189902328Y-57584789D01*
X190125659Y-57584789D01*
X190132427Y-57549328D01*
X190151771Y-57462568D01*
X190168028Y-57392553D01*
X190165564Y-57334874D01*
X190128748Y-57285122D01*
X190041945Y-57238887D01*
X189889523Y-57191760D01*
X189655848Y-57139333D01*
X189325287Y-57077194D01*
X188882208Y-57000935D01*
X188310976Y-56906148D01*
X187595960Y-56788421D01*
X187206200Y-56723980D01*
X186565923Y-56616970D01*
X185979740Y-56517314D01*
X185468459Y-56428684D01*
X185052889Y-56354751D01*
X184753840Y-56299185D01*
X184592120Y-56265657D01*
X184569960Y-56258915D01*
X184460622Y-56267506D01*
G36*
X186182000Y-60223539D02*
G01*
X186501070Y-60352432D01*
X186829279Y-60402933D01*
X187070615Y-60370731D01*
X187129550Y-60328766D01*
X187044265Y-60292962D01*
X186816615Y-60259378D01*
X186520901Y-60219417D01*
X186262597Y-60174883D01*
X186182000Y-60157075D01*
X185970333Y-60103599D01*
X186182000Y-60223539D01*
G37*
X186182000Y-60223539D02*
X186501070Y-60352432D01*
X186829279Y-60402933D01*
X187070615Y-60370731D01*
X187129550Y-60328766D01*
X187044265Y-60292962D01*
X186816615Y-60259378D01*
X186520901Y-60219417D01*
X186262597Y-60174883D01*
X186182000Y-60157075D01*
X185970333Y-60103599D01*
X186182000Y-60223539D01*
G36*
X185845793Y-53912429D02*
G01*
X185843333Y-53932667D01*
X185907762Y-54014873D01*
X185928000Y-54017333D01*
X186010206Y-53952904D01*
X186012666Y-53932667D01*
X185948237Y-53850460D01*
X185928000Y-53848000D01*
X185845793Y-53912429D01*
G37*
X185845793Y-53912429D02*
X185843333Y-53932667D01*
X185907762Y-54014873D01*
X185928000Y-54017333D01*
X186010206Y-53952904D01*
X186012666Y-53932667D01*
X185948237Y-53850460D01*
X185928000Y-53848000D01*
X185845793Y-53912429D01*
G36*
X189074995Y-53893717D02*
G01*
X189060666Y-53932667D01*
X189129243Y-54007781D01*
X189187666Y-54017333D01*
X189300338Y-53971616D01*
X189314666Y-53932667D01*
X189246090Y-53857552D01*
X189187666Y-53848000D01*
X189074995Y-53893717D01*
G37*
X189074995Y-53893717D02*
X189060666Y-53932667D01*
X189129243Y-54007781D01*
X189187666Y-54017333D01*
X189300338Y-53971616D01*
X189314666Y-53932667D01*
X189246090Y-53857552D01*
X189187666Y-53848000D01*
X189074995Y-53893717D01*
G36*
X185096257Y-53834291D02*
G01*
X185081333Y-53932667D01*
X185126010Y-54076737D01*
X185225419Y-54088070D01*
X185293000Y-54017333D01*
X185303410Y-53877229D01*
X185210718Y-53773533D01*
X185161003Y-53763333D01*
X185096257Y-53834291D01*
G37*
X185096257Y-53834291D02*
X185081333Y-53932667D01*
X185126010Y-54076737D01*
X185225419Y-54088070D01*
X185293000Y-54017333D01*
X185303410Y-53877229D01*
X185210718Y-53773533D01*
X185161003Y-53763333D01*
X185096257Y-53834291D01*
G36*
X186197876Y-53834246D02*
G01*
X186182000Y-53932667D01*
X186217456Y-54070247D01*
X186266666Y-54102000D01*
X186335457Y-54031087D01*
X186351333Y-53932667D01*
X186315877Y-53795086D01*
X186266666Y-53763333D01*
X186197876Y-53834246D01*
G37*
X186197876Y-53834246D02*
X186182000Y-53932667D01*
X186217456Y-54070247D01*
X186266666Y-54102000D01*
X186335457Y-54031087D01*
X186351333Y-53932667D01*
X186315877Y-53795086D01*
X186266666Y-53763333D01*
X186197876Y-53834246D01*
G36*
X187983572Y-53833919D02*
G01*
X187960000Y-53932667D01*
X188012939Y-54070571D01*
X188087000Y-54102000D01*
X188190428Y-54031414D01*
X188214000Y-53932667D01*
X188161060Y-53794762D01*
X188087000Y-53763333D01*
X187983572Y-53833919D01*
G37*
X187983572Y-53833919D02*
X187960000Y-53932667D01*
X188012939Y-54070571D01*
X188087000Y-54102000D01*
X188190428Y-54031414D01*
X188214000Y-53932667D01*
X188161060Y-53794762D01*
X188087000Y-53763333D01*
X187983572Y-53833919D01*
G36*
X188737876Y-53834246D02*
G01*
X188722000Y-53932667D01*
X188757456Y-54070247D01*
X188806666Y-54102000D01*
X188875457Y-54031087D01*
X188891333Y-53932667D01*
X188855877Y-53795086D01*
X188806666Y-53763333D01*
X188737876Y-53834246D01*
G37*
X188737876Y-53834246D02*
X188722000Y-53932667D01*
X188757456Y-54070247D01*
X188806666Y-54102000D01*
X188875457Y-54031087D01*
X188891333Y-53932667D01*
X188855877Y-53795086D01*
X188806666Y-53763333D01*
X188737876Y-53834246D01*
G36*
X185485523Y-53801884D02*
G01*
X185462333Y-53932667D01*
X185502245Y-54100239D01*
X185568166Y-54165500D01*
X185648455Y-54121442D01*
X185674000Y-53932667D01*
X185646044Y-53738588D01*
X185568166Y-53699833D01*
X185485523Y-53801884D01*
G37*
X185485523Y-53801884D02*
X185462333Y-53932667D01*
X185502245Y-54100239D01*
X185568166Y-54165500D01*
X185648455Y-54121442D01*
X185674000Y-53932667D01*
X185646044Y-53738588D01*
X185568166Y-53699833D01*
X185485523Y-53801884D01*
G36*
X186546840Y-53754395D02*
G01*
X186520666Y-53932667D01*
X186558531Y-54134319D01*
X186647666Y-54186667D01*
X186748493Y-54110938D01*
X186774666Y-53932667D01*
X186736802Y-53731014D01*
X186647666Y-53678667D01*
X186546840Y-53754395D01*
G37*
X186546840Y-53754395D02*
X186520666Y-53932667D01*
X186558531Y-54134319D01*
X186647666Y-54186667D01*
X186748493Y-54110938D01*
X186774666Y-53932667D01*
X186736802Y-53731014D01*
X186647666Y-53678667D01*
X186546840Y-53754395D01*
G36*
X188454835Y-53612499D02*
G01*
X188382630Y-53706166D01*
X188350964Y-53878354D01*
X188360831Y-54057990D01*
X188413219Y-54174001D01*
X188446833Y-54186673D01*
X188522535Y-54109242D01*
X188552568Y-53898971D01*
X188552666Y-53883278D01*
X188529002Y-53674145D01*
X188462442Y-53610544D01*
X188454835Y-53612499D01*
G37*
X188454835Y-53612499D02*
X188382630Y-53706166D01*
X188350964Y-53878354D01*
X188360831Y-54057990D01*
X188413219Y-54174001D01*
X188446833Y-54186673D01*
X188522535Y-54109242D01*
X188552568Y-53898971D01*
X188552666Y-53883278D01*
X188529002Y-53674145D01*
X188462442Y-53610544D01*
X188454835Y-53612499D01*
G36*
X186906468Y-53554653D02*
G01*
X186867460Y-53711560D01*
X186859333Y-53932667D01*
X186872929Y-54198885D01*
X186920001Y-54328911D01*
X186986333Y-54356000D01*
X187066199Y-54310680D01*
X187105206Y-54153773D01*
X187113333Y-53932667D01*
X187099737Y-53666448D01*
X187052665Y-53536422D01*
X186986333Y-53509333D01*
X186906468Y-53554653D01*
G37*
X186906468Y-53554653D02*
X186867460Y-53711560D01*
X186859333Y-53932667D01*
X186872929Y-54198885D01*
X186920001Y-54328911D01*
X186986333Y-54356000D01*
X187066199Y-54310680D01*
X187105206Y-54153773D01*
X187113333Y-53932667D01*
X187099737Y-53666448D01*
X187052665Y-53536422D01*
X186986333Y-53509333D01*
X186906468Y-53554653D01*
G36*
X187657702Y-53585480D02*
G01*
X187627047Y-53780175D01*
X187621333Y-53932667D01*
X187636563Y-54174154D01*
X187675502Y-54327431D01*
X187706000Y-54356000D01*
X187754297Y-54279853D01*
X187784953Y-54085158D01*
X187790666Y-53932667D01*
X187775437Y-53691179D01*
X187736498Y-53537902D01*
X187706000Y-53509333D01*
X187657702Y-53585480D01*
G37*
X187657702Y-53585480D02*
X187627047Y-53780175D01*
X187621333Y-53932667D01*
X187636563Y-54174154D01*
X187675502Y-54327431D01*
X187706000Y-54356000D01*
X187754297Y-54279853D01*
X187784953Y-54085158D01*
X187790666Y-53932667D01*
X187775437Y-53691179D01*
X187736498Y-53537902D01*
X187706000Y-53509333D01*
X187657702Y-53585480D01*
G36*
X187325404Y-53334549D02*
G01*
X187295940Y-53550819D01*
X187282949Y-53872074D01*
X187282666Y-53932667D01*
X187292569Y-54268099D01*
X187319602Y-54503813D01*
X187359759Y-54607742D01*
X187367333Y-54610000D01*
X187409262Y-54530784D01*
X187438727Y-54314514D01*
X187451718Y-53993259D01*
X187452000Y-53932667D01*
X187442098Y-53597234D01*
X187415064Y-53361520D01*
X187374907Y-53257591D01*
X187367333Y-53255333D01*
X187325404Y-53334549D01*
G37*
X187325404Y-53334549D02*
X187295940Y-53550819D01*
X187282949Y-53872074D01*
X187282666Y-53932667D01*
X187292569Y-54268099D01*
X187319602Y-54503813D01*
X187359759Y-54607742D01*
X187367333Y-54610000D01*
X187409262Y-54530784D01*
X187438727Y-54314514D01*
X187451718Y-53993259D01*
X187452000Y-53932667D01*
X187442098Y-53597234D01*
X187415064Y-53361520D01*
X187374907Y-53257591D01*
X187367333Y-53255333D01*
X187325404Y-53334549D01*
G36*
X192069400Y-55051620D02*
G01*
X191743598Y-55085338D01*
X191474345Y-55136374D01*
X191315280Y-55194274D01*
X191307400Y-55200121D01*
X191239715Y-55302318D01*
X191198840Y-55492468D01*
X191180019Y-55801749D01*
X191177333Y-56052775D01*
X191182774Y-56404308D01*
X191197288Y-56699796D01*
X191218162Y-56891621D01*
X191227166Y-56927345D01*
X191340694Y-57023484D01*
X191569457Y-57098617D01*
X191650499Y-57113217D01*
X192024000Y-57169227D01*
X192024000Y-58166000D01*
X192701333Y-58166000D01*
X192701333Y-56091667D01*
X192024000Y-56091667D01*
X192012037Y-56379249D01*
X191980348Y-56576143D01*
X191939333Y-56642000D01*
X191895090Y-56564242D01*
X191864798Y-56358260D01*
X191854666Y-56091667D01*
X191866629Y-55804084D01*
X191898319Y-55607190D01*
X191939333Y-55541333D01*
X191983577Y-55619091D01*
X192013868Y-55825073D01*
X192024000Y-56091667D01*
X192701333Y-56091667D01*
X192701333Y-55011065D01*
X192069400Y-55051620D01*
G37*
X192069400Y-55051620D02*
X191743598Y-55085338D01*
X191474345Y-55136374D01*
X191315280Y-55194274D01*
X191307400Y-55200121D01*
X191239715Y-55302318D01*
X191198840Y-55492468D01*
X191180019Y-55801749D01*
X191177333Y-56052775D01*
X191182774Y-56404308D01*
X191197288Y-56699796D01*
X191218162Y-56891621D01*
X191227166Y-56927345D01*
X191340694Y-57023484D01*
X191569457Y-57098617D01*
X191650499Y-57113217D01*
X192024000Y-57169227D01*
X192024000Y-58166000D01*
X192701333Y-58166000D01*
X192701333Y-56091667D01*
X192024000Y-56091667D01*
X192012037Y-56379249D01*
X191980348Y-56576143D01*
X191939333Y-56642000D01*
X191895090Y-56564242D01*
X191864798Y-56358260D01*
X191854666Y-56091667D01*
X191866629Y-55804084D01*
X191898319Y-55607190D01*
X191939333Y-55541333D01*
X191983577Y-55619091D01*
X192013868Y-55825073D01*
X192024000Y-56091667D01*
X192701333Y-56091667D01*
X192701333Y-55011065D01*
X192069400Y-55051620D01*
G36*
X193401616Y-55045213D02*
G01*
X193378666Y-55053533D01*
X193367779Y-55150821D01*
X193338222Y-55381517D01*
X193294655Y-55711310D01*
X193241736Y-56105890D01*
X193184124Y-56530946D01*
X193126477Y-56952168D01*
X193073455Y-57335244D01*
X193029715Y-57645864D01*
X192999917Y-57849717D01*
X192993421Y-57890833D01*
X192973131Y-58066216D01*
X193019046Y-58144702D01*
X193173194Y-58165262D01*
X193290163Y-58166000D01*
X193508602Y-58157317D01*
X193606296Y-58103263D01*
X193631801Y-57961826D01*
X193632666Y-57869667D01*
X193663951Y-57643544D01*
X193750608Y-57573333D01*
X193882547Y-57649794D01*
X193959495Y-57853896D01*
X193971333Y-58003591D01*
X194006534Y-58115277D01*
X194141052Y-58160762D01*
X194273759Y-58166000D01*
X194576184Y-58166000D01*
X194515700Y-57679167D01*
X194480477Y-57398731D01*
X194430487Y-57004704D01*
X194425173Y-56963061D01*
X193873871Y-56963061D01*
X193830791Y-57052723D01*
X193780833Y-57065449D01*
X193720188Y-57010326D01*
X193699837Y-56829841D01*
X193710503Y-56578615D01*
X193746005Y-56091667D01*
X193811457Y-56430333D01*
X193866994Y-56764552D01*
X193873871Y-56963061D01*
X194425173Y-56963061D01*
X194372646Y-56551436D01*
X194319107Y-56134000D01*
X194183000Y-55075667D01*
X193780833Y-55049861D01*
X193546591Y-55040384D01*
X193401616Y-55045213D01*
G37*
X193401616Y-55045213D02*
X193378666Y-55053533D01*
X193367779Y-55150821D01*
X193338222Y-55381517D01*
X193294655Y-55711310D01*
X193241736Y-56105890D01*
X193184124Y-56530946D01*
X193126477Y-56952168D01*
X193073455Y-57335244D01*
X193029715Y-57645864D01*
X192999917Y-57849717D01*
X192993421Y-57890833D01*
X192973131Y-58066216D01*
X193019046Y-58144702D01*
X193173194Y-58165262D01*
X193290163Y-58166000D01*
X193508602Y-58157317D01*
X193606296Y-58103263D01*
X193631801Y-57961826D01*
X193632666Y-57869667D01*
X193663951Y-57643544D01*
X193750608Y-57573333D01*
X193882547Y-57649794D01*
X193959495Y-57853896D01*
X193971333Y-58003591D01*
X194006534Y-58115277D01*
X194141052Y-58160762D01*
X194273759Y-58166000D01*
X194576184Y-58166000D01*
X194515700Y-57679167D01*
X194480477Y-57398731D01*
X194430487Y-57004704D01*
X194425173Y-56963061D01*
X193873871Y-56963061D01*
X193830791Y-57052723D01*
X193780833Y-57065449D01*
X193720188Y-57010326D01*
X193699837Y-56829841D01*
X193710503Y-56578615D01*
X193746005Y-56091667D01*
X193811457Y-56430333D01*
X193866994Y-56764552D01*
X193873871Y-56963061D01*
X194425173Y-56963061D01*
X194372646Y-56551436D01*
X194319107Y-56134000D01*
X194183000Y-55075667D01*
X193780833Y-55049861D01*
X193546591Y-55040384D01*
X193401616Y-55045213D01*
G36*
X195220166Y-55049135D02*
G01*
X194945000Y-55075667D01*
X194921923Y-56620833D01*
X194898847Y-58166000D01*
X195556862Y-58166000D01*
X195665426Y-57636833D01*
X195751629Y-57254665D01*
X195819231Y-57040519D01*
X195868694Y-56994161D01*
X195900480Y-57115358D01*
X195915051Y-57403874D01*
X195916092Y-57509833D01*
X195918666Y-58166000D01*
X196426666Y-58166000D01*
X196426666Y-55033333D01*
X196136336Y-55033333D01*
X195972516Y-55041316D01*
X195875745Y-55091717D01*
X195814416Y-55224219D01*
X195756923Y-55478501D01*
X195748564Y-55520167D01*
X195659939Y-55947331D01*
X195595596Y-56211505D01*
X195551608Y-56316664D01*
X195524048Y-56266786D01*
X195508986Y-56065845D01*
X195502969Y-55768802D01*
X195495333Y-55022604D01*
X195220166Y-55049135D01*
G37*
X195220166Y-55049135D02*
X194945000Y-55075667D01*
X194921923Y-56620833D01*
X194898847Y-58166000D01*
X195556862Y-58166000D01*
X195665426Y-57636833D01*
X195751629Y-57254665D01*
X195819231Y-57040519D01*
X195868694Y-56994161D01*
X195900480Y-57115358D01*
X195915051Y-57403874D01*
X195916092Y-57509833D01*
X195918666Y-58166000D01*
X196426666Y-58166000D01*
X196426666Y-55033333D01*
X196136336Y-55033333D01*
X195972516Y-55041316D01*
X195875745Y-55091717D01*
X195814416Y-55224219D01*
X195756923Y-55478501D01*
X195748564Y-55520167D01*
X195659939Y-55947331D01*
X195595596Y-56211505D01*
X195551608Y-56316664D01*
X195524048Y-56266786D01*
X195508986Y-56065845D01*
X195502969Y-55768802D01*
X195495333Y-55022604D01*
X195220166Y-55049135D01*
G36*
X197146124Y-55103983D02*
G01*
X196920039Y-55205777D01*
X196802201Y-55406316D01*
X196765571Y-55730866D01*
X196765333Y-55769182D01*
X196765333Y-56134000D01*
X197104000Y-56134000D01*
X197320836Y-56125029D01*
X197417199Y-56069637D01*
X197441909Y-55925107D01*
X197442666Y-55837667D01*
X197463932Y-55641799D01*
X197516222Y-55543893D01*
X197527333Y-55541333D01*
X197583375Y-55615743D01*
X197611298Y-55798629D01*
X197612000Y-55836604D01*
X197589183Y-56038181D01*
X197493812Y-56184942D01*
X197285505Y-56337970D01*
X197276974Y-56343368D01*
X197010429Y-56539719D01*
X196854290Y-56746950D01*
X196781624Y-57018667D01*
X196765333Y-57361667D01*
X196778702Y-57735541D01*
X196838377Y-57971914D01*
X196973708Y-58101768D01*
X197214045Y-58156083D01*
X197527333Y-58166000D01*
X197849508Y-58158617D01*
X198044394Y-58129723D01*
X198153651Y-58069201D01*
X198201688Y-58002233D01*
X198250869Y-57827716D01*
X198282669Y-57556276D01*
X198289333Y-57362122D01*
X198289333Y-56885778D01*
X197971833Y-56912056D01*
X197771849Y-56939092D01*
X197675788Y-57009939D01*
X197638353Y-57175506D01*
X197628298Y-57298167D01*
X197587916Y-57554598D01*
X197529752Y-57648398D01*
X197474811Y-57581768D01*
X197444099Y-57356908D01*
X197442666Y-57278721D01*
X197454951Y-57036070D01*
X197520101Y-56892845D01*
X197680559Y-56779458D01*
X197778502Y-56728111D01*
X198043822Y-56562426D01*
X198200305Y-56368311D01*
X198273506Y-56097784D01*
X198289333Y-55768933D01*
X198266361Y-55440356D01*
X198177885Y-55233194D01*
X197994560Y-55121429D01*
X197687046Y-55079042D01*
X197507495Y-55075667D01*
X197146124Y-55103983D01*
G37*
X197146124Y-55103983D02*
X196920039Y-55205777D01*
X196802201Y-55406316D01*
X196765571Y-55730866D01*
X196765333Y-55769182D01*
X196765333Y-56134000D01*
X197104000Y-56134000D01*
X197320836Y-56125029D01*
X197417199Y-56069637D01*
X197441909Y-55925107D01*
X197442666Y-55837667D01*
X197463932Y-55641799D01*
X197516222Y-55543893D01*
X197527333Y-55541333D01*
X197583375Y-55615743D01*
X197611298Y-55798629D01*
X197612000Y-55836604D01*
X197589183Y-56038181D01*
X197493812Y-56184942D01*
X197285505Y-56337970D01*
X197276974Y-56343368D01*
X197010429Y-56539719D01*
X196854290Y-56746950D01*
X196781624Y-57018667D01*
X196765333Y-57361667D01*
X196778702Y-57735541D01*
X196838377Y-57971914D01*
X196973708Y-58101768D01*
X197214045Y-58156083D01*
X197527333Y-58166000D01*
X197849508Y-58158617D01*
X198044394Y-58129723D01*
X198153651Y-58069201D01*
X198201688Y-58002233D01*
X198250869Y-57827716D01*
X198282669Y-57556276D01*
X198289333Y-57362122D01*
X198289333Y-56885778D01*
X197971833Y-56912056D01*
X197771849Y-56939092D01*
X197675788Y-57009939D01*
X197638353Y-57175506D01*
X197628298Y-57298167D01*
X197587916Y-57554598D01*
X197529752Y-57648398D01*
X197474811Y-57581768D01*
X197444099Y-57356908D01*
X197442666Y-57278721D01*
X197454951Y-57036070D01*
X197520101Y-56892845D01*
X197680559Y-56779458D01*
X197778502Y-56728111D01*
X198043822Y-56562426D01*
X198200305Y-56368311D01*
X198273506Y-56097784D01*
X198289333Y-55768933D01*
X198266361Y-55440356D01*
X198177885Y-55233194D01*
X197994560Y-55121429D01*
X197687046Y-55079042D01*
X197507495Y-55075667D01*
X197146124Y-55103983D01*
G36*
X191712075Y-58519518D02*
G01*
X191468126Y-58559467D01*
X191363600Y-58606267D01*
X191302254Y-58754912D01*
X191270026Y-59006378D01*
X191266915Y-59296676D01*
X191292921Y-59561817D01*
X191348045Y-59737809D01*
X191363600Y-59757733D01*
X191421605Y-59872947D01*
X191363600Y-59960933D01*
X191308187Y-60100507D01*
X191272187Y-60362884D01*
X191262000Y-60638266D01*
X191262000Y-61214000D01*
X191854666Y-61214000D01*
X191854666Y-60663667D01*
X191866629Y-60376084D01*
X191898319Y-60179190D01*
X191939333Y-60113333D01*
X191983577Y-60191091D01*
X192013868Y-60397073D01*
X192024000Y-60663667D01*
X192026954Y-60959272D01*
X192046960Y-61123890D01*
X192100732Y-61195865D01*
X192204985Y-61213543D01*
X192263889Y-61214000D01*
X192457797Y-61195867D01*
X192560222Y-61157555D01*
X192579752Y-61057431D01*
X192596354Y-60818629D01*
X192608750Y-60471796D01*
X192615662Y-60047579D01*
X192616666Y-59802889D01*
X192616666Y-59385612D01*
X192022245Y-59385612D01*
X191999794Y-59563954D01*
X191967555Y-59633555D01*
X191901787Y-59680738D01*
X191867917Y-59632574D01*
X191855772Y-59459822D01*
X191854666Y-59309000D01*
X191871483Y-59081780D01*
X191914030Y-58945482D01*
X191939333Y-58928000D01*
X191989351Y-59001043D01*
X192017876Y-59175777D01*
X192022245Y-59385612D01*
X192616666Y-59385612D01*
X192616666Y-58504667D01*
X192040933Y-58504667D01*
X191712075Y-58519518D01*
G37*
X191712075Y-58519518D02*
X191468126Y-58559467D01*
X191363600Y-58606267D01*
X191302254Y-58754912D01*
X191270026Y-59006378D01*
X191266915Y-59296676D01*
X191292921Y-59561817D01*
X191348045Y-59737809D01*
X191363600Y-59757733D01*
X191421605Y-59872947D01*
X191363600Y-59960933D01*
X191308187Y-60100507D01*
X191272187Y-60362884D01*
X191262000Y-60638266D01*
X191262000Y-61214000D01*
X191854666Y-61214000D01*
X191854666Y-60663667D01*
X191866629Y-60376084D01*
X191898319Y-60179190D01*
X191939333Y-60113333D01*
X191983577Y-60191091D01*
X192013868Y-60397073D01*
X192024000Y-60663667D01*
X192026954Y-60959272D01*
X192046960Y-61123890D01*
X192100732Y-61195865D01*
X192204985Y-61213543D01*
X192263889Y-61214000D01*
X192457797Y-61195867D01*
X192560222Y-61157555D01*
X192579752Y-61057431D01*
X192596354Y-60818629D01*
X192608750Y-60471796D01*
X192615662Y-60047579D01*
X192616666Y-59802889D01*
X192616666Y-59385612D01*
X192022245Y-59385612D01*
X191999794Y-59563954D01*
X191967555Y-59633555D01*
X191901787Y-59680738D01*
X191867917Y-59632574D01*
X191855772Y-59459822D01*
X191854666Y-59309000D01*
X191871483Y-59081780D01*
X191914030Y-58945482D01*
X191939333Y-58928000D01*
X191989351Y-59001043D01*
X192017876Y-59175777D01*
X192022245Y-59385612D01*
X192616666Y-59385612D01*
X192616666Y-58504667D01*
X192040933Y-58504667D01*
X191712075Y-58519518D01*
G36*
X192870666Y-61214000D02*
G01*
X193463333Y-61214000D01*
X193463333Y-58504667D01*
X192870666Y-58504667D01*
X192870666Y-61214000D01*
G37*
X192870666Y-61214000D02*
X193463333Y-61214000D01*
X193463333Y-58504667D01*
X192870666Y-58504667D01*
X192870666Y-61214000D01*
G36*
X194160230Y-58528782D02*
G01*
X194057480Y-58600688D01*
X194056000Y-58614017D01*
X194045077Y-58751363D01*
X194015810Y-59015710D01*
X193973449Y-59366375D01*
X193923244Y-59762679D01*
X193870446Y-60163940D01*
X193820305Y-60529477D01*
X193778071Y-60818608D01*
X193749719Y-60987130D01*
X193729848Y-61147442D01*
X193789933Y-61205455D01*
X193972925Y-61199895D01*
X193984463Y-61198797D01*
X194181512Y-61159426D01*
X194267406Y-61055078D01*
X194294581Y-60891360D01*
X194345918Y-60694409D01*
X194426495Y-60649149D01*
X194505370Y-60748994D01*
X194548198Y-60945353D01*
X194586549Y-61131661D01*
X194689125Y-61203594D01*
X194848733Y-61214000D01*
X195122737Y-61214000D01*
X194956504Y-59859333D01*
X194948712Y-59795833D01*
X194472649Y-59795833D01*
X194463776Y-60030251D01*
X194433698Y-60175198D01*
X194411668Y-60198000D01*
X194375674Y-60123829D01*
X194370789Y-59939723D01*
X194375471Y-59880500D01*
X194409204Y-59603585D01*
X194438013Y-59489495D01*
X194459659Y-59540181D01*
X194471903Y-59757591D01*
X194472649Y-59795833D01*
X194948712Y-59795833D01*
X194790271Y-58504667D01*
X194423136Y-58504667D01*
X194160230Y-58528782D01*
G37*
X194160230Y-58528782D02*
X194057480Y-58600688D01*
X194056000Y-58614017D01*
X194045077Y-58751363D01*
X194015810Y-59015710D01*
X193973449Y-59366375D01*
X193923244Y-59762679D01*
X193870446Y-60163940D01*
X193820305Y-60529477D01*
X193778071Y-60818608D01*
X193749719Y-60987130D01*
X193729848Y-61147442D01*
X193789933Y-61205455D01*
X193972925Y-61199895D01*
X193984463Y-61198797D01*
X194181512Y-61159426D01*
X194267406Y-61055078D01*
X194294581Y-60891360D01*
X194345918Y-60694409D01*
X194426495Y-60649149D01*
X194505370Y-60748994D01*
X194548198Y-60945353D01*
X194586549Y-61131661D01*
X194689125Y-61203594D01*
X194848733Y-61214000D01*
X195122737Y-61214000D01*
X194956504Y-59859333D01*
X194948712Y-59795833D01*
X194472649Y-59795833D01*
X194463776Y-60030251D01*
X194433698Y-60175198D01*
X194411668Y-60198000D01*
X194375674Y-60123829D01*
X194370789Y-59939723D01*
X194375471Y-59880500D01*
X194409204Y-59603585D01*
X194438013Y-59489495D01*
X194459659Y-59540181D01*
X194471903Y-59757591D01*
X194472649Y-59795833D01*
X194948712Y-59795833D01*
X194790271Y-58504667D01*
X194423136Y-58504667D01*
X194160230Y-58528782D01*
G36*
X196291302Y-58516650D02*
G01*
X196204290Y-58579029D01*
X196143366Y-58731445D01*
X196084710Y-58991500D01*
X196013433Y-59330171D01*
X195968429Y-59506200D01*
X195943147Y-59523066D01*
X195931038Y-59384249D01*
X195925552Y-59093229D01*
X195925351Y-59076167D01*
X195918666Y-58504667D01*
X195410666Y-58504667D01*
X195410666Y-61214000D01*
X195655608Y-61214000D01*
X195811646Y-61198688D01*
X195911907Y-61129355D01*
X195978453Y-60970901D01*
X196033348Y-60688228D01*
X196048625Y-60588783D01*
X196107661Y-60296608D01*
X196166327Y-60170771D01*
X196216243Y-60208464D01*
X196249028Y-60406882D01*
X196257333Y-60658670D01*
X196260966Y-60956159D01*
X196281544Y-61122421D01*
X196333584Y-61195544D01*
X196431603Y-61213617D01*
X196469000Y-61214000D01*
X196680666Y-61214000D01*
X196680666Y-58504667D01*
X196432738Y-58504667D01*
X196291302Y-58516650D01*
G37*
X196291302Y-58516650D02*
X196204290Y-58579029D01*
X196143366Y-58731445D01*
X196084710Y-58991500D01*
X196013433Y-59330171D01*
X195968429Y-59506200D01*
X195943147Y-59523066D01*
X195931038Y-59384249D01*
X195925552Y-59093229D01*
X195925351Y-59076167D01*
X195918666Y-58504667D01*
X195410666Y-58504667D01*
X195410666Y-61214000D01*
X195655608Y-61214000D01*
X195811646Y-61198688D01*
X195911907Y-61129355D01*
X195978453Y-60970901D01*
X196033348Y-60688228D01*
X196048625Y-60588783D01*
X196107661Y-60296608D01*
X196166327Y-60170771D01*
X196216243Y-60208464D01*
X196249028Y-60406882D01*
X196257333Y-60658670D01*
X196260966Y-60956159D01*
X196281544Y-61122421D01*
X196333584Y-61195544D01*
X196431603Y-61213617D01*
X196469000Y-61214000D01*
X196680666Y-61214000D01*
X196680666Y-58504667D01*
X196432738Y-58504667D01*
X196291302Y-58516650D01*
G36*
X197385636Y-58523527D02*
G01*
X197181660Y-58571593D01*
X197120933Y-58606267D01*
X197073030Y-58735742D01*
X197040558Y-59016803D01*
X197023010Y-59455758D01*
X197019333Y-59873288D01*
X197021188Y-60341922D01*
X197029211Y-60669472D01*
X197047094Y-60884168D01*
X197078524Y-61014241D01*
X197127192Y-61087921D01*
X197183100Y-61126354D01*
X197434881Y-61195015D01*
X197756374Y-61199882D01*
X198060420Y-61140924D01*
X198098833Y-61126695D01*
X198174601Y-61089093D01*
X198227049Y-61029017D01*
X198260460Y-60918416D01*
X198279117Y-60729240D01*
X198287302Y-60433438D01*
X198288197Y-60240424D01*
X197770678Y-60240424D01*
X197756685Y-60556455D01*
X197719573Y-60728576D01*
X197657357Y-60768957D01*
X197605993Y-60733860D01*
X197569695Y-60612936D01*
X197547474Y-60359467D01*
X197541775Y-60009840D01*
X197545269Y-59830271D01*
X197568963Y-59395729D01*
X197605425Y-59120555D01*
X197648664Y-59006450D01*
X197692684Y-59055115D01*
X197731494Y-59268251D01*
X197759099Y-59647560D01*
X197763540Y-59768315D01*
X197770678Y-60240424D01*
X198288197Y-60240424D01*
X198289299Y-60002960D01*
X198289333Y-59878995D01*
X198282287Y-59321427D01*
X198260806Y-58926151D01*
X198224373Y-58686697D01*
X198187733Y-58606267D01*
X198048793Y-58547481D01*
X197807828Y-58510796D01*
X197654333Y-58504667D01*
X197385636Y-58523527D01*
G37*
X197385636Y-58523527D02*
X197181660Y-58571593D01*
X197120933Y-58606267D01*
X197073030Y-58735742D01*
X197040558Y-59016803D01*
X197023010Y-59455758D01*
X197019333Y-59873288D01*
X197021188Y-60341922D01*
X197029211Y-60669472D01*
X197047094Y-60884168D01*
X197078524Y-61014241D01*
X197127192Y-61087921D01*
X197183100Y-61126354D01*
X197434881Y-61195015D01*
X197756374Y-61199882D01*
X198060420Y-61140924D01*
X198098833Y-61126695D01*
X198174601Y-61089093D01*
X198227049Y-61029017D01*
X198260460Y-60918416D01*
X198279117Y-60729240D01*
X198287302Y-60433438D01*
X198288197Y-60240424D01*
X197770678Y-60240424D01*
X197756685Y-60556455D01*
X197719573Y-60728576D01*
X197657357Y-60768957D01*
X197605993Y-60733860D01*
X197569695Y-60612936D01*
X197547474Y-60359467D01*
X197541775Y-60009840D01*
X197545269Y-59830271D01*
X197568963Y-59395729D01*
X197605425Y-59120555D01*
X197648664Y-59006450D01*
X197692684Y-59055115D01*
X197731494Y-59268251D01*
X197759099Y-59647560D01*
X197763540Y-59768315D01*
X197770678Y-60240424D01*
X198288197Y-60240424D01*
X198289299Y-60002960D01*
X198289333Y-59878995D01*
X198282287Y-59321427D01*
X198260806Y-58926151D01*
X198224373Y-58686697D01*
X198187733Y-58606267D01*
X198048793Y-58547481D01*
X197807828Y-58510796D01*
X197654333Y-58504667D01*
X197385636Y-58523527D01*
G36*
X191264482Y-61954833D02*
G01*
X191277636Y-62203143D01*
X191314086Y-62364481D01*
X191346666Y-62399333D01*
X191405112Y-62325509D01*
X191431238Y-62146555D01*
X191431333Y-62133915D01*
X191431333Y-61868497D01*
X191616127Y-62103424D01*
X191800921Y-62338352D01*
X191996706Y-62093676D01*
X192192492Y-61849000D01*
X192192913Y-62124167D01*
X192215978Y-62311464D01*
X192271596Y-62398548D01*
X192278000Y-62399333D01*
X192328772Y-62323720D01*
X192358993Y-62132674D01*
X192362666Y-62023330D01*
X192341710Y-61737499D01*
X192275203Y-61613113D01*
X192157689Y-61647098D01*
X191998019Y-61817914D01*
X191789162Y-62084784D01*
X191528063Y-61797559D01*
X191266964Y-61510333D01*
X191264482Y-61954833D01*
G37*
X191264482Y-61954833D02*
X191277636Y-62203143D01*
X191314086Y-62364481D01*
X191346666Y-62399333D01*
X191405112Y-62325509D01*
X191431238Y-62146555D01*
X191431333Y-62133915D01*
X191431333Y-61868497D01*
X191616127Y-62103424D01*
X191800921Y-62338352D01*
X191996706Y-62093676D01*
X192192492Y-61849000D01*
X192192913Y-62124167D01*
X192215978Y-62311464D01*
X192271596Y-62398548D01*
X192278000Y-62399333D01*
X192328772Y-62323720D01*
X192358993Y-62132674D01*
X192362666Y-62023330D01*
X192341710Y-61737499D01*
X192275203Y-61613113D01*
X192157689Y-61647098D01*
X191998019Y-61817914D01*
X191789162Y-62084784D01*
X191528063Y-61797559D01*
X191266964Y-61510333D01*
X191264482Y-61954833D01*
G36*
X192717861Y-61997167D02*
G01*
X192692055Y-62399333D01*
X193726611Y-62399333D01*
X193700805Y-61997167D01*
X193699447Y-61976000D01*
X193548000Y-61976000D01*
X193534626Y-62138867D01*
X193462154Y-62211268D01*
X193282055Y-62229599D01*
X193209333Y-62230000D01*
X192992178Y-62219970D01*
X192895643Y-62165615D01*
X192871201Y-62030541D01*
X192870666Y-61976000D01*
X192884040Y-61813133D01*
X192956513Y-61740732D01*
X193136611Y-61722401D01*
X193209333Y-61722000D01*
X193426489Y-61732030D01*
X193523024Y-61786385D01*
X193547466Y-61921458D01*
X193548000Y-61976000D01*
X193699447Y-61976000D01*
X193675000Y-61595000D01*
X192743666Y-61595000D01*
X192717861Y-61997167D01*
G37*
X192717861Y-61997167D02*
X192692055Y-62399333D01*
X193726611Y-62399333D01*
X193700805Y-61997167D01*
X193699447Y-61976000D01*
X193548000Y-61976000D01*
X193534626Y-62138867D01*
X193462154Y-62211268D01*
X193282055Y-62229599D01*
X193209333Y-62230000D01*
X192992178Y-62219970D01*
X192895643Y-62165615D01*
X192871201Y-62030541D01*
X192870666Y-61976000D01*
X192884040Y-61813133D01*
X192956513Y-61740732D01*
X193136611Y-61722401D01*
X193209333Y-61722000D01*
X193426489Y-61732030D01*
X193523024Y-61786385D01*
X193547466Y-61921458D01*
X193548000Y-61976000D01*
X193699447Y-61976000D01*
X193675000Y-61595000D01*
X192743666Y-61595000D01*
X192717861Y-61997167D01*
G36*
X194178022Y-61623929D02*
G01*
X194062490Y-61729425D01*
X194056000Y-61765946D01*
X194102228Y-61877579D01*
X194140666Y-61891333D01*
X194222873Y-61826904D01*
X194225333Y-61806667D01*
X194299762Y-61750704D01*
X194482777Y-61722731D01*
X194521666Y-61722000D01*
X194720761Y-61736159D01*
X194802422Y-61807979D01*
X194818000Y-61976000D01*
X194801480Y-62146653D01*
X194717690Y-62216647D01*
X194521666Y-62230000D01*
X194325818Y-62207485D01*
X194227900Y-62152120D01*
X194225333Y-62140336D01*
X194173463Y-62089770D01*
X194140666Y-62103000D01*
X194062762Y-62225502D01*
X194056000Y-62277330D01*
X194102609Y-62351469D01*
X194261826Y-62389588D01*
X194526305Y-62399333D01*
X194996611Y-62399333D01*
X194970805Y-61997167D01*
X194946237Y-61752297D01*
X194893836Y-61628874D01*
X194783667Y-61579023D01*
X194701936Y-61567222D01*
X194405405Y-61565482D01*
X194178022Y-61623929D01*
G37*
X194178022Y-61623929D02*
X194062490Y-61729425D01*
X194056000Y-61765946D01*
X194102228Y-61877579D01*
X194140666Y-61891333D01*
X194222873Y-61826904D01*
X194225333Y-61806667D01*
X194299762Y-61750704D01*
X194482777Y-61722731D01*
X194521666Y-61722000D01*
X194720761Y-61736159D01*
X194802422Y-61807979D01*
X194818000Y-61976000D01*
X194801480Y-62146653D01*
X194717690Y-62216647D01*
X194521666Y-62230000D01*
X194325818Y-62207485D01*
X194227900Y-62152120D01*
X194225333Y-62140336D01*
X194173463Y-62089770D01*
X194140666Y-62103000D01*
X194062762Y-62225502D01*
X194056000Y-62277330D01*
X194102609Y-62351469D01*
X194261826Y-62389588D01*
X194526305Y-62399333D01*
X194996611Y-62399333D01*
X194970805Y-61997167D01*
X194946237Y-61752297D01*
X194893836Y-61628874D01*
X194783667Y-61579023D01*
X194701936Y-61567222D01*
X194405405Y-61565482D01*
X194178022Y-61623929D01*
G36*
X195425418Y-62213106D02*
G01*
X195410666Y-62272333D01*
X195478439Y-62384582D01*
X195537666Y-62399333D01*
X195649915Y-62331560D01*
X195664666Y-62272333D01*
X195596894Y-62160085D01*
X195537666Y-62145333D01*
X195425418Y-62213106D01*
G37*
X195425418Y-62213106D02*
X195410666Y-62272333D01*
X195478439Y-62384582D01*
X195537666Y-62399333D01*
X195649915Y-62331560D01*
X195664666Y-62272333D01*
X195596894Y-62160085D01*
X195537666Y-62145333D01*
X195425418Y-62213106D01*
G36*
X184414379Y-53673592D02*
G01*
X184396138Y-53682874D01*
X184258806Y-53835277D01*
X184254556Y-54031864D01*
X184361666Y-54186667D01*
X184455605Y-54344738D01*
X184488666Y-54535700D01*
X184476683Y-54685587D01*
X184410151Y-54756584D01*
X184243195Y-54778027D01*
X184107666Y-54779333D01*
X183726666Y-54779333D01*
X183726666Y-61552667D01*
X186442906Y-61552667D01*
X188587442Y-62484000D01*
X189237223Y-62765917D01*
X189748385Y-62986614D01*
X190137516Y-63152574D01*
X190421205Y-63270281D01*
X190616043Y-63346219D01*
X190738617Y-63386874D01*
X190805518Y-63398729D01*
X190833333Y-63388268D01*
X190838666Y-63363942D01*
X190793021Y-63278038D01*
X190735861Y-63188403D01*
X190584666Y-63188403D01*
X190510858Y-63166311D01*
X190303244Y-63083735D01*
X189982540Y-62949447D01*
X189569463Y-62772222D01*
X189084729Y-62560832D01*
X188658500Y-62372675D01*
X186732333Y-61518008D01*
X185293000Y-61471837D01*
X183853666Y-61425667D01*
X183831494Y-58187167D01*
X183809321Y-54948667D01*
X190392317Y-54948667D01*
X190446158Y-55341484D01*
X190459074Y-55519641D01*
X190470878Y-55843930D01*
X190481187Y-56291151D01*
X190489617Y-56838103D01*
X190495786Y-57461586D01*
X190499309Y-58138400D01*
X190500000Y-58601150D01*
X190500000Y-61468000D01*
X190048444Y-61468000D01*
X189785432Y-61477445D01*
X189597371Y-61501679D01*
X189542520Y-61522368D01*
X189566273Y-61608992D01*
X189671867Y-61803118D01*
X189841869Y-62075069D01*
X190036409Y-62363100D01*
X190254566Y-62679236D01*
X190431559Y-62941876D01*
X190547906Y-63121695D01*
X190584666Y-63188403D01*
X190735861Y-63188403D01*
X190669094Y-63083705D01*
X190486398Y-62810756D01*
X190288333Y-62523210D01*
X190069555Y-62205417D01*
X189891993Y-61939877D01*
X189775143Y-61756263D01*
X189738000Y-61685601D01*
X189814195Y-61658059D01*
X190009000Y-61640584D01*
X190161333Y-61637333D01*
X190584666Y-61637333D01*
X190584666Y-54779333D01*
X190246000Y-54779333D01*
X190029164Y-54770362D01*
X189932800Y-54714970D01*
X189908090Y-54570441D01*
X189907333Y-54483000D01*
X189926331Y-54287100D01*
X189973041Y-54189214D01*
X189982941Y-54186666D01*
X190078515Y-54115982D01*
X190126803Y-53957470D01*
X190123900Y-53932667D01*
X189992000Y-53932667D01*
X189949148Y-54071627D01*
X189843833Y-54085882D01*
X189717874Y-54002396D01*
X189695666Y-53932667D01*
X189766051Y-53813118D01*
X189843833Y-53779451D01*
X189963845Y-53808903D01*
X189992000Y-53932667D01*
X190123900Y-53932667D01*
X190109796Y-53812213D01*
X189981487Y-53664539D01*
X189786832Y-53655090D01*
X189606826Y-53751490D01*
X189406027Y-53909438D01*
X189599556Y-54091249D01*
X189744884Y-54299575D01*
X189755933Y-54526197D01*
X189718781Y-54779333D01*
X184573333Y-54779333D01*
X184573333Y-54551957D01*
X184630726Y-54328475D01*
X184763833Y-54121431D01*
X184911696Y-53963749D01*
X184719125Y-53963749D01*
X184701995Y-54014644D01*
X184578277Y-54085022D01*
X184425332Y-54052369D01*
X184340475Y-53953878D01*
X184370360Y-53844242D01*
X184493383Y-53784051D01*
X184634716Y-53801299D01*
X184673247Y-53829380D01*
X184719125Y-53963749D01*
X184911696Y-53963749D01*
X184954333Y-53918282D01*
X184755971Y-53757370D01*
X184573832Y-53651085D01*
X184414379Y-53673592D01*
G37*
X184414379Y-53673592D02*
X184396138Y-53682874D01*
X184258806Y-53835277D01*
X184254556Y-54031864D01*
X184361666Y-54186667D01*
X184455605Y-54344738D01*
X184488666Y-54535700D01*
X184476683Y-54685587D01*
X184410151Y-54756584D01*
X184243195Y-54778027D01*
X184107666Y-54779333D01*
X183726666Y-54779333D01*
X183726666Y-61552667D01*
X186442906Y-61552667D01*
X188587442Y-62484000D01*
X189237223Y-62765917D01*
X189748385Y-62986614D01*
X190137516Y-63152574D01*
X190421205Y-63270281D01*
X190616043Y-63346219D01*
X190738617Y-63386874D01*
X190805518Y-63398729D01*
X190833333Y-63388268D01*
X190838666Y-63363942D01*
X190793021Y-63278038D01*
X190735861Y-63188403D01*
X190584666Y-63188403D01*
X190510858Y-63166311D01*
X190303244Y-63083735D01*
X189982540Y-62949447D01*
X189569463Y-62772222D01*
X189084729Y-62560832D01*
X188658500Y-62372675D01*
X186732333Y-61518008D01*
X185293000Y-61471837D01*
X183853666Y-61425667D01*
X183831494Y-58187167D01*
X183809321Y-54948667D01*
X190392317Y-54948667D01*
X190446158Y-55341484D01*
X190459074Y-55519641D01*
X190470878Y-55843930D01*
X190481187Y-56291151D01*
X190489617Y-56838103D01*
X190495786Y-57461586D01*
X190499309Y-58138400D01*
X190500000Y-58601150D01*
X190500000Y-61468000D01*
X190048444Y-61468000D01*
X189785432Y-61477445D01*
X189597371Y-61501679D01*
X189542520Y-61522368D01*
X189566273Y-61608992D01*
X189671867Y-61803118D01*
X189841869Y-62075069D01*
X190036409Y-62363100D01*
X190254566Y-62679236D01*
X190431559Y-62941876D01*
X190547906Y-63121695D01*
X190584666Y-63188403D01*
X190735861Y-63188403D01*
X190669094Y-63083705D01*
X190486398Y-62810756D01*
X190288333Y-62523210D01*
X190069555Y-62205417D01*
X189891993Y-61939877D01*
X189775143Y-61756263D01*
X189738000Y-61685601D01*
X189814195Y-61658059D01*
X190009000Y-61640584D01*
X190161333Y-61637333D01*
X190584666Y-61637333D01*
X190584666Y-54779333D01*
X190246000Y-54779333D01*
X190029164Y-54770362D01*
X189932800Y-54714970D01*
X189908090Y-54570441D01*
X189907333Y-54483000D01*
X189926331Y-54287100D01*
X189973041Y-54189214D01*
X189982941Y-54186666D01*
X190078515Y-54115982D01*
X190126803Y-53957470D01*
X190123900Y-53932667D01*
X189992000Y-53932667D01*
X189949148Y-54071627D01*
X189843833Y-54085882D01*
X189717874Y-54002396D01*
X189695666Y-53932667D01*
X189766051Y-53813118D01*
X189843833Y-53779451D01*
X189963845Y-53808903D01*
X189992000Y-53932667D01*
X190123900Y-53932667D01*
X190109796Y-53812213D01*
X189981487Y-53664539D01*
X189786832Y-53655090D01*
X189606826Y-53751490D01*
X189406027Y-53909438D01*
X189599556Y-54091249D01*
X189744884Y-54299575D01*
X189755933Y-54526197D01*
X189718781Y-54779333D01*
X184573333Y-54779333D01*
X184573333Y-54551957D01*
X184630726Y-54328475D01*
X184763833Y-54121431D01*
X184911696Y-53963749D01*
X184719125Y-53963749D01*
X184701995Y-54014644D01*
X184578277Y-54085022D01*
X184425332Y-54052369D01*
X184340475Y-53953878D01*
X184370360Y-53844242D01*
X184493383Y-53784051D01*
X184634716Y-53801299D01*
X184673247Y-53829380D01*
X184719125Y-53963749D01*
X184911696Y-53963749D01*
X184954333Y-53918282D01*
X184755971Y-53757370D01*
X184573832Y-53651085D01*
X184414379Y-53673592D01*
D12*
X193072252Y-53444000D02*
X192549748Y-53444000D01*
X193072252Y-52024000D02*
X192549748Y-52024000D01*
X193072252Y-50494000D02*
X192549748Y-50494000D01*
X193072252Y-49074000D02*
X192549748Y-49074000D01*
X202572252Y-53444000D02*
X202049748Y-53444000D01*
X202572252Y-52024000D02*
X202049748Y-52024000D01*
X197822252Y-50494000D02*
X197299748Y-50494000D01*
X197822252Y-49074000D02*
X197299748Y-49074000D01*
D10*
X201296000Y-57532000D02*
X201296000Y-73532000D01*
X217296000Y-57532000D02*
X217296000Y-73532000D01*
X202796000Y-60032000D02*
G75*
G03X202796000Y-60032000I-500000J0D01*
G01*
D12*
X189940000Y-48521252D02*
X189940000Y-47998748D01*
X188520000Y-48521252D02*
X188520000Y-47998748D01*
X202699252Y-49074000D02*
X202176748Y-49074000D01*
X202699252Y-50494000D02*
X202176748Y-50494000D01*
D10*
X216904000Y-47584000D02*
X207904000Y-47584000D01*
X207804000Y-51884000D02*
X209404000Y-51884000D01*
X207804000Y-50084000D02*
X207804000Y-51884000D01*
X211804000Y-51884000D02*
X218804000Y-51884000D01*
X204604000Y-55284000D02*
X204604000Y-55284000D01*
X220008988Y-49784000D02*
G75*
G03X220008988Y-49784000I-1004988J0D01*
G01*
X213004000Y-49784000D02*
G75*
G03X213004000Y-49784000I-1000000J0D01*
G01*
X222504000Y-51884000D02*
X221204000Y-51884000D01*
X222504000Y-47584000D02*
X222504000Y-51884000D01*
X221804000Y-47584000D02*
X222504000Y-47584000D01*
X207904000Y-47584000D02*
X207904000Y-47784000D01*
X207804000Y-50084000D02*
X207804000Y-49984000D01*
X209404000Y-51884000D02*
X209504000Y-51884000D01*
X211804000Y-51884000D02*
X211704000Y-51884000D01*
D12*
X191605748Y-68061000D02*
X192128252Y-68061000D01*
X191605748Y-66641000D02*
X192128252Y-66641000D01*
X191605748Y-65111000D02*
X192128252Y-65111000D01*
X191605748Y-63691000D02*
X192128252Y-63691000D01*
X196355748Y-66641000D02*
X196878252Y-66641000D01*
X196355748Y-68061000D02*
X196878252Y-68061000D01*
X196334748Y-63298000D02*
X196857252Y-63298000D01*
X196334748Y-64718000D02*
X196857252Y-64718000D01*
X187389748Y-70705000D02*
X187912252Y-70705000D01*
X187389748Y-72125000D02*
X187912252Y-72125000D01*
X187389748Y-69175000D02*
X187912252Y-69175000D01*
X187389748Y-67755000D02*
X187912252Y-67755000D01*
D10*
X189904666Y-53284380D02*
X190238000Y-52808190D01*
X190476095Y-53284380D02*
X190476095Y-52284380D01*
X190095142Y-52284380D01*
X189999904Y-52332000D01*
X189952285Y-52379619D01*
X189904666Y-52474857D01*
X189904666Y-52617714D01*
X189952285Y-52712952D01*
X189999904Y-52760571D01*
X190095142Y-52808190D01*
X190476095Y-52808190D01*
X189333238Y-52712952D02*
X189428476Y-52665333D01*
X189476095Y-52617714D01*
X189523714Y-52522476D01*
X189523714Y-52474857D01*
X189476095Y-52379619D01*
X189428476Y-52332000D01*
X189333238Y-52284380D01*
X189142761Y-52284380D01*
X189047523Y-52332000D01*
X188999904Y-52379619D01*
X188952285Y-52474857D01*
X188952285Y-52522476D01*
X188999904Y-52617714D01*
X189047523Y-52665333D01*
X189142761Y-52712952D01*
X189333238Y-52712952D01*
X189428476Y-52760571D01*
X189476095Y-52808190D01*
X189523714Y-52903428D01*
X189523714Y-53093904D01*
X189476095Y-53189142D01*
X189428476Y-53236761D01*
X189333238Y-53284380D01*
X189142761Y-53284380D01*
X189047523Y-53236761D01*
X188999904Y-53189142D01*
X188952285Y-53093904D01*
X188952285Y-52903428D01*
X188999904Y-52808190D01*
X189047523Y-52760571D01*
X189142761Y-52712952D01*
X192977666Y-48204380D02*
X193311000Y-47728190D01*
X193549095Y-48204380D02*
X193549095Y-47204380D01*
X193168142Y-47204380D01*
X193072904Y-47252000D01*
X193025285Y-47299619D01*
X192977666Y-47394857D01*
X192977666Y-47537714D01*
X193025285Y-47632952D01*
X193072904Y-47680571D01*
X193168142Y-47728190D01*
X193549095Y-47728190D01*
X192644333Y-47204380D02*
X191977666Y-47204380D01*
X192406238Y-48204380D01*
X205652666Y-53284380D02*
X205986000Y-52808190D01*
X206224095Y-53284380D02*
X206224095Y-52284380D01*
X205843142Y-52284380D01*
X205747904Y-52332000D01*
X205700285Y-52379619D01*
X205652666Y-52474857D01*
X205652666Y-52617714D01*
X205700285Y-52712952D01*
X205747904Y-52760571D01*
X205843142Y-52808190D01*
X206224095Y-52808190D01*
X204795523Y-52617714D02*
X204795523Y-53284380D01*
X205033619Y-52236761D02*
X205271714Y-52951047D01*
X204652666Y-52951047D01*
X197727666Y-48204380D02*
X198061000Y-47728190D01*
X198299095Y-48204380D02*
X198299095Y-47204380D01*
X197918142Y-47204380D01*
X197822904Y-47252000D01*
X197775285Y-47299619D01*
X197727666Y-47394857D01*
X197727666Y-47537714D01*
X197775285Y-47632952D01*
X197822904Y-47680571D01*
X197918142Y-47728190D01*
X198299095Y-47728190D01*
X197394333Y-47204380D02*
X196775285Y-47204380D01*
X197108619Y-47585333D01*
X196965761Y-47585333D01*
X196870523Y-47632952D01*
X196822904Y-47680571D01*
X196775285Y-47775809D01*
X196775285Y-48013904D01*
X196822904Y-48109142D01*
X196870523Y-48156761D01*
X196965761Y-48204380D01*
X197251476Y-48204380D01*
X197346714Y-48156761D01*
X197394333Y-48109142D01*
X217748380Y-64770095D02*
X218557904Y-64770095D01*
X218653142Y-64817714D01*
X218700761Y-64865333D01*
X218748380Y-64960571D01*
X218748380Y-65151047D01*
X218700761Y-65246285D01*
X218653142Y-65293904D01*
X218557904Y-65341523D01*
X217748380Y-65341523D01*
X217748380Y-65722476D02*
X217748380Y-66341523D01*
X218129333Y-66008190D01*
X218129333Y-66151047D01*
X218176952Y-66246285D01*
X218224571Y-66293904D01*
X218319809Y-66341523D01*
X218557904Y-66341523D01*
X218653142Y-66293904D01*
X218700761Y-66246285D01*
X218748380Y-66151047D01*
X218748380Y-65865333D01*
X218700761Y-65770095D01*
X218653142Y-65722476D01*
X211149428Y-61166857D02*
X211078000Y-61024000D01*
X211006571Y-60952571D01*
X210863714Y-60881142D01*
X210792285Y-60881142D01*
X210649428Y-60952571D01*
X210578000Y-61024000D01*
X210506571Y-61166857D01*
X210506571Y-61452571D01*
X210578000Y-61595428D01*
X210649428Y-61666857D01*
X210792285Y-61738285D01*
X210863714Y-61738285D01*
X211006571Y-61666857D01*
X211078000Y-61595428D01*
X211149428Y-61452571D01*
X211149428Y-61166857D01*
X211220857Y-61024000D01*
X211292285Y-60952571D01*
X211435142Y-60881142D01*
X211720857Y-60881142D01*
X211863714Y-60952571D01*
X211935142Y-61024000D01*
X212006571Y-61166857D01*
X212006571Y-61452571D01*
X211935142Y-61595428D01*
X211863714Y-61666857D01*
X211720857Y-61738285D01*
X211435142Y-61738285D01*
X211292285Y-61666857D01*
X211220857Y-61595428D01*
X211149428Y-61452571D01*
X210506571Y-63024000D02*
X210506571Y-62738285D01*
X210578000Y-62595428D01*
X210649428Y-62524000D01*
X210863714Y-62381142D01*
X211149428Y-62309714D01*
X211720857Y-62309714D01*
X211863714Y-62381142D01*
X211935142Y-62452571D01*
X212006571Y-62595428D01*
X212006571Y-62881142D01*
X211935142Y-63024000D01*
X211863714Y-63095428D01*
X211720857Y-63166857D01*
X211363714Y-63166857D01*
X211220857Y-63095428D01*
X211149428Y-63024000D01*
X211078000Y-62881142D01*
X211078000Y-62595428D01*
X211149428Y-62452571D01*
X211220857Y-62381142D01*
X211363714Y-62309714D01*
X211149428Y-64024000D02*
X211078000Y-63881142D01*
X211006571Y-63809714D01*
X210863714Y-63738285D01*
X210792285Y-63738285D01*
X210649428Y-63809714D01*
X210578000Y-63881142D01*
X210506571Y-64024000D01*
X210506571Y-64309714D01*
X210578000Y-64452571D01*
X210649428Y-64524000D01*
X210792285Y-64595428D01*
X210863714Y-64595428D01*
X211006571Y-64524000D01*
X211078000Y-64452571D01*
X211149428Y-64309714D01*
X211149428Y-64024000D01*
X211220857Y-63881142D01*
X211292285Y-63809714D01*
X211435142Y-63738285D01*
X211720857Y-63738285D01*
X211863714Y-63809714D01*
X211935142Y-63881142D01*
X212006571Y-64024000D01*
X212006571Y-64309714D01*
X211935142Y-64452571D01*
X211863714Y-64524000D01*
X211720857Y-64595428D01*
X211435142Y-64595428D01*
X211292285Y-64524000D01*
X211220857Y-64452571D01*
X211149428Y-64309714D01*
X211935142Y-65166857D02*
X212006571Y-65309714D01*
X212006571Y-65595428D01*
X211935142Y-65738285D01*
X211792285Y-65809714D01*
X211720857Y-65809714D01*
X211578000Y-65738285D01*
X211506571Y-65595428D01*
X211506571Y-65381142D01*
X211435142Y-65238285D01*
X211292285Y-65166857D01*
X211220857Y-65166857D01*
X211078000Y-65238285D01*
X211006571Y-65381142D01*
X211006571Y-65595428D01*
X211078000Y-65738285D01*
X212006571Y-66452571D02*
X211006571Y-66452571D01*
X211149428Y-66452571D02*
X211078000Y-66524000D01*
X211006571Y-66666857D01*
X211006571Y-66881142D01*
X211078000Y-67024000D01*
X211220857Y-67095428D01*
X212006571Y-67095428D01*
X211220857Y-67095428D02*
X211078000Y-67166857D01*
X211006571Y-67309714D01*
X211006571Y-67524000D01*
X211078000Y-67666857D01*
X211220857Y-67738285D01*
X212006571Y-67738285D01*
X212006571Y-69095428D02*
X211220857Y-69095428D01*
X211078000Y-69024000D01*
X211006571Y-68881142D01*
X211006571Y-68595428D01*
X211078000Y-68452571D01*
X211935142Y-69095428D02*
X212006571Y-68952571D01*
X212006571Y-68595428D01*
X211935142Y-68452571D01*
X211792285Y-68381142D01*
X211649428Y-68381142D01*
X211506571Y-68452571D01*
X211435142Y-68595428D01*
X211435142Y-68952571D01*
X211363714Y-69095428D01*
X189396666Y-51252380D02*
X189730000Y-50776190D01*
X189968095Y-51252380D02*
X189968095Y-50252380D01*
X189587142Y-50252380D01*
X189491904Y-50300000D01*
X189444285Y-50347619D01*
X189396666Y-50442857D01*
X189396666Y-50585714D01*
X189444285Y-50680952D01*
X189491904Y-50728571D01*
X189587142Y-50776190D01*
X189968095Y-50776190D01*
X189015714Y-50347619D02*
X188968095Y-50300000D01*
X188872857Y-50252380D01*
X188634761Y-50252380D01*
X188539523Y-50300000D01*
X188491904Y-50347619D01*
X188444285Y-50442857D01*
X188444285Y-50538095D01*
X188491904Y-50680952D01*
X189063333Y-51252380D01*
X188444285Y-51252380D01*
X202604666Y-48586380D02*
X202938000Y-48110190D01*
X203176095Y-48586380D02*
X203176095Y-47586380D01*
X202795142Y-47586380D01*
X202699904Y-47634000D01*
X202652285Y-47681619D01*
X202604666Y-47776857D01*
X202604666Y-47919714D01*
X202652285Y-48014952D01*
X202699904Y-48062571D01*
X202795142Y-48110190D01*
X203176095Y-48110190D01*
X201652285Y-48586380D02*
X202223714Y-48586380D01*
X201938000Y-48586380D02*
X201938000Y-47586380D01*
X202033238Y-47729238D01*
X202128476Y-47824476D01*
X202223714Y-47872095D01*
X192033666Y-69453380D02*
X192367000Y-68977190D01*
X192605095Y-69453380D02*
X192605095Y-68453380D01*
X192224142Y-68453380D01*
X192128904Y-68501000D01*
X192081285Y-68548619D01*
X192033666Y-68643857D01*
X192033666Y-68786714D01*
X192081285Y-68881952D01*
X192128904Y-68929571D01*
X192224142Y-68977190D01*
X192605095Y-68977190D01*
X191128904Y-68453380D02*
X191605095Y-68453380D01*
X191652714Y-68929571D01*
X191605095Y-68881952D01*
X191509857Y-68834333D01*
X191271761Y-68834333D01*
X191176523Y-68881952D01*
X191128904Y-68929571D01*
X191081285Y-69024809D01*
X191081285Y-69262904D01*
X191128904Y-69358142D01*
X191176523Y-69405761D01*
X191271761Y-69453380D01*
X191509857Y-69453380D01*
X191605095Y-69405761D01*
X191652714Y-69358142D01*
X192509857Y-66503380D02*
X192843190Y-66027190D01*
X193081285Y-66503380D02*
X193081285Y-65503380D01*
X192700333Y-65503380D01*
X192605095Y-65551000D01*
X192557476Y-65598619D01*
X192509857Y-65693857D01*
X192509857Y-65836714D01*
X192557476Y-65931952D01*
X192605095Y-65979571D01*
X192700333Y-66027190D01*
X193081285Y-66027190D01*
X191652714Y-65503380D02*
X191843190Y-65503380D01*
X191938428Y-65551000D01*
X191986047Y-65598619D01*
X192081285Y-65741476D01*
X192128904Y-65931952D01*
X192128904Y-66312904D01*
X192081285Y-66408142D01*
X192033666Y-66455761D01*
X191938428Y-66503380D01*
X191747952Y-66503380D01*
X191652714Y-66455761D01*
X191605095Y-66408142D01*
X191557476Y-66312904D01*
X191557476Y-66074809D01*
X191605095Y-65979571D01*
X191652714Y-65931952D01*
X191747952Y-65884333D01*
X191938428Y-65884333D01*
X192033666Y-65931952D01*
X192081285Y-65979571D01*
X192128904Y-66074809D01*
X190700333Y-65503380D02*
X190890809Y-65503380D01*
X190986047Y-65551000D01*
X191033666Y-65598619D01*
X191128904Y-65741476D01*
X191176523Y-65931952D01*
X191176523Y-66312904D01*
X191128904Y-66408142D01*
X191081285Y-66455761D01*
X190986047Y-66503380D01*
X190795571Y-66503380D01*
X190700333Y-66455761D01*
X190652714Y-66408142D01*
X190605095Y-66312904D01*
X190605095Y-66074809D01*
X190652714Y-65979571D01*
X190700333Y-65931952D01*
X190795571Y-65884333D01*
X190986047Y-65884333D01*
X191081285Y-65931952D01*
X191128904Y-65979571D01*
X191176523Y-66074809D01*
X196783666Y-69453380D02*
X197117000Y-68977190D01*
X197355095Y-69453380D02*
X197355095Y-68453380D01*
X196974142Y-68453380D01*
X196878904Y-68501000D01*
X196831285Y-68548619D01*
X196783666Y-68643857D01*
X196783666Y-68786714D01*
X196831285Y-68881952D01*
X196878904Y-68929571D01*
X196974142Y-68977190D01*
X197355095Y-68977190D01*
X196307476Y-69453380D02*
X196117000Y-69453380D01*
X196021761Y-69405761D01*
X195974142Y-69358142D01*
X195878904Y-69215285D01*
X195831285Y-69024809D01*
X195831285Y-68643857D01*
X195878904Y-68548619D01*
X195926523Y-68501000D01*
X196021761Y-68453380D01*
X196212238Y-68453380D01*
X196307476Y-68501000D01*
X196355095Y-68548619D01*
X196402714Y-68643857D01*
X196402714Y-68881952D01*
X196355095Y-68977190D01*
X196307476Y-69024809D01*
X196212238Y-69072428D01*
X196021761Y-69072428D01*
X195926523Y-69024809D01*
X195878904Y-68977190D01*
X195831285Y-68881952D01*
X197238857Y-66110380D02*
X197572190Y-65634190D01*
X197810285Y-66110380D02*
X197810285Y-65110380D01*
X197429333Y-65110380D01*
X197334095Y-65158000D01*
X197286476Y-65205619D01*
X197238857Y-65300857D01*
X197238857Y-65443714D01*
X197286476Y-65538952D01*
X197334095Y-65586571D01*
X197429333Y-65634190D01*
X197810285Y-65634190D01*
X196286476Y-66110380D02*
X196857904Y-66110380D01*
X196572190Y-66110380D02*
X196572190Y-65110380D01*
X196667428Y-65253238D01*
X196762666Y-65348476D01*
X196857904Y-65396095D01*
X195667428Y-65110380D02*
X195572190Y-65110380D01*
X195476952Y-65158000D01*
X195429333Y-65205619D01*
X195381714Y-65300857D01*
X195334095Y-65491333D01*
X195334095Y-65729428D01*
X195381714Y-65919904D01*
X195429333Y-66015142D01*
X195476952Y-66062761D01*
X195572190Y-66110380D01*
X195667428Y-66110380D01*
X195762666Y-66062761D01*
X195810285Y-66015142D01*
X195857904Y-65919904D01*
X195905523Y-65729428D01*
X195905523Y-65491333D01*
X195857904Y-65300857D01*
X195810285Y-65205619D01*
X195762666Y-65158000D01*
X195667428Y-65110380D01*
X188293857Y-73517380D02*
X188627190Y-73041190D01*
X188865285Y-73517380D02*
X188865285Y-72517380D01*
X188484333Y-72517380D01*
X188389095Y-72565000D01*
X188341476Y-72612619D01*
X188293857Y-72707857D01*
X188293857Y-72850714D01*
X188341476Y-72945952D01*
X188389095Y-72993571D01*
X188484333Y-73041190D01*
X188865285Y-73041190D01*
X187341476Y-73517380D02*
X187912904Y-73517380D01*
X187627190Y-73517380D02*
X187627190Y-72517380D01*
X187722428Y-72660238D01*
X187817666Y-72755476D01*
X187912904Y-72803095D01*
X186389095Y-73517380D02*
X186960523Y-73517380D01*
X186674809Y-73517380D02*
X186674809Y-72517380D01*
X186770047Y-72660238D01*
X186865285Y-72755476D01*
X186960523Y-72803095D01*
X188293857Y-70567380D02*
X188627190Y-70091190D01*
X188865285Y-70567380D02*
X188865285Y-69567380D01*
X188484333Y-69567380D01*
X188389095Y-69615000D01*
X188341476Y-69662619D01*
X188293857Y-69757857D01*
X188293857Y-69900714D01*
X188341476Y-69995952D01*
X188389095Y-70043571D01*
X188484333Y-70091190D01*
X188865285Y-70091190D01*
X187341476Y-70567380D02*
X187912904Y-70567380D01*
X187627190Y-70567380D02*
X187627190Y-69567380D01*
X187722428Y-69710238D01*
X187817666Y-69805476D01*
X187912904Y-69853095D01*
X186960523Y-69662619D02*
X186912904Y-69615000D01*
X186817666Y-69567380D01*
X186579571Y-69567380D01*
X186484333Y-69615000D01*
X186436714Y-69662619D01*
X186389095Y-69757857D01*
X186389095Y-69853095D01*
X186436714Y-69995952D01*
X187008142Y-70567380D01*
X186389095Y-70567380D01*
M02*
